<?xml version="1.0" encoding="utf-8" standalone="no"?>
<!DOCTYPE svg PUBLIC "-//W3C//DTD SVG 1.1//EN"
  "http://www.w3.org/Graphics/SVG/1.1/DTD/svg11.dtd">
<svg xmlns:xlink="http://www.w3.org/1999/xlink" width="599.393438pt" height="215.984063pt" viewBox="0 0 599.393438 215.984063" xmlns="http://www.w3.org/2000/svg" version="1.1">
 <metadata>
  <rdf:RDF xmlns:dc="http://purl.org/dc/elements/1.1/" xmlns:cc="http://creativecommons.org/ns#" xmlns:rdf="http://www.w3.org/1999/02/22-rdf-syntax-ns#">
   <cc:Work>
    <dc:type rdf:resource="http://purl.org/dc/dcmitype/StillImage"/>
    <dc:date>2024-02-20T19:55:52.326004</dc:date>
    <dc:format>image/svg+xml</dc:format>
    <dc:creator>
     <cc:Agent>
      <dc:title>Matplotlib v3.7.1, https://matplotlib.org/</dc:title>
     </cc:Agent>
    </dc:creator>
   </cc:Work>
  </rdf:RDF>
 </metadata>
 <defs>
  <style type="text/css">*{stroke-linejoin: round; stroke-linecap: butt}</style>
 </defs>
 <g id="figure_1">
  <g id="patch_1">
   <path d="M 0 215.984063 
L 599.393438 215.984063 
L 599.393438 0 
L 0 0 
z
" style="fill: #ffffff"/>
  </g>
  <g id="axes_1">
   <g id="patch_2">
    <path d="M 34.193438 188.638125 
L 592.193437 188.638125 
L 592.193437 22.318125 
L 34.193438 22.318125 
z
" style="fill: #eaeaf2"/>
   </g>
   <g id="matplotlib.axis_1">
    <g id="xtick_1">
     <g id="line2d_1">
      <path d="M 105.486445 188.638125 
L 105.486445 22.318125 
" clip-path="url(#p704d20ec72)" style="fill: none; stroke: #ffffff; stroke-linecap: round"/>
     </g>
     <g id="text_1">
      <!-- −10 -->
      <g style="fill: #262626" transform="translate(93.878867 206.496406) scale(0.11 -0.11)">
       <defs>
        <path id="DejaVuSans-2212" d="M 678 2272 
L 4684 2272 
L 4684 1741 
L 678 1741 
L 678 2272 
z
" transform="scale(0.015625)"/>
        <path id="DejaVuSans-31" d="M 794 531 
L 1825 531 
L 1825 4091 
L 703 3866 
L 703 4441 
L 1819 4666 
L 2450 4666 
L 2450 531 
L 3481 531 
L 3481 0 
L 794 0 
L 794 531 
z
" transform="scale(0.015625)"/>
        <path id="DejaVuSans-30" d="M 2034 4250 
Q 1547 4250 1301 3770 
Q 1056 3291 1056 2328 
Q 1056 1369 1301 889 
Q 1547 409 2034 409 
Q 2525 409 2770 889 
Q 3016 1369 3016 2328 
Q 3016 3291 2770 3770 
Q 2525 4250 2034 4250 
z
M 2034 4750 
Q 2819 4750 3233 4129 
Q 3647 3509 3647 2328 
Q 3647 1150 3233 529 
Q 2819 -91 2034 -91 
Q 1250 -91 836 529 
Q 422 1150 422 2328 
Q 422 3509 836 4129 
Q 1250 4750 2034 4750 
z
" transform="scale(0.015625)"/>
       </defs>
       <use xlink:href="#DejaVuSans-2212"/>
       <use xlink:href="#DejaVuSans-31" x="83.789062"/>
       <use xlink:href="#DejaVuSans-30" x="147.412109"/>
      </g>
     </g>
    </g>
    <g id="xtick_2">
     <g id="line2d_2">
      <path d="M 209.588666 188.638125 
L 209.588666 22.318125 
" clip-path="url(#p704d20ec72)" style="fill: none; stroke: #ffffff; stroke-linecap: round"/>
     </g>
     <g id="text_2">
      <!-- −5 -->
      <g style="fill: #262626" transform="translate(201.480463 206.496406) scale(0.11 -0.11)">
       <defs>
        <path id="DejaVuSans-35" d="M 691 4666 
L 3169 4666 
L 3169 4134 
L 1269 4134 
L 1269 2991 
Q 1406 3038 1543 3061 
Q 1681 3084 1819 3084 
Q 2600 3084 3056 2656 
Q 3513 2228 3513 1497 
Q 3513 744 3044 326 
Q 2575 -91 1722 -91 
Q 1428 -91 1123 -41 
Q 819 9 494 109 
L 494 744 
Q 775 591 1075 516 
Q 1375 441 1709 441 
Q 2250 441 2565 725 
Q 2881 1009 2881 1497 
Q 2881 1984 2565 2268 
Q 2250 2553 1709 2553 
Q 1456 2553 1204 2497 
Q 953 2441 691 2322 
L 691 4666 
z
" transform="scale(0.015625)"/>
       </defs>
       <use xlink:href="#DejaVuSans-2212"/>
       <use xlink:href="#DejaVuSans-35" x="83.789062"/>
      </g>
     </g>
    </g>
    <g id="xtick_3">
     <g id="line2d_3">
      <path d="M 313.690888 188.638125 
L 313.690888 22.318125 
" clip-path="url(#p704d20ec72)" style="fill: none; stroke: #ffffff; stroke-linecap: round"/>
     </g>
     <g id="text_3">
      <!-- 0 -->
      <g style="fill: #262626" transform="translate(310.191513 206.496406) scale(0.11 -0.11)">
       <use xlink:href="#DejaVuSans-30"/>
      </g>
     </g>
    </g>
    <g id="xtick_4">
     <g id="line2d_4">
      <path d="M 417.79311 188.638125 
L 417.79311 22.318125 
" clip-path="url(#p704d20ec72)" style="fill: none; stroke: #ffffff; stroke-linecap: round"/>
     </g>
     <g id="text_4">
      <!-- 5 -->
      <g style="fill: #262626" transform="translate(414.293735 206.496406) scale(0.11 -0.11)">
       <use xlink:href="#DejaVuSans-35"/>
      </g>
     </g>
    </g>
    <g id="xtick_5">
     <g id="line2d_5">
      <path d="M 521.895331 188.638125 
L 521.895331 22.318125 
" clip-path="url(#p704d20ec72)" style="fill: none; stroke: #ffffff; stroke-linecap: round"/>
     </g>
     <g id="text_5">
      <!-- 10 -->
      <g style="fill: #262626" transform="translate(514.896581 206.496406) scale(0.11 -0.11)">
       <use xlink:href="#DejaVuSans-31"/>
       <use xlink:href="#DejaVuSans-30" x="63.623047"/>
      </g>
     </g>
    </g>
   </g>
   <g id="matplotlib.axis_2">
    <g id="ytick_1">
     <g id="line2d_6">
      <path d="M 34.193438 188.638125 
L 592.193437 188.638125 
" clip-path="url(#p704d20ec72)" style="fill: none; stroke: #ffffff; stroke-linecap: round"/>
     </g>
     <g id="text_6">
      <!-- 0.0 -->
      <g style="fill: #262626" transform="translate(7.2 192.817266) scale(0.11 -0.11)">
       <defs>
        <path id="DejaVuSans-2e" d="M 684 794 
L 1344 794 
L 1344 0 
L 684 0 
L 684 794 
z
" transform="scale(0.015625)"/>
       </defs>
       <use xlink:href="#DejaVuSans-30"/>
       <use xlink:href="#DejaVuSans-2e" x="63.623047"/>
       <use xlink:href="#DejaVuSans-30" x="95.410156"/>
      </g>
     </g>
    </g>
    <g id="ytick_2">
     <g id="line2d_7">
      <path d="M 34.193438 147.028432 
L 592.193437 147.028432 
" clip-path="url(#p704d20ec72)" style="fill: none; stroke: #ffffff; stroke-linecap: round"/>
     </g>
     <g id="text_7">
      <!-- 0.2 -->
      <g style="fill: #262626" transform="translate(7.2 151.207573) scale(0.11 -0.11)">
       <defs>
        <path id="DejaVuSans-32" d="M 1228 531 
L 3431 531 
L 3431 0 
L 469 0 
L 469 531 
Q 828 903 1448 1529 
Q 2069 2156 2228 2338 
Q 2531 2678 2651 2914 
Q 2772 3150 2772 3378 
Q 2772 3750 2511 3984 
Q 2250 4219 1831 4219 
Q 1534 4219 1204 4116 
Q 875 4013 500 3803 
L 500 4441 
Q 881 4594 1212 4672 
Q 1544 4750 1819 4750 
Q 2544 4750 2975 4387 
Q 3406 4025 3406 3419 
Q 3406 3131 3298 2873 
Q 3191 2616 2906 2266 
Q 2828 2175 2409 1742 
Q 1991 1309 1228 531 
z
" transform="scale(0.015625)"/>
       </defs>
       <use xlink:href="#DejaVuSans-30"/>
       <use xlink:href="#DejaVuSans-2e" x="63.623047"/>
       <use xlink:href="#DejaVuSans-32" x="95.410156"/>
      </g>
     </g>
    </g>
    <g id="ytick_3">
     <g id="line2d_8">
      <path d="M 34.193438 105.418739 
L 592.193437 105.418739 
" clip-path="url(#p704d20ec72)" style="fill: none; stroke: #ffffff; stroke-linecap: round"/>
     </g>
     <g id="text_8">
      <!-- 0.4 -->
      <g style="fill: #262626" transform="translate(7.2 109.59788) scale(0.11 -0.11)">
       <defs>
        <path id="DejaVuSans-34" d="M 2419 4116 
L 825 1625 
L 2419 1625 
L 2419 4116 
z
M 2253 4666 
L 3047 4666 
L 3047 1625 
L 3713 1625 
L 3713 1100 
L 3047 1100 
L 3047 0 
L 2419 0 
L 2419 1100 
L 313 1100 
L 313 1709 
L 2253 4666 
z
" transform="scale(0.015625)"/>
       </defs>
       <use xlink:href="#DejaVuSans-30"/>
       <use xlink:href="#DejaVuSans-2e" x="63.623047"/>
       <use xlink:href="#DejaVuSans-34" x="95.410156"/>
      </g>
     </g>
    </g>
    <g id="ytick_4">
     <g id="line2d_9">
      <path d="M 34.193438 63.809047 
L 592.193437 63.809047 
" clip-path="url(#p704d20ec72)" style="fill: none; stroke: #ffffff; stroke-linecap: round"/>
     </g>
     <g id="text_9">
      <!-- 0.6 -->
      <g style="fill: #262626" transform="translate(7.2 67.988187) scale(0.11 -0.11)">
       <defs>
        <path id="DejaVuSans-36" d="M 2113 2584 
Q 1688 2584 1439 2293 
Q 1191 2003 1191 1497 
Q 1191 994 1439 701 
Q 1688 409 2113 409 
Q 2538 409 2786 701 
Q 3034 994 3034 1497 
Q 3034 2003 2786 2293 
Q 2538 2584 2113 2584 
z
M 3366 4563 
L 3366 3988 
Q 3128 4100 2886 4159 
Q 2644 4219 2406 4219 
Q 1781 4219 1451 3797 
Q 1122 3375 1075 2522 
Q 1259 2794 1537 2939 
Q 1816 3084 2150 3084 
Q 2853 3084 3261 2657 
Q 3669 2231 3669 1497 
Q 3669 778 3244 343 
Q 2819 -91 2113 -91 
Q 1303 -91 875 529 
Q 447 1150 447 2328 
Q 447 3434 972 4092 
Q 1497 4750 2381 4750 
Q 2619 4750 2861 4703 
Q 3103 4656 3366 4563 
z
" transform="scale(0.015625)"/>
       </defs>
       <use xlink:href="#DejaVuSans-30"/>
       <use xlink:href="#DejaVuSans-2e" x="63.623047"/>
       <use xlink:href="#DejaVuSans-36" x="95.410156"/>
      </g>
     </g>
    </g>
   </g>
   <g id="patch_3">
    <path d="M 59.557074 188.638125 
L 61.538616 188.638125 
L 61.538616 188.391701 
L 59.557074 188.391701 
z
" clip-path="url(#p704d20ec72)" style="fill: #4c72b0; fill-opacity: 0.5; stroke: #4c72b0; stroke-linejoin: miter"/>
   </g>
   <g id="patch_4">
    <path d="M 61.538616 188.638125 
L 63.520137 188.638125 
L 63.520137 188.369914 
L 61.538616 188.369914 
z
" clip-path="url(#p704d20ec72)" style="fill: #4c72b0; fill-opacity: 0.5; stroke: #4c72b0; stroke-linejoin: miter"/>
   </g>
   <g id="patch_5">
    <path d="M 63.520137 188.638125 
L 65.501679 188.638125 
L 65.501679 188.388978 
L 63.520137 188.388978 
z
" clip-path="url(#p704d20ec72)" style="fill: #4c72b0; fill-opacity: 0.5; stroke: #4c72b0; stroke-linejoin: miter"/>
   </g>
   <g id="patch_6">
    <path d="M 65.501679 188.638125 
L 67.483201 188.638125 
L 67.483201 188.334516 
L 65.501679 188.334516 
z
" clip-path="url(#p704d20ec72)" style="fill: #4c72b0; fill-opacity: 0.5; stroke: #4c72b0; stroke-linejoin: miter"/>
   </g>
   <g id="patch_7">
    <path d="M 67.483201 188.638125 
L 69.464743 188.638125 
L 69.464743 188.322266 
L 67.483201 188.322266 
z
" clip-path="url(#p704d20ec72)" style="fill: #4c72b0; fill-opacity: 0.5; stroke: #4c72b0; stroke-linejoin: miter"/>
   </g>
   <g id="patch_8">
    <path d="M 69.464743 188.638125 
L 71.446284 188.638125 
L 71.446284 188.282784 
L 69.464743 188.282784 
z
" clip-path="url(#p704d20ec72)" style="fill: #4c72b0; fill-opacity: 0.5; stroke: #4c72b0; stroke-linejoin: miter"/>
   </g>
   <g id="patch_9">
    <path d="M 71.446284 188.638125 
L 73.427806 188.638125 
L 73.427806 188.20926 
L 71.446284 188.20926 
z
" clip-path="url(#p704d20ec72)" style="fill: #4c72b0; fill-opacity: 0.5; stroke: #4c72b0; stroke-linejoin: miter"/>
   </g>
   <g id="patch_10">
    <path d="M 73.427806 188.638125 
L 75.409348 188.638125 
L 75.409348 188.154806 
L 73.427806 188.154806 
z
" clip-path="url(#p704d20ec72)" style="fill: #4c72b0; fill-opacity: 0.5; stroke: #4c72b0; stroke-linejoin: miter"/>
   </g>
   <g id="patch_11">
    <path d="M 75.409348 188.638125 
L 77.39089 188.638125 
L 77.39089 188.167059 
L 75.409348 188.167059 
z
" clip-path="url(#p704d20ec72)" style="fill: #4c72b0; fill-opacity: 0.5; stroke: #4c72b0; stroke-linejoin: miter"/>
   </g>
   <g id="patch_12">
    <path d="M 77.39089 188.638125 
L 79.372411 188.638125 
L 79.372411 188.118042 
L 77.39089 188.118042 
z
" clip-path="url(#p704d20ec72)" style="fill: #4c72b0; fill-opacity: 0.5; stroke: #4c72b0; stroke-linejoin: miter"/>
   </g>
   <g id="patch_13">
    <path d="M 79.372411 188.638125 
L 81.353953 188.638125 
L 81.353953 188.039082 
L 79.372411 188.039082 
z
" clip-path="url(#p704d20ec72)" style="fill: #4c72b0; fill-opacity: 0.5; stroke: #4c72b0; stroke-linejoin: miter"/>
   </g>
   <g id="patch_14">
    <path d="M 81.353953 188.638125 
L 83.335475 188.638125 
L 83.335475 188.0241 
L 81.353953 188.0241 
z
" clip-path="url(#p704d20ec72)" style="fill: #4c72b0; fill-opacity: 0.5; stroke: #4c72b0; stroke-linejoin: miter"/>
   </g>
   <g id="patch_15">
    <path d="M 83.335475 188.638125 
L 85.317017 188.638125 
L 85.317017 187.94378 
L 83.335475 187.94378 
z
" clip-path="url(#p704d20ec72)" style="fill: #4c72b0; fill-opacity: 0.5; stroke: #4c72b0; stroke-linejoin: miter"/>
   </g>
   <g id="patch_16">
    <path d="M 85.317017 188.638125 
L 87.298558 188.638125 
L 87.298558 187.883875 
L 85.317017 187.883875 
z
" clip-path="url(#p704d20ec72)" style="fill: #4c72b0; fill-opacity: 0.5; stroke: #4c72b0; stroke-linejoin: miter"/>
   </g>
   <g id="patch_17">
    <path d="M 87.298558 188.638125 
L 89.28008 188.638125 
L 89.28008 187.798095 
L 87.298558 187.798095 
z
" clip-path="url(#p704d20ec72)" style="fill: #4c72b0; fill-opacity: 0.5; stroke: #4c72b0; stroke-linejoin: miter"/>
   </g>
   <g id="patch_18">
    <path d="M 89.28008 188.638125 
L 91.261622 188.638125 
L 91.261622 187.75726 
L 89.28008 187.75726 
z
" clip-path="url(#p704d20ec72)" style="fill: #4c72b0; fill-opacity: 0.5; stroke: #4c72b0; stroke-linejoin: miter"/>
   </g>
   <g id="patch_19">
    <path d="M 91.261622 188.638125 
L 93.243144 188.638125 
L 93.243144 187.596597 
L 91.261622 187.596597 
z
" clip-path="url(#p704d20ec72)" style="fill: #4c72b0; fill-opacity: 0.5; stroke: #4c72b0; stroke-linejoin: miter"/>
   </g>
   <g id="patch_20">
    <path d="M 93.243144 188.638125 
L 95.224685 188.638125 
L 95.224685 187.460461 
L 93.243144 187.460461 
z
" clip-path="url(#p704d20ec72)" style="fill: #4c72b0; fill-opacity: 0.5; stroke: #4c72b0; stroke-linejoin: miter"/>
   </g>
   <g id="patch_21">
    <path d="M 95.224685 188.638125 
L 97.206227 188.638125 
L 97.206227 187.406003 
L 95.224685 187.406003 
z
" clip-path="url(#p704d20ec72)" style="fill: #4c72b0; fill-opacity: 0.5; stroke: #4c72b0; stroke-linejoin: miter"/>
   </g>
   <g id="patch_22">
    <path d="M 97.206227 188.638125 
L 99.187749 188.638125 
L 99.187749 187.226276 
L 97.206227 187.226276 
z
" clip-path="url(#p704d20ec72)" style="fill: #4c72b0; fill-opacity: 0.5; stroke: #4c72b0; stroke-linejoin: miter"/>
   </g>
   <g id="patch_23">
    <path d="M 99.187749 188.638125 
L 101.169291 188.638125 
L 101.169291 187.169108 
L 99.187749 187.169108 
z
" clip-path="url(#p704d20ec72)" style="fill: #4c72b0; fill-opacity: 0.5; stroke: #4c72b0; stroke-linejoin: miter"/>
   </g>
   <g id="patch_24">
    <path d="M 101.169291 188.638125 
L 103.150832 188.638125 
L 103.150832 187.016625 
L 101.169291 187.016625 
z
" clip-path="url(#p704d20ec72)" style="fill: #4c72b0; fill-opacity: 0.5; stroke: #4c72b0; stroke-linejoin: miter"/>
   </g>
   <g id="patch_25">
    <path d="M 103.150832 188.638125 
L 105.132354 188.638125 
L 105.132354 186.790604 
L 103.150832 186.790604 
z
" clip-path="url(#p704d20ec72)" style="fill: #4c72b0; fill-opacity: 0.5; stroke: #4c72b0; stroke-linejoin: miter"/>
   </g>
   <g id="patch_26">
    <path d="M 105.132354 188.638125 
L 107.113896 188.638125 
L 107.113896 186.636777 
L 105.132354 186.636777 
z
" clip-path="url(#p704d20ec72)" style="fill: #4c72b0; fill-opacity: 0.5; stroke: #4c72b0; stroke-linejoin: miter"/>
   </g>
   <g id="patch_27">
    <path d="M 107.113896 188.638125 
L 109.095418 188.638125 
L 109.095418 186.477464 
L 107.113896 186.477464 
z
" clip-path="url(#p704d20ec72)" style="fill: #4c72b0; fill-opacity: 0.5; stroke: #4c72b0; stroke-linejoin: miter"/>
   </g>
   <g id="patch_28">
    <path d="M 109.095418 188.638125 
L 111.076959 188.638125 
L 111.076959 186.12759 
L 109.095418 186.12759 
z
" clip-path="url(#p704d20ec72)" style="fill: #4c72b0; fill-opacity: 0.5; stroke: #4c72b0; stroke-linejoin: miter"/>
   </g>
   <g id="patch_29">
    <path d="M 111.076959 188.638125 
L 113.058501 188.638125 
L 113.058501 185.949239 
L 111.076959 185.949239 
z
" clip-path="url(#p704d20ec72)" style="fill: #4c72b0; fill-opacity: 0.5; stroke: #4c72b0; stroke-linejoin: miter"/>
   </g>
   <g id="patch_30">
    <path d="M 113.058501 188.638125 
L 115.040023 188.638125 
L 115.040023 185.770859 
L 113.058501 185.770859 
z
" clip-path="url(#p704d20ec72)" style="fill: #4c72b0; fill-opacity: 0.5; stroke: #4c72b0; stroke-linejoin: miter"/>
   </g>
   <g id="patch_31">
    <path d="M 115.040023 188.638125 
L 117.021565 188.638125 
L 117.021565 185.441414 
L 115.040023 185.441414 
z
" clip-path="url(#p704d20ec72)" style="fill: #4c72b0; fill-opacity: 0.5; stroke: #4c72b0; stroke-linejoin: miter"/>
   </g>
   <g id="patch_32">
    <path d="M 117.021565 188.638125 
L 119.003106 188.638125 
L 119.003106 184.846455 
L 117.021565 184.846455 
z
" clip-path="url(#p704d20ec72)" style="fill: #4c72b0; fill-opacity: 0.5; stroke: #4c72b0; stroke-linejoin: miter"/>
   </g>
   <g id="patch_33">
    <path d="M 119.003106 188.638125 
L 120.984628 188.638125 
L 120.984628 184.559146 
L 119.003106 184.559146 
z
" clip-path="url(#p704d20ec72)" style="fill: #4c72b0; fill-opacity: 0.5; stroke: #4c72b0; stroke-linejoin: miter"/>
   </g>
   <g id="patch_34">
    <path d="M 120.984628 188.638125 
L 122.96617 188.638125 
L 122.96617 184.474777 
L 120.984628 184.474777 
z
" clip-path="url(#p704d20ec72)" style="fill: #4c72b0; fill-opacity: 0.5; stroke: #4c72b0; stroke-linejoin: miter"/>
   </g>
   <g id="patch_35">
    <path d="M 122.96617 188.638125 
L 124.947692 188.638125 
L 124.947692 183.810335 
L 122.96617 183.810335 
z
" clip-path="url(#p704d20ec72)" style="fill: #4c72b0; fill-opacity: 0.5; stroke: #4c72b0; stroke-linejoin: miter"/>
   </g>
   <g id="patch_36">
    <path d="M 124.947692 188.638125 
L 126.929233 188.638125 
L 126.929233 183.189557 
L 124.947692 183.189557 
z
" clip-path="url(#p704d20ec72)" style="fill: #4c72b0; fill-opacity: 0.5; stroke: #4c72b0; stroke-linejoin: miter"/>
   </g>
   <g id="patch_37">
    <path d="M 126.929233 188.638125 
L 128.910775 188.638125 
L 128.910775 182.728022 
L 126.929233 182.728022 
z
" clip-path="url(#p704d20ec72)" style="fill: #4c72b0; fill-opacity: 0.5; stroke: #4c72b0; stroke-linejoin: miter"/>
   </g>
   <g id="patch_38">
    <path d="M 128.910775 188.638125 
L 130.892297 188.638125 
L 130.892297 182.269146 
L 128.910775 182.269146 
z
" clip-path="url(#p704d20ec72)" style="fill: #4c72b0; fill-opacity: 0.5; stroke: #4c72b0; stroke-linejoin: miter"/>
   </g>
   <g id="patch_39">
    <path d="M 130.892297 188.638125 
L 132.873838 188.638125 
L 132.873838 181.615708 
L 130.892297 181.615708 
z
" clip-path="url(#p704d20ec72)" style="fill: #4c72b0; fill-opacity: 0.5; stroke: #4c72b0; stroke-linejoin: miter"/>
   </g>
   <g id="patch_40">
    <path d="M 132.873838 188.638125 
L 134.85536 188.638125 
L 134.85536 181.034288 
L 132.873838 181.034288 
z
" clip-path="url(#p704d20ec72)" style="fill: #4c72b0; fill-opacity: 0.5; stroke: #4c72b0; stroke-linejoin: miter"/>
   </g>
   <g id="patch_41">
    <path d="M 134.85536 188.638125 
L 136.836902 188.638125 
L 136.836902 180.143968 
L 134.85536 180.143968 
z
" clip-path="url(#p704d20ec72)" style="fill: #4c72b0; fill-opacity: 0.5; stroke: #4c72b0; stroke-linejoin: miter"/>
   </g>
   <g id="patch_42">
    <path d="M 136.836902 188.638125 
L 138.818444 188.638125 
L 138.818444 179.412864 
L 136.836902 179.412864 
z
" clip-path="url(#p704d20ec72)" style="fill: #4c72b0; fill-opacity: 0.5; stroke: #4c72b0; stroke-linejoin: miter"/>
   </g>
   <g id="patch_43">
    <path d="M 138.818444 188.638125 
L 140.799966 188.638125 
L 140.799966 178.409364 
L 138.818444 178.409364 
z
" clip-path="url(#p704d20ec72)" style="fill: #4c72b0; fill-opacity: 0.5; stroke: #4c72b0; stroke-linejoin: miter"/>
   </g>
   <g id="patch_44">
    <path d="M 140.799966 188.638125 
L 142.781507 188.638125 
L 142.781507 177.367949 
L 140.799966 177.367949 
z
" clip-path="url(#p704d20ec72)" style="fill: #4c72b0; fill-opacity: 0.5; stroke: #4c72b0; stroke-linejoin: miter"/>
   </g>
   <g id="patch_45">
    <path d="M 142.781507 188.638125 
L 144.763049 188.638125 
L 144.763049 176.310094 
L 142.781507 176.310094 
z
" clip-path="url(#p704d20ec72)" style="fill: #4c72b0; fill-opacity: 0.5; stroke: #4c72b0; stroke-linejoin: miter"/>
   </g>
   <g id="patch_46">
    <path d="M 144.763049 188.638125 
L 146.744571 188.638125 
L 146.744571 175.041075 
L 144.763049 175.041075 
z
" clip-path="url(#p704d20ec72)" style="fill: #4c72b0; fill-opacity: 0.5; stroke: #4c72b0; stroke-linejoin: miter"/>
   </g>
   <g id="patch_47">
    <path d="M 146.744571 188.638125 
L 148.726112 188.638125 
L 148.726112 173.649798 
L 146.744571 173.649798 
z
" clip-path="url(#p704d20ec72)" style="fill: #4c72b0; fill-opacity: 0.5; stroke: #4c72b0; stroke-linejoin: miter"/>
   </g>
   <g id="patch_48">
    <path d="M 148.726112 188.638125 
L 150.707644 188.638125 
L 150.707644 172.168446 
L 148.726112 172.168446 
z
" clip-path="url(#p704d20ec72)" style="fill: #4c72b0; fill-opacity: 0.5; stroke: #4c72b0; stroke-linejoin: miter"/>
   </g>
   <g id="patch_49">
    <path d="M 150.707644 188.638125 
L 152.689176 188.638125 
L 152.689176 170.529238 
L 150.707644 170.529238 
z
" clip-path="url(#p704d20ec72)" style="fill: #4c72b0; fill-opacity: 0.5; stroke: #4c72b0; stroke-linejoin: miter"/>
   </g>
   <g id="patch_50">
    <path d="M 152.689176 188.638125 
L 154.670708 188.638125 
L 154.670708 168.497928 
L 152.689176 168.497928 
z
" clip-path="url(#p704d20ec72)" style="fill: #4c72b0; fill-opacity: 0.5; stroke: #4c72b0; stroke-linejoin: miter"/>
   </g>
   <g id="patch_51">
    <path d="M 154.670708 188.638125 
L 156.65224 188.638125 
L 156.65224 166.585066 
L 154.670708 166.585066 
z
" clip-path="url(#p704d20ec72)" style="fill: #4c72b0; fill-opacity: 0.5; stroke: #4c72b0; stroke-linejoin: miter"/>
   </g>
   <g id="patch_52">
    <path d="M 156.65224 188.638125 
L 158.633781 188.638125 
L 158.633781 164.759457 
L 156.65224 164.759457 
z
" clip-path="url(#p704d20ec72)" style="fill: #4c72b0; fill-opacity: 0.5; stroke: #4c72b0; stroke-linejoin: miter"/>
   </g>
   <g id="patch_53">
    <path d="M 158.633781 188.638125 
L 160.615313 188.638125 
L 160.615313 162.340008 
L 158.633781 162.340008 
z
" clip-path="url(#p704d20ec72)" style="fill: #4c72b0; fill-opacity: 0.5; stroke: #4c72b0; stroke-linejoin: miter"/>
   </g>
   <g id="patch_54">
    <path d="M 160.615313 188.638125 
L 162.596845 188.638125 
L 162.596845 159.819931 
L 160.615313 159.819931 
z
" clip-path="url(#p704d20ec72)" style="fill: #4c72b0; fill-opacity: 0.5; stroke: #4c72b0; stroke-linejoin: miter"/>
   </g>
   <g id="patch_55">
    <path d="M 162.596845 188.638125 
L 164.578376 188.638125 
L 164.578376 157.08338 
L 162.596845 157.08338 
z
" clip-path="url(#p704d20ec72)" style="fill: #4c72b0; fill-opacity: 0.5; stroke: #4c72b0; stroke-linejoin: miter"/>
   </g>
   <g id="patch_56">
    <path d="M 164.578376 188.638125 
L 166.559918 188.638125 
L 166.559918 153.871851 
L 164.578376 153.871851 
z
" clip-path="url(#p704d20ec72)" style="fill: #4c72b0; fill-opacity: 0.5; stroke: #4c72b0; stroke-linejoin: miter"/>
   </g>
   <g id="patch_57">
    <path d="M 166.559918 188.638125 
L 168.54145 188.638125 
L 168.54145 150.079988 
L 166.559918 150.079988 
z
" clip-path="url(#p704d20ec72)" style="fill: #4c72b0; fill-opacity: 0.5; stroke: #4c72b0; stroke-linejoin: miter"/>
   </g>
   <g id="patch_58">
    <path d="M 168.54145 188.638125 
L 170.522982 188.638125 
L 170.522982 146.338674 
L 168.54145 146.338674 
z
" clip-path="url(#p704d20ec72)" style="fill: #4c72b0; fill-opacity: 0.5; stroke: #4c72b0; stroke-linejoin: miter"/>
   </g>
   <g id="patch_59">
    <path d="M 170.522982 188.638125 
L 172.504513 188.638125 
L 172.504513 142.18892 
L 170.522982 142.18892 
z
" clip-path="url(#p704d20ec72)" style="fill: #4c72b0; fill-opacity: 0.5; stroke: #4c72b0; stroke-linejoin: miter"/>
   </g>
   <g id="patch_60">
    <path d="M 172.504513 188.638125 
L 174.486055 188.638125 
L 174.486055 137.466243 
L 172.504513 137.466243 
z
" clip-path="url(#p704d20ec72)" style="fill: #4c72b0; fill-opacity: 0.5; stroke: #4c72b0; stroke-linejoin: miter"/>
   </g>
   <g id="patch_61">
    <path d="M 174.486055 188.638125 
L 176.467587 188.638125 
L 176.467587 132.172599 
L 174.486055 132.172599 
z
" clip-path="url(#p704d20ec72)" style="fill: #4c72b0; fill-opacity: 0.5; stroke: #4c72b0; stroke-linejoin: miter"/>
   </g>
   <g id="patch_62">
    <path d="M 176.467587 188.638125 
L 178.449119 188.638125 
L 178.449119 126.849259 
L 176.467587 126.849259 
z
" clip-path="url(#p704d20ec72)" style="fill: #4c72b0; fill-opacity: 0.5; stroke: #4c72b0; stroke-linejoin: miter"/>
   </g>
   <g id="patch_63">
    <path d="M 178.449119 188.638125 
L 180.43065 188.638125 
L 180.43065 120.601482 
L 178.449119 120.601482 
z
" clip-path="url(#p704d20ec72)" style="fill: #4c72b0; fill-opacity: 0.5; stroke: #4c72b0; stroke-linejoin: miter"/>
   </g>
   <g id="patch_64">
    <path d="M 180.43065 188.638125 
L 182.412192 188.638125 
L 182.412192 113.36838 
L 180.43065 113.36838 
z
" clip-path="url(#p704d20ec72)" style="fill: #4c72b0; fill-opacity: 0.5; stroke: #4c72b0; stroke-linejoin: miter"/>
   </g>
   <g id="patch_65">
    <path d="M 182.412192 188.638125 
L 184.393724 188.638125 
L 184.393724 106.261139 
L 182.412192 106.261139 
z
" clip-path="url(#p704d20ec72)" style="fill: #4c72b0; fill-opacity: 0.5; stroke: #4c72b0; stroke-linejoin: miter"/>
   </g>
   <g id="patch_66">
    <path d="M 184.393724 188.638125 
L 186.375256 188.638125 
L 186.375256 97.888111 
L 184.393724 97.888111 
z
" clip-path="url(#p704d20ec72)" style="fill: #4c72b0; fill-opacity: 0.5; stroke: #4c72b0; stroke-linejoin: miter"/>
   </g>
   <g id="patch_67">
    <path d="M 186.375256 188.638125 
L 188.356787 188.638125 
L 188.356787 88.794866 
L 186.375256 88.794866 
z
" clip-path="url(#p704d20ec72)" style="fill: #4c72b0; fill-opacity: 0.5; stroke: #4c72b0; stroke-linejoin: miter"/>
   </g>
   <g id="patch_68">
    <path d="M 188.356787 188.638125 
L 190.338319 188.638125 
L 190.338319 79.230553 
L 188.356787 79.230553 
z
" clip-path="url(#p704d20ec72)" style="fill: #4c72b0; fill-opacity: 0.5; stroke: #4c72b0; stroke-linejoin: miter"/>
   </g>
   <g id="patch_69">
    <path d="M 190.338319 188.638125 
L 192.319861 188.638125 
L 192.319861 68.551799 
L 190.338319 68.551799 
z
" clip-path="url(#p704d20ec72)" style="fill: #4c72b0; fill-opacity: 0.5; stroke: #4c72b0; stroke-linejoin: miter"/>
   </g>
   <g id="patch_70">
    <path d="M 192.319861 188.638125 
L 194.301393 188.638125 
L 194.301393 56.997779 
L 192.319861 56.997779 
z
" clip-path="url(#p704d20ec72)" style="fill: #4c72b0; fill-opacity: 0.5; stroke: #4c72b0; stroke-linejoin: miter"/>
   </g>
   <g id="patch_71">
    <path d="M 194.301393 188.638125 
L 196.282924 188.638125 
L 196.282924 43.127143 
L 194.301393 43.127143 
z
" clip-path="url(#p704d20ec72)" style="fill: #4c72b0; fill-opacity: 0.5; stroke: #4c72b0; stroke-linejoin: miter"/>
   </g>
   <g id="patch_72">
    <path d="M 196.282924 188.638125 
L 198.264456 188.638125 
L 198.264456 30.238125 
L 196.282924 30.238125 
z
" clip-path="url(#p704d20ec72)" style="fill: #4c72b0; fill-opacity: 0.5; stroke: #4c72b0; stroke-linejoin: miter"/>
   </g>
   <g id="patch_73">
    <path d="M 198.264456 188.638125 
L 200.245998 188.638125 
L 200.245998 181.83218 
L 198.264456 181.83218 
z
" clip-path="url(#p704d20ec72)" style="fill: #4c72b0; fill-opacity: 0.5; stroke: #4c72b0; stroke-linejoin: miter"/>
   </g>
   <g id="patch_74">
    <path d="M 200.245998 188.638125 
L 202.22753 188.638125 
L 202.22753 188.538738 
L 200.245998 188.538738 
z
" clip-path="url(#p704d20ec72)" style="fill: #4c72b0; fill-opacity: 0.5; stroke: #4c72b0; stroke-linejoin: miter"/>
   </g>
   <g id="patch_75">
    <path d="M 202.22753 188.638125 
L 204.209061 188.638125 
L 204.209061 188.545545 
L 202.22753 188.545545 
z
" clip-path="url(#p704d20ec72)" style="fill: #4c72b0; fill-opacity: 0.5; stroke: #4c72b0; stroke-linejoin: miter"/>
   </g>
   <g id="patch_76">
    <path d="M 204.209061 188.638125 
L 206.190593 188.638125 
L 206.190593 188.548268 
L 204.209061 188.548268 
z
" clip-path="url(#p704d20ec72)" style="fill: #4c72b0; fill-opacity: 0.5; stroke: #4c72b0; stroke-linejoin: miter"/>
   </g>
   <g id="patch_77">
    <path d="M 206.190593 188.638125 
L 208.172135 188.638125 
L 208.172135 188.516955 
L 206.190593 188.516955 
z
" clip-path="url(#p704d20ec72)" style="fill: #4c72b0; fill-opacity: 0.5; stroke: #4c72b0; stroke-linejoin: miter"/>
   </g>
   <g id="patch_78">
    <path d="M 208.172135 188.638125 
L 210.153667 188.638125 
L 210.153667 188.525123 
L 208.172135 188.525123 
z
" clip-path="url(#p704d20ec72)" style="fill: #4c72b0; fill-opacity: 0.5; stroke: #4c72b0; stroke-linejoin: miter"/>
   </g>
   <g id="patch_79">
    <path d="M 210.153667 188.638125 
L 212.135198 188.638125 
L 212.135198 188.516954 
L 210.153667 188.516954 
z
" clip-path="url(#p704d20ec72)" style="fill: #4c72b0; fill-opacity: 0.5; stroke: #4c72b0; stroke-linejoin: miter"/>
   </g>
   <g id="patch_80">
    <path d="M 212.135198 188.638125 
L 214.11673 188.638125 
L 214.11673 188.335879 
L 212.135198 188.335879 
z
" clip-path="url(#p704d20ec72)" style="fill: #4c72b0; fill-opacity: 0.5; stroke: #4c72b0; stroke-linejoin: miter"/>
   </g>
   <g id="patch_81">
    <path d="M 214.11673 188.638125 
L 216.098272 188.638125 
L 216.098272 188.30729 
L 214.11673 188.30729 
z
" clip-path="url(#p704d20ec72)" style="fill: #4c72b0; fill-opacity: 0.5; stroke: #4c72b0; stroke-linejoin: miter"/>
   </g>
   <g id="patch_82">
    <path d="M 216.098272 188.638125 
L 218.079804 188.638125 
L 218.079804 188.251468 
L 216.098272 188.251468 
z
" clip-path="url(#p704d20ec72)" style="fill: #4c72b0; fill-opacity: 0.5; stroke: #4c72b0; stroke-linejoin: miter"/>
   </g>
   <g id="patch_83">
    <path d="M 218.079804 188.638125 
L 220.061335 188.638125 
L 220.061335 188.198371 
L 218.079804 188.198371 
z
" clip-path="url(#p704d20ec72)" style="fill: #4c72b0; fill-opacity: 0.5; stroke: #4c72b0; stroke-linejoin: miter"/>
   </g>
   <g id="patch_84">
    <path d="M 220.061335 188.638125 
L 222.042867 188.638125 
L 222.042867 188.201094 
L 220.061335 188.201094 
z
" clip-path="url(#p704d20ec72)" style="fill: #4c72b0; fill-opacity: 0.5; stroke: #4c72b0; stroke-linejoin: miter"/>
   </g>
   <g id="patch_85">
    <path d="M 222.042867 188.638125 
L 224.024399 188.638125 
L 224.024399 188.17931 
L 222.042867 188.17931 
z
" clip-path="url(#p704d20ec72)" style="fill: #4c72b0; fill-opacity: 0.5; stroke: #4c72b0; stroke-linejoin: miter"/>
   </g>
   <g id="patch_86">
    <path d="M 224.024399 188.638125 
L 226.005941 188.638125 
L 226.005941 188.194289 
L 224.024399 188.194289 
z
" clip-path="url(#p704d20ec72)" style="fill: #4c72b0; fill-opacity: 0.5; stroke: #4c72b0; stroke-linejoin: miter"/>
   </g>
   <g id="patch_87">
    <path d="M 226.005941 188.638125 
L 227.987472 188.638125 
L 227.987472 188.093538 
L 226.005941 188.093538 
z
" clip-path="url(#p704d20ec72)" style="fill: #4c72b0; fill-opacity: 0.5; stroke: #4c72b0; stroke-linejoin: miter"/>
   </g>
   <g id="patch_88">
    <path d="M 227.987472 188.638125 
L 229.969004 188.638125 
L 229.969004 187.950584 
L 227.987472 187.950584 
z
" clip-path="url(#p704d20ec72)" style="fill: #4c72b0; fill-opacity: 0.5; stroke: #4c72b0; stroke-linejoin: miter"/>
   </g>
   <g id="patch_89">
    <path d="M 229.969004 188.638125 
L 231.950541 188.638125 
L 231.950541 187.883874 
L 229.969004 187.883874 
z
" clip-path="url(#p704d20ec72)" style="fill: #4c72b0; fill-opacity: 0.5; stroke: #4c72b0; stroke-linejoin: miter"/>
   </g>
   <g id="patch_90">
    <path d="M 231.950541 188.638125 
L 233.932073 188.638125 
L 233.932073 187.964198 
L 231.950541 187.964198 
z
" clip-path="url(#p704d20ec72)" style="fill: #4c72b0; fill-opacity: 0.5; stroke: #4c72b0; stroke-linejoin: miter"/>
   </g>
   <g id="patch_91">
    <path d="M 233.932073 188.638125 
L 235.913609 188.638125 
L 235.913609 187.859367 
L 233.932073 187.859367 
z
" clip-path="url(#p704d20ec72)" style="fill: #4c72b0; fill-opacity: 0.5; stroke: #4c72b0; stroke-linejoin: miter"/>
   </g>
   <g id="patch_92">
    <path d="M 235.913609 188.638125 
L 237.895141 188.638125 
L 237.895141 187.504022 
L 235.913609 187.504022 
z
" clip-path="url(#p704d20ec72)" style="fill: #4c72b0; fill-opacity: 0.5; stroke: #4c72b0; stroke-linejoin: miter"/>
   </g>
   <g id="patch_93">
    <path d="M 237.895141 188.638125 
L 239.876678 188.638125 
L 239.876678 187.370601 
L 237.895141 187.370601 
z
" clip-path="url(#p704d20ec72)" style="fill: #4c72b0; fill-opacity: 0.5; stroke: #4c72b0; stroke-linejoin: miter"/>
   </g>
   <g id="patch_94">
    <path d="M 239.876678 188.638125 
L 241.85821 188.638125 
L 241.85821 187.501299 
L 239.876678 187.501299 
z
" clip-path="url(#p704d20ec72)" style="fill: #4c72b0; fill-opacity: 0.5; stroke: #4c72b0; stroke-linejoin: miter"/>
   </g>
   <g id="patch_95">
    <path d="M 241.85821 188.638125 
L 243.839746 188.638125 
L 243.839746 187.502663 
L 241.85821 187.502663 
z
" clip-path="url(#p704d20ec72)" style="fill: #4c72b0; fill-opacity: 0.5; stroke: #4c72b0; stroke-linejoin: miter"/>
   </g>
   <g id="patch_96">
    <path d="M 243.839746 188.638125 
L 245.821278 188.638125 
L 245.821278 187.09422 
L 243.839746 187.09422 
z
" clip-path="url(#p704d20ec72)" style="fill: #4c72b0; fill-opacity: 0.5; stroke: #4c72b0; stroke-linejoin: miter"/>
   </g>
   <g id="patch_97">
    <path d="M 245.821278 188.638125 
L 247.802815 188.638125 
L 247.802815 186.915872 
L 245.821278 186.915872 
z
" clip-path="url(#p704d20ec72)" style="fill: #4c72b0; fill-opacity: 0.5; stroke: #4c72b0; stroke-linejoin: miter"/>
   </g>
   <g id="patch_98">
    <path d="M 247.802815 188.638125 
L 249.784347 188.638125 
L 249.784347 186.812396 
L 247.802815 186.812396 
z
" clip-path="url(#p704d20ec72)" style="fill: #4c72b0; fill-opacity: 0.5; stroke: #4c72b0; stroke-linejoin: miter"/>
   </g>
   <g id="patch_99">
    <path d="M 249.784347 188.638125 
L 251.765878 188.638125 
L 251.765878 186.934928 
L 249.784347 186.934928 
z
" clip-path="url(#p704d20ec72)" style="fill: #4c72b0; fill-opacity: 0.5; stroke: #4c72b0; stroke-linejoin: miter"/>
   </g>
   <g id="patch_100">
    <path d="M 251.765878 188.638125 
L 253.747415 188.638125 
L 253.747415 186.798786 
L 251.765878 186.798786 
z
" clip-path="url(#p704d20ec72)" style="fill: #4c72b0; fill-opacity: 0.5; stroke: #4c72b0; stroke-linejoin: miter"/>
   </g>
   <g id="patch_101">
    <path d="M 253.747415 188.638125 
L 255.728947 188.638125 
L 255.728947 186.693949 
L 253.747415 186.693949 
z
" clip-path="url(#p704d20ec72)" style="fill: #4c72b0; fill-opacity: 0.5; stroke: #4c72b0; stroke-linejoin: miter"/>
   </g>
   <g id="patch_102">
    <path d="M 255.728947 188.638125 
L 257.710484 188.638125 
L 257.710484 186.805594 
L 255.728947 186.805594 
z
" clip-path="url(#p704d20ec72)" style="fill: #4c72b0; fill-opacity: 0.5; stroke: #4c72b0; stroke-linejoin: miter"/>
   </g>
   <g id="patch_103">
    <path d="M 257.710484 188.638125 
L 259.692015 188.638125 
L 259.692015 186.756576 
L 257.710484 186.756576 
z
" clip-path="url(#p704d20ec72)" style="fill: #4c72b0; fill-opacity: 0.5; stroke: #4c72b0; stroke-linejoin: miter"/>
   </g>
   <g id="patch_104">
    <path d="M 259.692015 188.638125 
L 261.673552 188.638125 
L 261.673552 186.368563 
L 259.692015 186.368563 
z
" clip-path="url(#p704d20ec72)" style="fill: #4c72b0; fill-opacity: 0.5; stroke: #4c72b0; stroke-linejoin: miter"/>
   </g>
   <g id="patch_105">
    <path d="M 261.673552 188.638125 
L 263.655084 188.638125 
L 263.655084 185.985985 
L 261.673552 185.985985 
z
" clip-path="url(#p704d20ec72)" style="fill: #4c72b0; fill-opacity: 0.5; stroke: #4c72b0; stroke-linejoin: miter"/>
   </g>
   <g id="patch_106">
    <path d="M 263.655084 188.638125 
L 265.636621 188.638125 
L 265.636621 185.739567 
L 263.655084 185.739567 
z
" clip-path="url(#p704d20ec72)" style="fill: #4c72b0; fill-opacity: 0.5; stroke: #4c72b0; stroke-linejoin: miter"/>
   </g>
   <g id="patch_107">
    <path d="M 265.636621 188.638125 
L 267.618152 188.638125 
L 267.618152 186.356305 
L 265.636621 186.356305 
z
" clip-path="url(#p704d20ec72)" style="fill: #4c72b0; fill-opacity: 0.5; stroke: #4c72b0; stroke-linejoin: miter"/>
   </g>
   <g id="patch_108">
    <path d="M 267.618152 188.638125 
L 269.599689 188.638125 
L 269.599689 186.165705 
L 267.618152 186.165705 
z
" clip-path="url(#p704d20ec72)" style="fill: #4c72b0; fill-opacity: 0.5; stroke: #4c72b0; stroke-linejoin: miter"/>
   </g>
   <g id="patch_109">
    <path d="M 269.599689 188.638125 
L 271.581221 188.638125 
L 271.581221 185.295721 
L 269.599689 185.295721 
z
" clip-path="url(#p704d20ec72)" style="fill: #4c72b0; fill-opacity: 0.5; stroke: #4c72b0; stroke-linejoin: miter"/>
   </g>
   <g id="patch_110">
    <path d="M 271.581221 188.638125 
L 273.562755 188.638125 
L 273.562755 185.201784 
L 271.581221 185.201784 
z
" clip-path="url(#p704d20ec72)" style="fill: #4c72b0; fill-opacity: 0.5; stroke: #4c72b0; stroke-linejoin: miter"/>
   </g>
   <g id="patch_111">
    <path d="M 273.562755 188.638125 
L 275.544289 188.638125 
L 275.544289 186.116689 
L 273.562755 186.116689 
z
" clip-path="url(#p704d20ec72)" style="fill: #4c72b0; fill-opacity: 0.5; stroke: #4c72b0; stroke-linejoin: miter"/>
   </g>
   <g id="patch_112">
    <path d="M 275.544289 188.638125 
L 277.525824 188.638125 
L 277.525824 185.22629 
L 275.544289 185.22629 
z
" clip-path="url(#p704d20ec72)" style="fill: #4c72b0; fill-opacity: 0.5; stroke: #4c72b0; stroke-linejoin: miter"/>
   </g>
   <g id="patch_113">
    <path d="M 277.525824 188.638125 
L 279.507358 188.638125 
L 279.507358 185.361076 
L 277.525824 185.361076 
z
" clip-path="url(#p704d20ec72)" style="fill: #4c72b0; fill-opacity: 0.5; stroke: #4c72b0; stroke-linejoin: miter"/>
   </g>
   <g id="patch_114">
    <path d="M 279.507358 188.638125 
L 281.488892 188.638125 
L 281.488892 185.060191 
L 279.507358 185.060191 
z
" clip-path="url(#p704d20ec72)" style="fill: #4c72b0; fill-opacity: 0.5; stroke: #4c72b0; stroke-linejoin: miter"/>
   </g>
   <g id="patch_115">
    <path d="M 281.488892 188.638125 
L 283.470426 188.638125 
L 283.470426 185.267134 
L 281.488892 185.267134 
z
" clip-path="url(#p704d20ec72)" style="fill: #4c72b0; fill-opacity: 0.5; stroke: #4c72b0; stroke-linejoin: miter"/>
   </g>
   <g id="patch_116">
    <path d="M 283.470426 188.638125 
L 285.451961 188.638125 
L 285.451961 184.877755 
L 283.470426 184.877755 
z
" clip-path="url(#p704d20ec72)" style="fill: #4c72b0; fill-opacity: 0.5; stroke: #4c72b0; stroke-linejoin: miter"/>
   </g>
   <g id="patch_117">
    <path d="M 285.451961 188.638125 
L 287.433495 188.638125 
L 287.433495 185.324316 
L 285.451961 185.324316 
z
" clip-path="url(#p704d20ec72)" style="fill: #4c72b0; fill-opacity: 0.5; stroke: #4c72b0; stroke-linejoin: miter"/>
   </g>
   <g id="patch_118">
    <path d="M 287.433495 188.638125 
L 289.415029 188.638125 
L 289.415029 184.636775 
L 287.433495 184.636775 
z
" clip-path="url(#p704d20ec72)" style="fill: #4c72b0; fill-opacity: 0.5; stroke: #4c72b0; stroke-linejoin: miter"/>
   </g>
   <g id="patch_119">
    <path d="M 289.415029 188.638125 
L 291.396563 188.638125 
L 291.396563 183.31343 
L 289.415029 183.31343 
z
" clip-path="url(#p704d20ec72)" style="fill: #4c72b0; fill-opacity: 0.5; stroke: #4c72b0; stroke-linejoin: miter"/>
   </g>
   <g id="patch_120">
    <path d="M 291.396563 188.638125 
L 293.378096 188.638125 
L 293.378096 184.804233 
L 291.396563 184.804233 
z
" clip-path="url(#p704d20ec72)" style="fill: #4c72b0; fill-opacity: 0.5; stroke: #4c72b0; stroke-linejoin: miter"/>
   </g>
   <g id="patch_121">
    <path d="M 293.378096 188.638125 
L 295.359631 188.638125 
L 295.359631 184.463869 
L 293.378096 184.463869 
z
" clip-path="url(#p704d20ec72)" style="fill: #4c72b0; fill-opacity: 0.5; stroke: #4c72b0; stroke-linejoin: miter"/>
   </g>
   <g id="patch_122">
    <path d="M 295.359631 188.638125 
L 297.341165 188.638125 
L 297.341165 184.075851 
L 295.359631 184.075851 
z
" clip-path="url(#p704d20ec72)" style="fill: #4c72b0; fill-opacity: 0.5; stroke: #4c72b0; stroke-linejoin: miter"/>
   </g>
   <g id="patch_123">
    <path d="M 297.341165 188.638125 
L 299.322699 188.638125 
L 299.322699 183.578916 
L 297.341165 183.578916 
z
" clip-path="url(#p704d20ec72)" style="fill: #4c72b0; fill-opacity: 0.5; stroke: #4c72b0; stroke-linejoin: miter"/>
   </g>
   <g id="patch_124">
    <path d="M 299.322699 188.638125 
L 301.304233 188.638125 
L 301.304233 183.980549 
L 299.322699 183.980549 
z
" clip-path="url(#p704d20ec72)" style="fill: #4c72b0; fill-opacity: 0.5; stroke: #4c72b0; stroke-linejoin: miter"/>
   </g>
   <g id="patch_125">
    <path d="M 301.304233 188.638125 
L 303.285767 188.638125 
L 303.285767 184.043175 
L 301.304233 184.043175 
z
" clip-path="url(#p704d20ec72)" style="fill: #4c72b0; fill-opacity: 0.5; stroke: #4c72b0; stroke-linejoin: miter"/>
   </g>
   <g id="patch_126">
    <path d="M 303.285767 188.638125 
L 305.267301 188.638125 
L 305.267301 184.207914 
L 303.285767 184.207914 
z
" clip-path="url(#p704d20ec72)" style="fill: #4c72b0; fill-opacity: 0.5; stroke: #4c72b0; stroke-linejoin: miter"/>
   </g>
   <g id="patch_127">
    <path d="M 305.267301 188.638125 
L 307.248835 188.638125 
L 307.248835 183.941066 
L 305.267301 183.941066 
z
" clip-path="url(#p704d20ec72)" style="fill: #4c72b0; fill-opacity: 0.5; stroke: #4c72b0; stroke-linejoin: miter"/>
   </g>
   <g id="patch_128">
    <path d="M 307.248835 188.638125 
L 309.230369 188.638125 
L 309.230369 183.791304 
L 307.248835 183.791304 
z
" clip-path="url(#p704d20ec72)" style="fill: #4c72b0; fill-opacity: 0.5; stroke: #4c72b0; stroke-linejoin: miter"/>
   </g>
   <g id="patch_129">
    <path d="M 309.230369 188.638125 
L 311.211903 188.638125 
L 311.211903 183.589807 
L 309.230369 183.589807 
z
" clip-path="url(#p704d20ec72)" style="fill: #4c72b0; fill-opacity: 0.5; stroke: #4c72b0; stroke-linejoin: miter"/>
   </g>
   <g id="patch_130">
    <path d="M 311.211903 188.638125 
L 313.193437 188.638125 
L 313.193437 183.776328 
L 311.211903 183.776328 
z
" clip-path="url(#p704d20ec72)" style="fill: #4c72b0; fill-opacity: 0.5; stroke: #4c72b0; stroke-linejoin: miter"/>
   </g>
   <g id="patch_131">
    <path d="M 313.193438 188.638125 
L 315.174972 188.638125 
L 315.174972 180.879128 
L 313.193438 180.879128 
z
" clip-path="url(#p704d20ec72)" style="fill: #4c72b0; fill-opacity: 0.5; stroke: #4c72b0; stroke-linejoin: miter"/>
   </g>
   <g id="patch_132">
    <path d="M 315.174972 188.638125 
L 317.156506 188.638125 
L 317.156506 183.885246 
L 315.174972 183.885246 
z
" clip-path="url(#p704d20ec72)" style="fill: #4c72b0; fill-opacity: 0.5; stroke: #4c72b0; stroke-linejoin: miter"/>
   </g>
   <g id="patch_133">
    <path d="M 317.156506 188.638125 
L 319.13804 188.638125 
L 319.13804 183.467275 
L 317.156506 183.467275 
z
" clip-path="url(#p704d20ec72)" style="fill: #4c72b0; fill-opacity: 0.5; stroke: #4c72b0; stroke-linejoin: miter"/>
   </g>
   <g id="patch_134">
    <path d="M 319.13804 188.638125 
L 321.119574 188.638125 
L 321.119574 183.55441 
L 319.13804 183.55441 
z
" clip-path="url(#p704d20ec72)" style="fill: #4c72b0; fill-opacity: 0.5; stroke: #4c72b0; stroke-linejoin: miter"/>
   </g>
   <g id="patch_135">
    <path d="M 321.119574 188.638125 
L 323.101108 188.638125 
L 323.101108 183.946512 
L 321.119574 183.946512 
z
" clip-path="url(#p704d20ec72)" style="fill: #4c72b0; fill-opacity: 0.5; stroke: #4c72b0; stroke-linejoin: miter"/>
   </g>
   <g id="patch_136">
    <path d="M 323.101108 188.638125 
L 325.082642 188.638125 
L 325.082642 184.438 
L 323.101108 184.438 
z
" clip-path="url(#p704d20ec72)" style="fill: #4c72b0; fill-opacity: 0.5; stroke: #4c72b0; stroke-linejoin: miter"/>
   </g>
   <g id="patch_137">
    <path d="M 325.082642 188.638125 
L 327.064176 188.638125 
L 327.064176 184.433917 
L 325.082642 184.433917 
z
" clip-path="url(#p704d20ec72)" style="fill: #4c72b0; fill-opacity: 0.5; stroke: #4c72b0; stroke-linejoin: miter"/>
   </g>
   <g id="patch_138">
    <path d="M 327.064176 188.638125 
L 329.04571 188.638125 
L 329.04571 182.650396 
L 327.064176 182.650396 
z
" clip-path="url(#p704d20ec72)" style="fill: #4c72b0; fill-opacity: 0.5; stroke: #4c72b0; stroke-linejoin: miter"/>
   </g>
   <g id="patch_139">
    <path d="M 329.04571 188.638125 
L 331.027244 188.638125 
L 331.027244 184.285517 
L 329.04571 184.285517 
z
" clip-path="url(#p704d20ec72)" style="fill: #4c72b0; fill-opacity: 0.5; stroke: #4c72b0; stroke-linejoin: miter"/>
   </g>
   <g id="patch_140">
    <path d="M 331.027244 188.638125 
L 333.008779 188.638125 
L 333.008779 183.93562 
L 331.027244 183.93562 
z
" clip-path="url(#p704d20ec72)" style="fill: #4c72b0; fill-opacity: 0.5; stroke: #4c72b0; stroke-linejoin: miter"/>
   </g>
   <g id="patch_141">
    <path d="M 333.008779 188.638125 
L 334.990312 188.638125 
L 334.990312 185.307976 
L 333.008779 185.307976 
z
" clip-path="url(#p704d20ec72)" style="fill: #4c72b0; fill-opacity: 0.5; stroke: #4c72b0; stroke-linejoin: miter"/>
   </g>
   <g id="patch_142">
    <path d="M 334.990312 188.638125 
L 336.971846 188.638125 
L 336.971846 182.696686 
L 334.990312 182.696686 
z
" clip-path="url(#p704d20ec72)" style="fill: #4c72b0; fill-opacity: 0.5; stroke: #4c72b0; stroke-linejoin: miter"/>
   </g>
   <g id="patch_143">
    <path d="M 336.971846 188.638125 
L 338.95338 188.638125 
L 338.95338 184.292324 
L 336.971846 184.292324 
z
" clip-path="url(#p704d20ec72)" style="fill: #4c72b0; fill-opacity: 0.5; stroke: #4c72b0; stroke-linejoin: miter"/>
   </g>
   <g id="patch_144">
    <path d="M 338.95338 188.638125 
L 340.934914 188.638125 
L 340.934914 184.544196 
L 338.95338 184.544196 
z
" clip-path="url(#p704d20ec72)" style="fill: #4c72b0; fill-opacity: 0.5; stroke: #4c72b0; stroke-linejoin: miter"/>
   </g>
   <g id="patch_145">
    <path d="M 340.934914 188.638125 
L 342.916449 188.638125 
L 342.916449 185.150048 
L 340.934914 185.150048 
z
" clip-path="url(#p704d20ec72)" style="fill: #4c72b0; fill-opacity: 0.5; stroke: #4c72b0; stroke-linejoin: miter"/>
   </g>
   <g id="patch_146">
    <path d="M 342.916449 188.638125 
L 344.897983 188.638125 
L 344.897983 185.337931 
L 342.916449 185.337931 
z
" clip-path="url(#p704d20ec72)" style="fill: #4c72b0; fill-opacity: 0.5; stroke: #4c72b0; stroke-linejoin: miter"/>
   </g>
   <g id="patch_147">
    <path d="M 344.897983 188.638125 
L 346.879517 188.638125 
L 346.879517 184.89137 
L 344.897983 184.89137 
z
" clip-path="url(#p704d20ec72)" style="fill: #4c72b0; fill-opacity: 0.5; stroke: #4c72b0; stroke-linejoin: miter"/>
   </g>
   <g id="patch_148">
    <path d="M 346.879517 188.638125 
L 348.861051 188.638125 
L 348.861051 184.676258 
L 346.879517 184.676258 
z
" clip-path="url(#p704d20ec72)" style="fill: #4c72b0; fill-opacity: 0.5; stroke: #4c72b0; stroke-linejoin: miter"/>
   </g>
   <g id="patch_149">
    <path d="M 348.861051 188.638125 
L 350.842586 188.638125 
L 350.842586 185.321593 
L 348.861051 185.321593 
z
" clip-path="url(#p704d20ec72)" style="fill: #4c72b0; fill-opacity: 0.5; stroke: #4c72b0; stroke-linejoin: miter"/>
   </g>
   <g id="patch_150">
    <path d="M 350.842586 188.638125 
L 352.82412 188.638125 
L 352.82412 185.772238 
L 350.842586 185.772238 
z
" clip-path="url(#p704d20ec72)" style="fill: #4c72b0; fill-opacity: 0.5; stroke: #4c72b0; stroke-linejoin: miter"/>
   </g>
   <g id="patch_151">
    <path d="M 352.82412 188.638125 
L 354.805654 188.638125 
L 354.805654 185.419619 
L 352.82412 185.419619 
z
" clip-path="url(#p704d20ec72)" style="fill: #4c72b0; fill-opacity: 0.5; stroke: #4c72b0; stroke-linejoin: miter"/>
   </g>
   <g id="patch_152">
    <path d="M 354.805654 188.638125 
L 356.787186 188.638125 
L 356.787186 184.97986 
L 354.805654 184.97986 
z
" clip-path="url(#p704d20ec72)" style="fill: #4c72b0; fill-opacity: 0.5; stroke: #4c72b0; stroke-linejoin: miter"/>
   </g>
   <g id="patch_153">
    <path d="M 356.787186 188.638125 
L 358.768723 188.638125 
L 358.768723 186.028197 
L 356.787186 186.028197 
z
" clip-path="url(#p704d20ec72)" style="fill: #4c72b0; fill-opacity: 0.5; stroke: #4c72b0; stroke-linejoin: miter"/>
   </g>
   <g id="patch_154">
    <path d="M 358.768723 188.638125 
L 360.750254 188.638125 
L 360.750254 186.041805 
L 358.768723 186.041805 
z
" clip-path="url(#p704d20ec72)" style="fill: #4c72b0; fill-opacity: 0.5; stroke: #4c72b0; stroke-linejoin: miter"/>
   </g>
   <g id="patch_155">
    <path d="M 360.750254 188.638125 
L 362.731791 188.638125 
L 362.731791 185.614312 
L 360.750254 185.614312 
z
" clip-path="url(#p704d20ec72)" style="fill: #4c72b0; fill-opacity: 0.5; stroke: #4c72b0; stroke-linejoin: miter"/>
   </g>
   <g id="patch_156">
    <path d="M 362.731791 188.638125 
L 364.713323 188.638125 
L 364.713323 186.180675 
L 362.731791 186.180675 
z
" clip-path="url(#p704d20ec72)" style="fill: #4c72b0; fill-opacity: 0.5; stroke: #4c72b0; stroke-linejoin: miter"/>
   </g>
   <g id="patch_157">
    <path d="M 364.713323 188.638125 
L 366.69486 188.638125 
L 366.69486 186.000968 
L 364.713323 186.000968 
z
" clip-path="url(#p704d20ec72)" style="fill: #4c72b0; fill-opacity: 0.5; stroke: #4c72b0; stroke-linejoin: miter"/>
   </g>
   <g id="patch_158">
    <path d="M 366.69486 188.638125 
L 368.676391 188.638125 
L 368.676391 186.636767 
L 366.69486 186.636767 
z
" clip-path="url(#p704d20ec72)" style="fill: #4c72b0; fill-opacity: 0.5; stroke: #4c72b0; stroke-linejoin: miter"/>
   </g>
   <g id="patch_159">
    <path d="M 368.676391 188.638125 
L 370.657928 188.638125 
L 370.657928 186.627242 
L 368.676391 186.627242 
z
" clip-path="url(#p704d20ec72)" style="fill: #4c72b0; fill-opacity: 0.5; stroke: #4c72b0; stroke-linejoin: miter"/>
   </g>
   <g id="patch_160">
    <path d="M 370.657928 188.638125 
L 372.63946 188.638125 
L 372.63946 186.572778 
L 370.657928 186.572778 
z
" clip-path="url(#p704d20ec72)" style="fill: #4c72b0; fill-opacity: 0.5; stroke: #4c72b0; stroke-linejoin: miter"/>
   </g>
   <g id="patch_161">
    <path d="M 372.63946 188.638125 
L 374.620997 188.638125 
L 374.620997 186.691231 
L 372.63946 186.691231 
z
" clip-path="url(#p704d20ec72)" style="fill: #4c72b0; fill-opacity: 0.5; stroke: #4c72b0; stroke-linejoin: miter"/>
   </g>
   <g id="patch_162">
    <path d="M 374.620997 188.638125 
L 376.602528 188.638125 
L 376.602528 186.887277 
L 374.620997 186.887277 
z
" clip-path="url(#p704d20ec72)" style="fill: #4c72b0; fill-opacity: 0.5; stroke: #4c72b0; stroke-linejoin: miter"/>
   </g>
   <g id="patch_163">
    <path d="M 376.602528 188.638125 
L 378.58406 188.638125 
L 378.58406 186.981218 
L 376.602528 186.981218 
z
" clip-path="url(#p704d20ec72)" style="fill: #4c72b0; fill-opacity: 0.5; stroke: #4c72b0; stroke-linejoin: miter"/>
   </g>
   <g id="patch_164">
    <path d="M 378.58406 188.638125 
L 380.565597 188.638125 
L 380.565597 186.986668 
L 378.58406 186.986668 
z
" clip-path="url(#p704d20ec72)" style="fill: #4c72b0; fill-opacity: 0.5; stroke: #4c72b0; stroke-linejoin: miter"/>
   </g>
   <g id="patch_165">
    <path d="M 380.565597 188.638125 
L 382.547129 188.638125 
L 382.547129 187.517637 
L 380.565597 187.517637 
z
" clip-path="url(#p704d20ec72)" style="fill: #4c72b0; fill-opacity: 0.5; stroke: #4c72b0; stroke-linejoin: miter"/>
   </g>
   <g id="patch_166">
    <path d="M 382.547129 188.638125 
L 384.528665 188.638125 
L 384.528665 187.254877 
L 382.547129 187.254877 
z
" clip-path="url(#p704d20ec72)" style="fill: #4c72b0; fill-opacity: 0.5; stroke: #4c72b0; stroke-linejoin: miter"/>
   </g>
   <g id="patch_167">
    <path d="M 384.528665 188.638125 
L 386.510197 188.638125 
L 386.510197 187.38149 
L 384.528665 187.38149 
z
" clip-path="url(#p704d20ec72)" style="fill: #4c72b0; fill-opacity: 0.5; stroke: #4c72b0; stroke-linejoin: miter"/>
   </g>
   <g id="patch_168">
    <path d="M 386.510197 188.638125 
L 388.491734 188.638125 
L 388.491734 187.521724 
L 386.510197 187.521724 
z
" clip-path="url(#p704d20ec72)" style="fill: #4c72b0; fill-opacity: 0.5; stroke: #4c72b0; stroke-linejoin: miter"/>
   </g>
   <g id="patch_169">
    <path d="M 388.491734 188.638125 
L 390.473266 188.638125 
L 390.473266 187.517637 
L 388.491734 187.517637 
z
" clip-path="url(#p704d20ec72)" style="fill: #4c72b0; fill-opacity: 0.5; stroke: #4c72b0; stroke-linejoin: miter"/>
   </g>
   <g id="patch_170">
    <path d="M 390.473266 188.638125 
L 392.454802 188.638125 
L 392.454802 187.653786 
L 390.473266 187.653786 
z
" clip-path="url(#p704d20ec72)" style="fill: #4c72b0; fill-opacity: 0.5; stroke: #4c72b0; stroke-linejoin: miter"/>
   </g>
   <g id="patch_171">
    <path d="M 392.454802 188.638125 
L 394.436334 188.638125 
L 394.436334 187.758617 
L 392.454802 187.758617 
z
" clip-path="url(#p704d20ec72)" style="fill: #4c72b0; fill-opacity: 0.5; stroke: #4c72b0; stroke-linejoin: miter"/>
   </g>
   <g id="patch_172">
    <path d="M 394.436334 188.638125 
L 396.417871 188.638125 
L 396.417871 186.93221 
L 394.436334 186.93221 
z
" clip-path="url(#p704d20ec72)" style="fill: #4c72b0; fill-opacity: 0.5; stroke: #4c72b0; stroke-linejoin: miter"/>
   </g>
   <g id="patch_173">
    <path d="M 396.417871 188.638125 
L 398.399403 188.638125 
L 398.399403 186.516958 
L 396.417871 186.516958 
z
" clip-path="url(#p704d20ec72)" style="fill: #4c72b0; fill-opacity: 0.5; stroke: #4c72b0; stroke-linejoin: miter"/>
   </g>
   <g id="patch_174">
    <path d="M 398.399403 188.638125 
L 400.380934 188.638125 
L 400.380934 184.105798 
L 398.399403 184.105798 
z
" clip-path="url(#p704d20ec72)" style="fill: #4c72b0; fill-opacity: 0.5; stroke: #4c72b0; stroke-linejoin: miter"/>
   </g>
   <g id="patch_175">
    <path d="M 400.380934 188.638125 
L 402.362476 188.638125 
L 402.362476 175.981981 
L 400.380934 175.981981 
z
" clip-path="url(#p704d20ec72)" style="fill: #4c72b0; fill-opacity: 0.5; stroke: #4c72b0; stroke-linejoin: miter"/>
   </g>
   <g id="patch_176">
    <path d="M 402.362476 188.638125 
L 404.344008 188.638125 
L 404.344008 177.297096 
L 402.362476 177.297096 
z
" clip-path="url(#p704d20ec72)" style="fill: #4c72b0; fill-opacity: 0.5; stroke: #4c72b0; stroke-linejoin: miter"/>
   </g>
   <g id="patch_177">
    <path d="M 404.344008 188.638125 
L 406.32554 188.638125 
L 406.32554 177.400568 
L 404.344008 177.400568 
z
" clip-path="url(#p704d20ec72)" style="fill: #4c72b0; fill-opacity: 0.5; stroke: #4c72b0; stroke-linejoin: miter"/>
   </g>
   <g id="patch_178">
    <path d="M 406.32554 188.638125 
L 408.307071 188.638125 
L 408.307071 173.13645 
L 406.32554 173.13645 
z
" clip-path="url(#p704d20ec72)" style="fill: #4c72b0; fill-opacity: 0.5; stroke: #4c72b0; stroke-linejoin: miter"/>
   </g>
   <g id="patch_179">
    <path d="M 408.307071 188.638125 
L 410.288603 188.638125 
L 410.288603 174.406699 
L 408.307071 174.406699 
z
" clip-path="url(#p704d20ec72)" style="fill: #4c72b0; fill-opacity: 0.5; stroke: #4c72b0; stroke-linejoin: miter"/>
   </g>
   <g id="patch_180">
    <path d="M 410.288603 188.638125 
L 412.270145 188.638125 
L 412.270145 175.840389 
L 410.288603 175.840389 
z
" clip-path="url(#p704d20ec72)" style="fill: #4c72b0; fill-opacity: 0.5; stroke: #4c72b0; stroke-linejoin: miter"/>
   </g>
   <g id="patch_181">
    <path d="M 412.270145 188.638125 
L 414.251677 188.638125 
L 414.251677 177.049309 
L 412.270145 177.049309 
z
" clip-path="url(#p704d20ec72)" style="fill: #4c72b0; fill-opacity: 0.5; stroke: #4c72b0; stroke-linejoin: miter"/>
   </g>
   <g id="patch_182">
    <path d="M 414.251677 188.638125 
L 416.233208 188.638125 
L 416.233208 180.325001 
L 414.251677 180.325001 
z
" clip-path="url(#p704d20ec72)" style="fill: #4c72b0; fill-opacity: 0.5; stroke: #4c72b0; stroke-linejoin: miter"/>
   </g>
   <g id="patch_183">
    <path d="M 416.233208 188.638125 
L 418.21474 188.638125 
L 418.21474 181.608865 
L 416.233208 181.608865 
z
" clip-path="url(#p704d20ec72)" style="fill: #4c72b0; fill-opacity: 0.5; stroke: #4c72b0; stroke-linejoin: miter"/>
   </g>
   <g id="patch_184">
    <path d="M 418.21474 188.638125 
L 420.196282 188.638125 
L 420.196282 182.126256 
L 418.21474 182.126256 
z
" clip-path="url(#p704d20ec72)" style="fill: #4c72b0; fill-opacity: 0.5; stroke: #4c72b0; stroke-linejoin: miter"/>
   </g>
   <g id="patch_185">
    <path d="M 420.196282 188.638125 
L 422.177814 188.638125 
L 422.177814 182.668088 
L 420.196282 182.668088 
z
" clip-path="url(#p704d20ec72)" style="fill: #4c72b0; fill-opacity: 0.5; stroke: #4c72b0; stroke-linejoin: miter"/>
   </g>
   <g id="patch_186">
    <path d="M 422.177814 188.638125 
L 424.159345 188.638125 
L 424.159345 183.293001 
L 422.177814 183.293001 
z
" clip-path="url(#p704d20ec72)" style="fill: #4c72b0; fill-opacity: 0.5; stroke: #4c72b0; stroke-linejoin: miter"/>
   </g>
   <g id="patch_187">
    <path d="M 424.159345 188.638125 
L 426.140877 188.638125 
L 426.140877 183.623838 
L 424.159345 183.623838 
z
" clip-path="url(#p704d20ec72)" style="fill: #4c72b0; fill-opacity: 0.5; stroke: #4c72b0; stroke-linejoin: miter"/>
   </g>
   <g id="patch_188">
    <path d="M 426.140877 188.638125 
L 428.122419 188.638125 
L 428.122419 184.239244 
L 426.140877 184.239244 
z
" clip-path="url(#p704d20ec72)" style="fill: #4c72b0; fill-opacity: 0.5; stroke: #4c72b0; stroke-linejoin: miter"/>
   </g>
   <g id="patch_189">
    <path d="M 428.122419 188.638125 
L 430.103951 188.638125 
L 430.103951 185.91655 
L 428.122419 185.91655 
z
" clip-path="url(#p704d20ec72)" style="fill: #4c72b0; fill-opacity: 0.5; stroke: #4c72b0; stroke-linejoin: miter"/>
   </g>
   <g id="patch_190">
    <path d="M 430.103951 188.638125 
L 432.085482 188.638125 
L 432.085482 187.273934 
L 430.103951 187.273934 
z
" clip-path="url(#p704d20ec72)" style="fill: #4c72b0; fill-opacity: 0.5; stroke: #4c72b0; stroke-linejoin: miter"/>
   </g>
   <g id="patch_191">
    <path d="M 432.085482 188.638125 
L 434.067014 188.638125 
L 434.067014 187.46454 
L 432.085482 187.46454 
z
" clip-path="url(#p704d20ec72)" style="fill: #4c72b0; fill-opacity: 0.5; stroke: #4c72b0; stroke-linejoin: miter"/>
   </g>
   <g id="patch_192">
    <path d="M 434.067014 188.638125 
L 436.048556 188.638125 
L 436.048556 187.603414 
L 434.067014 187.603414 
z
" clip-path="url(#p704d20ec72)" style="fill: #4c72b0; fill-opacity: 0.5; stroke: #4c72b0; stroke-linejoin: miter"/>
   </g>
   <g id="patch_193">
    <path d="M 436.048556 188.638125 
L 438.030088 188.638125 
L 438.030088 187.591156 
L 436.048556 187.591156 
z
" clip-path="url(#p704d20ec72)" style="fill: #4c72b0; fill-opacity: 0.5; stroke: #4c72b0; stroke-linejoin: miter"/>
   </g>
   <g id="patch_194">
    <path d="M 438.030088 188.638125 
L 440.011619 188.638125 
L 440.011619 187.800822 
L 438.030088 187.800822 
z
" clip-path="url(#p704d20ec72)" style="fill: #4c72b0; fill-opacity: 0.5; stroke: #4c72b0; stroke-linejoin: miter"/>
   </g>
   <g id="patch_195">
    <path d="M 440.011619 188.638125 
L 441.993151 188.638125 
L 441.993151 187.883872 
L 440.011619 187.883872 
z
" clip-path="url(#p704d20ec72)" style="fill: #4c72b0; fill-opacity: 0.5; stroke: #4c72b0; stroke-linejoin: miter"/>
   </g>
   <g id="patch_196">
    <path d="M 441.993151 188.638125 
L 443.974683 188.638125 
L 443.974683 187.870257 
L 441.993151 187.870257 
z
" clip-path="url(#p704d20ec72)" style="fill: #4c72b0; fill-opacity: 0.5; stroke: #4c72b0; stroke-linejoin: miter"/>
   </g>
   <g id="patch_197">
    <path d="M 443.974683 188.638125 
L 445.956225 188.638125 
L 445.956225 187.94378 
L 443.974683 187.94378 
z
" clip-path="url(#p704d20ec72)" style="fill: #4c72b0; fill-opacity: 0.5; stroke: #4c72b0; stroke-linejoin: miter"/>
   </g>
   <g id="patch_198">
    <path d="M 445.956225 188.638125 
L 447.937756 188.638125 
L 447.937756 188.032272 
L 445.956225 188.032272 
z
" clip-path="url(#p704d20ec72)" style="fill: #4c72b0; fill-opacity: 0.5; stroke: #4c72b0; stroke-linejoin: miter"/>
   </g>
   <g id="patch_199">
    <path d="M 447.937756 188.638125 
L 449.919288 188.638125 
L 449.919288 188.054055 
L 447.937756 188.054055 
z
" clip-path="url(#p704d20ec72)" style="fill: #4c72b0; fill-opacity: 0.5; stroke: #4c72b0; stroke-linejoin: miter"/>
   </g>
   <g id="patch_200">
    <path d="M 449.919288 188.638125 
L 451.90082 188.638125 
L 451.90082 188.118044 
L 449.919288 188.118044 
z
" clip-path="url(#p704d20ec72)" style="fill: #4c72b0; fill-opacity: 0.5; stroke: #4c72b0; stroke-linejoin: miter"/>
   </g>
   <g id="patch_201">
    <path d="M 451.90082 188.638125 
L 453.882362 188.638125 
L 453.882362 188.143915 
L 451.90082 188.143915 
z
" clip-path="url(#p704d20ec72)" style="fill: #4c72b0; fill-opacity: 0.5; stroke: #4c72b0; stroke-linejoin: miter"/>
   </g>
   <g id="patch_202">
    <path d="M 453.882362 188.638125 
L 455.863893 188.638125 
L 455.863893 188.211986 
L 453.882362 188.211986 
z
" clip-path="url(#p704d20ec72)" style="fill: #4c72b0; fill-opacity: 0.5; stroke: #4c72b0; stroke-linejoin: miter"/>
   </g>
   <g id="patch_203">
    <path d="M 455.863893 188.638125 
L 457.845425 188.638125 
L 457.845425 188.286866 
L 455.863893 188.286866 
z
" clip-path="url(#p704d20ec72)" style="fill: #4c72b0; fill-opacity: 0.5; stroke: #4c72b0; stroke-linejoin: miter"/>
   </g>
   <g id="patch_204">
    <path d="M 457.845425 188.638125 
L 459.826957 188.638125 
L 459.826957 188.263721 
L 457.845425 188.263721 
z
" clip-path="url(#p704d20ec72)" style="fill: #4c72b0; fill-opacity: 0.5; stroke: #4c72b0; stroke-linejoin: miter"/>
   </g>
   <g id="patch_205">
    <path d="M 459.826957 188.638125 
L 461.808499 188.638125 
L 461.808499 188.300483 
L 459.826957 188.300483 
z
" clip-path="url(#p704d20ec72)" style="fill: #4c72b0; fill-opacity: 0.5; stroke: #4c72b0; stroke-linejoin: miter"/>
   </g>
   <g id="patch_206">
    <path d="M 461.808499 188.638125 
L 463.79003 188.638125 
L 463.79003 188.397145 
L 461.808499 188.397145 
z
" clip-path="url(#p704d20ec72)" style="fill: #4c72b0; fill-opacity: 0.5; stroke: #4c72b0; stroke-linejoin: miter"/>
   </g>
   <g id="patch_207">
    <path d="M 463.79003 188.638125 
L 465.771562 188.638125 
L 465.771562 188.380808 
L 463.79003 188.380808 
z
" clip-path="url(#p704d20ec72)" style="fill: #4c72b0; fill-opacity: 0.5; stroke: #4c72b0; stroke-linejoin: miter"/>
   </g>
   <g id="patch_208">
    <path d="M 465.771562 188.638125 
L 467.753094 188.638125 
L 467.753094 188.356301 
L 465.771562 188.356301 
z
" clip-path="url(#p704d20ec72)" style="fill: #4c72b0; fill-opacity: 0.5; stroke: #4c72b0; stroke-linejoin: miter"/>
   </g>
   <g id="patch_209">
    <path d="M 467.753094 188.638125 
L 469.734635 188.638125 
L 469.734635 188.439352 
L 467.753094 188.439352 
z
" clip-path="url(#p704d20ec72)" style="fill: #4c72b0; fill-opacity: 0.5; stroke: #4c72b0; stroke-linejoin: miter"/>
   </g>
   <g id="patch_210">
    <path d="M 469.734635 188.638125 
L 471.716167 188.638125 
L 471.716167 188.454327 
L 469.734635 188.454327 
z
" clip-path="url(#p704d20ec72)" style="fill: #4c72b0; fill-opacity: 0.5; stroke: #4c72b0; stroke-linejoin: miter"/>
   </g>
   <g id="patch_211">
    <path d="M 471.716167 188.638125 
L 473.697699 188.638125 
L 473.697699 188.473387 
L 471.716167 188.473387 
z
" clip-path="url(#p704d20ec72)" style="fill: #4c72b0; fill-opacity: 0.5; stroke: #4c72b0; stroke-linejoin: miter"/>
   </g>
   <g id="patch_212">
    <path d="M 473.697699 188.638125 
L 475.679231 188.638125 
L 475.679231 188.47611 
L 473.697699 188.47611 
z
" clip-path="url(#p704d20ec72)" style="fill: #4c72b0; fill-opacity: 0.5; stroke: #4c72b0; stroke-linejoin: miter"/>
   </g>
   <g id="patch_213">
    <path d="M 475.679231 188.638125 
L 477.660763 188.638125 
L 477.660763 188.482918 
L 475.679231 188.482918 
z
" clip-path="url(#p704d20ec72)" style="fill: #4c72b0; fill-opacity: 0.5; stroke: #4c72b0; stroke-linejoin: miter"/>
   </g>
   <g id="patch_214">
    <path d="M 477.660763 188.638125 
L 479.642304 188.638125 
L 479.642304 188.506063 
L 477.660763 188.506063 
z
" clip-path="url(#p704d20ec72)" style="fill: #4c72b0; fill-opacity: 0.5; stroke: #4c72b0; stroke-linejoin: miter"/>
   </g>
   <g id="patch_215">
    <path d="M 479.642304 188.638125 
L 481.623826 188.638125 
L 481.623826 188.507423 
L 479.642304 188.507423 
z
" clip-path="url(#p704d20ec72)" style="fill: #4c72b0; fill-opacity: 0.5; stroke: #4c72b0; stroke-linejoin: miter"/>
   </g>
   <g id="patch_216">
    <path d="M 481.623826 188.638125 
L 483.605368 188.638125 
L 483.605368 188.522401 
L 481.623826 188.522401 
z
" clip-path="url(#p704d20ec72)" style="fill: #4c72b0; fill-opacity: 0.5; stroke: #4c72b0; stroke-linejoin: miter"/>
   </g>
   <g id="patch_217">
    <path d="M 483.605368 188.638125 
L 485.586909 188.638125 
L 485.586909 188.531931 
L 483.605368 188.531931 
z
" clip-path="url(#p704d20ec72)" style="fill: #4c72b0; fill-opacity: 0.5; stroke: #4c72b0; stroke-linejoin: miter"/>
   </g>
   <g id="patch_218">
    <path d="M 485.586909 188.638125 
L 487.568431 188.638125 
L 487.568431 188.542822 
L 485.586909 188.542822 
z
" clip-path="url(#p704d20ec72)" style="fill: #4c72b0; fill-opacity: 0.5; stroke: #4c72b0; stroke-linejoin: miter"/>
   </g>
   <g id="patch_219">
    <path d="M 487.568431 188.638125 
L 489.549973 188.638125 
L 489.549973 188.557799 
L 487.568431 188.557799 
z
" clip-path="url(#p704d20ec72)" style="fill: #4c72b0; fill-opacity: 0.5; stroke: #4c72b0; stroke-linejoin: miter"/>
   </g>
   <g id="patch_220">
    <path d="M 489.549973 188.638125 
L 491.531515 188.638125 
L 491.531515 188.555076 
L 489.549973 188.555076 
z
" clip-path="url(#p704d20ec72)" style="fill: #4c72b0; fill-opacity: 0.5; stroke: #4c72b0; stroke-linejoin: miter"/>
   </g>
   <g id="patch_221">
    <path d="M 491.531515 188.638125 
L 493.513037 188.638125 
L 493.513037 188.571413 
L 491.531515 188.571413 
z
" clip-path="url(#p704d20ec72)" style="fill: #4c72b0; fill-opacity: 0.5; stroke: #4c72b0; stroke-linejoin: miter"/>
   </g>
   <g id="patch_222">
    <path d="M 493.513037 188.638125 
L 495.494578 188.638125 
L 495.494578 188.552353 
L 493.513037 188.552353 
z
" clip-path="url(#p704d20ec72)" style="fill: #4c72b0; fill-opacity: 0.5; stroke: #4c72b0; stroke-linejoin: miter"/>
   </g>
   <g id="patch_223">
    <path d="M 495.494578 188.638125 
L 497.4761 188.638125 
L 497.4761 188.579582 
L 495.494578 188.579582 
z
" clip-path="url(#p704d20ec72)" style="fill: #4c72b0; fill-opacity: 0.5; stroke: #4c72b0; stroke-linejoin: miter"/>
   </g>
   <g id="patch_224">
    <path d="M 497.4761 188.638125 
L 499.457642 188.638125 
L 499.457642 188.600004 
L 497.4761 188.600004 
z
" clip-path="url(#p704d20ec72)" style="fill: #4c72b0; fill-opacity: 0.5; stroke: #4c72b0; stroke-linejoin: miter"/>
   </g>
   <g id="patch_225">
    <path d="M 499.457642 188.638125 
L 501.439183 188.638125 
L 501.439183 188.591835 
L 499.457642 188.591835 
z
" clip-path="url(#p704d20ec72)" style="fill: #4c72b0; fill-opacity: 0.5; stroke: #4c72b0; stroke-linejoin: miter"/>
   </g>
   <g id="patch_226">
    <path d="M 501.439183 188.638125 
L 503.420705 188.638125 
L 503.420705 188.594558 
L 501.439183 188.594558 
z
" clip-path="url(#p704d20ec72)" style="fill: #4c72b0; fill-opacity: 0.5; stroke: #4c72b0; stroke-linejoin: miter"/>
   </g>
   <g id="patch_227">
    <path d="M 503.420705 188.638125 
L 505.402247 188.638125 
L 505.402247 188.602727 
L 503.420705 188.602727 
z
" clip-path="url(#p704d20ec72)" style="fill: #4c72b0; fill-opacity: 0.5; stroke: #4c72b0; stroke-linejoin: miter"/>
   </g>
   <g id="patch_228">
    <path d="M 505.402247 188.638125 
L 507.383769 188.638125 
L 507.383769 188.609534 
L 505.402247 188.609534 
z
" clip-path="url(#p704d20ec72)" style="fill: #4c72b0; fill-opacity: 0.5; stroke: #4c72b0; stroke-linejoin: miter"/>
   </g>
   <g id="patch_229">
    <path d="M 507.383769 188.638125 
L 509.36531 188.638125 
L 509.36531 188.604088 
L 507.383769 188.604088 
z
" clip-path="url(#p704d20ec72)" style="fill: #4c72b0; fill-opacity: 0.5; stroke: #4c72b0; stroke-linejoin: miter"/>
   </g>
   <g id="patch_230">
    <path d="M 509.36531 188.638125 
L 511.346852 188.638125 
L 511.346852 188.60545 
L 509.36531 188.60545 
z
" clip-path="url(#p704d20ec72)" style="fill: #4c72b0; fill-opacity: 0.5; stroke: #4c72b0; stroke-linejoin: miter"/>
   </g>
   <g id="patch_231">
    <path d="M 511.346852 188.638125 
L 513.328374 188.638125 
L 513.328374 188.606811 
L 511.346852 188.606811 
z
" clip-path="url(#p704d20ec72)" style="fill: #4c72b0; fill-opacity: 0.5; stroke: #4c72b0; stroke-linejoin: miter"/>
   </g>
   <g id="patch_232">
    <path d="M 513.328374 188.638125 
L 515.309916 188.638125 
L 515.309916 188.625872 
L 513.328374 188.625872 
z
" clip-path="url(#p704d20ec72)" style="fill: #4c72b0; fill-opacity: 0.5; stroke: #4c72b0; stroke-linejoin: miter"/>
   </g>
   <g id="patch_233">
    <path d="M 515.309916 188.638125 
L 517.291457 188.638125 
L 517.291457 188.62451 
L 515.309916 188.62451 
z
" clip-path="url(#p704d20ec72)" style="fill: #4c72b0; fill-opacity: 0.5; stroke: #4c72b0; stroke-linejoin: miter"/>
   </g>
   <g id="patch_234">
    <path d="M 517.291457 188.638125 
L 519.272979 188.638125 
L 519.272979 188.61498 
L 517.291457 188.61498 
z
" clip-path="url(#p704d20ec72)" style="fill: #4c72b0; fill-opacity: 0.5; stroke: #4c72b0; stroke-linejoin: miter"/>
   </g>
   <g id="patch_235">
    <path d="M 519.272979 188.638125 
L 521.254521 188.638125 
L 521.254521 188.619065 
L 519.272979 188.619065 
z
" clip-path="url(#p704d20ec72)" style="fill: #4c72b0; fill-opacity: 0.5; stroke: #4c72b0; stroke-linejoin: miter"/>
   </g>
   <g id="patch_236">
    <path d="M 521.254521 188.638125 
L 523.236043 188.638125 
L 523.236043 188.623149 
L 521.254521 188.623149 
z
" clip-path="url(#p704d20ec72)" style="fill: #4c72b0; fill-opacity: 0.5; stroke: #4c72b0; stroke-linejoin: miter"/>
   </g>
   <g id="patch_237">
    <path d="M 523.236043 188.638125 
L 525.217584 188.638125 
L 525.217584 188.625872 
L 523.236043 188.625872 
z
" clip-path="url(#p704d20ec72)" style="fill: #4c72b0; fill-opacity: 0.5; stroke: #4c72b0; stroke-linejoin: miter"/>
   </g>
   <g id="patch_238">
    <path d="M 525.217584 188.638125 
L 527.199126 188.638125 
L 527.199126 188.628595 
L 525.217584 188.628595 
z
" clip-path="url(#p704d20ec72)" style="fill: #4c72b0; fill-opacity: 0.5; stroke: #4c72b0; stroke-linejoin: miter"/>
   </g>
   <g id="patch_239">
    <path d="M 527.199126 188.638125 
L 529.180648 188.638125 
L 529.180648 188.632679 
L 527.199126 188.632679 
z
" clip-path="url(#p704d20ec72)" style="fill: #4c72b0; fill-opacity: 0.5; stroke: #4c72b0; stroke-linejoin: miter"/>
   </g>
   <g id="patch_240">
    <path d="M 529.180648 188.638125 
L 531.16219 188.638125 
L 531.16219 188.623149 
L 529.180648 188.623149 
z
" clip-path="url(#p704d20ec72)" style="fill: #4c72b0; fill-opacity: 0.5; stroke: #4c72b0; stroke-linejoin: miter"/>
   </g>
   <g id="patch_241">
    <path d="M 531.16219 188.638125 
L 533.143731 188.638125 
L 533.143731 188.623149 
L 531.16219 188.623149 
z
" clip-path="url(#p704d20ec72)" style="fill: #4c72b0; fill-opacity: 0.5; stroke: #4c72b0; stroke-linejoin: miter"/>
   </g>
   <g id="patch_242">
    <path d="M 533.143731 188.638125 
L 535.125253 188.638125 
L 535.125253 188.627233 
L 533.143731 188.627233 
z
" clip-path="url(#p704d20ec72)" style="fill: #4c72b0; fill-opacity: 0.5; stroke: #4c72b0; stroke-linejoin: miter"/>
   </g>
   <g id="patch_243">
    <path d="M 535.125253 188.638125 
L 537.106795 188.638125 
L 537.106795 188.628595 
L 535.125253 188.628595 
z
" clip-path="url(#p704d20ec72)" style="fill: #4c72b0; fill-opacity: 0.5; stroke: #4c72b0; stroke-linejoin: miter"/>
   </g>
   <g id="patch_244">
    <path d="M 537.106795 188.638125 
L 539.088317 188.638125 
L 539.088317 188.627233 
L 537.106795 188.627233 
z
" clip-path="url(#p704d20ec72)" style="fill: #4c72b0; fill-opacity: 0.5; stroke: #4c72b0; stroke-linejoin: miter"/>
   </g>
   <g id="patch_245">
    <path d="M 539.088317 188.638125 
L 541.069858 188.638125 
L 541.069858 188.634041 
L 539.088317 188.634041 
z
" clip-path="url(#p704d20ec72)" style="fill: #4c72b0; fill-opacity: 0.5; stroke: #4c72b0; stroke-linejoin: miter"/>
   </g>
   <g id="patch_246">
    <path d="M 541.069858 188.638125 
L 543.0514 188.638125 
L 543.0514 188.634041 
L 541.069858 188.634041 
z
" clip-path="url(#p704d20ec72)" style="fill: #4c72b0; fill-opacity: 0.5; stroke: #4c72b0; stroke-linejoin: miter"/>
   </g>
   <g id="patch_247">
    <path d="M 543.0514 188.638125 
L 545.032922 188.638125 
L 545.032922 188.632679 
L 543.0514 188.632679 
z
" clip-path="url(#p704d20ec72)" style="fill: #4c72b0; fill-opacity: 0.5; stroke: #4c72b0; stroke-linejoin: miter"/>
   </g>
   <g id="patch_248">
    <path d="M 545.032922 188.638125 
L 547.014464 188.638125 
L 547.014464 188.632679 
L 545.032922 188.632679 
z
" clip-path="url(#p704d20ec72)" style="fill: #4c72b0; fill-opacity: 0.5; stroke: #4c72b0; stroke-linejoin: miter"/>
   </g>
   <g id="patch_249">
    <path d="M 547.014464 188.638125 
L 548.995985 188.638125 
L 548.995985 188.631318 
L 547.014464 188.631318 
z
" clip-path="url(#p704d20ec72)" style="fill: #4c72b0; fill-opacity: 0.5; stroke: #4c72b0; stroke-linejoin: miter"/>
   </g>
   <g id="patch_250">
    <path d="M 548.995985 188.638125 
L 550.977527 188.638125 
L 550.977527 188.631318 
L 548.995985 188.631318 
z
" clip-path="url(#p704d20ec72)" style="fill: #4c72b0; fill-opacity: 0.5; stroke: #4c72b0; stroke-linejoin: miter"/>
   </g>
   <g id="patch_251">
    <path d="M 550.977527 188.638125 
L 552.959069 188.638125 
L 552.959069 188.631318 
L 550.977527 188.631318 
z
" clip-path="url(#p704d20ec72)" style="fill: #4c72b0; fill-opacity: 0.5; stroke: #4c72b0; stroke-linejoin: miter"/>
   </g>
   <g id="patch_252">
    <path d="M 552.959069 188.638125 
L 554.940591 188.638125 
L 554.940591 188.631318 
L 552.959069 188.631318 
z
" clip-path="url(#p704d20ec72)" style="fill: #4c72b0; fill-opacity: 0.5; stroke: #4c72b0; stroke-linejoin: miter"/>
   </g>
   <g id="patch_253">
    <path d="M 554.940591 188.638125 
L 556.922132 188.638125 
L 556.922132 188.635402 
L 554.940591 188.635402 
z
" clip-path="url(#p704d20ec72)" style="fill: #4c72b0; fill-opacity: 0.5; stroke: #4c72b0; stroke-linejoin: miter"/>
   </g>
   <g id="patch_254">
    <path d="M 556.922132 188.638125 
L 558.903674 188.638125 
L 558.903674 188.635402 
L 556.922132 188.635402 
z
" clip-path="url(#p704d20ec72)" style="fill: #4c72b0; fill-opacity: 0.5; stroke: #4c72b0; stroke-linejoin: miter"/>
   </g>
   <g id="patch_255">
    <path d="M 558.903674 188.638125 
L 560.885196 188.638125 
L 560.885196 188.635402 
L 558.903674 188.635402 
z
" clip-path="url(#p704d20ec72)" style="fill: #4c72b0; fill-opacity: 0.5; stroke: #4c72b0; stroke-linejoin: miter"/>
   </g>
   <g id="patch_256">
    <path d="M 560.885196 188.638125 
L 562.866738 188.638125 
L 562.866738 188.636764 
L 560.885196 188.636764 
z
" clip-path="url(#p704d20ec72)" style="fill: #4c72b0; fill-opacity: 0.5; stroke: #4c72b0; stroke-linejoin: miter"/>
   </g>
   <g id="patch_257">
    <path d="M 562.866738 188.638125 
L 564.848259 188.638125 
L 564.848259 188.636764 
L 562.866738 188.636764 
z
" clip-path="url(#p704d20ec72)" style="fill: #4c72b0; fill-opacity: 0.5; stroke: #4c72b0; stroke-linejoin: miter"/>
   </g>
   <g id="patch_258">
    <path d="M 564.848259 188.638125 
L 566.829801 188.638125 
L 566.829801 188.636764 
L 564.848259 188.636764 
z
" clip-path="url(#p704d20ec72)" style="fill: #4c72b0; fill-opacity: 0.5; stroke: #4c72b0; stroke-linejoin: miter"/>
   </g>
   <g id="patch_259">
    <path d="M 34.193438 188.638125 
L 34.193438 22.318125 
" style="fill: none; stroke: #ffffff; stroke-width: 1.25; stroke-linejoin: miter; stroke-linecap: square"/>
   </g>
   <g id="patch_260">
    <path d="M 592.193437 188.638125 
L 592.193437 22.318125 
" style="fill: none; stroke: #ffffff; stroke-width: 1.25; stroke-linejoin: miter; stroke-linecap: square"/>
   </g>
   <g id="patch_261">
    <path d="M 34.193437 188.638125 
L 592.193438 188.638125 
" style="fill: none; stroke: #ffffff; stroke-width: 1.25; stroke-linejoin: miter; stroke-linecap: square"/>
   </g>
   <g id="patch_262">
    <path d="M 34.193437 22.318125 
L 592.193438 22.318125 
" style="fill: none; stroke: #ffffff; stroke-width: 1.25; stroke-linejoin: miter; stroke-linecap: square"/>
   </g>
   <g id="text_10">
    <!-- Dequantization -->
    <g style="fill: #262626" transform="translate(267.452812 16.318125) scale(0.12 -0.12)">
     <defs>
      <path id="DejaVuSans-44" d="M 1259 4147 
L 1259 519 
L 2022 519 
Q 2988 519 3436 956 
Q 3884 1394 3884 2338 
Q 3884 3275 3436 3711 
Q 2988 4147 2022 4147 
L 1259 4147 
z
M 628 4666 
L 1925 4666 
Q 3281 4666 3915 4102 
Q 4550 3538 4550 2338 
Q 4550 1131 3912 565 
Q 3275 0 1925 0 
L 628 0 
L 628 4666 
z
" transform="scale(0.015625)"/>
      <path id="DejaVuSans-65" d="M 3597 1894 
L 3597 1613 
L 953 1613 
Q 991 1019 1311 708 
Q 1631 397 2203 397 
Q 2534 397 2845 478 
Q 3156 559 3463 722 
L 3463 178 
Q 3153 47 2828 -22 
Q 2503 -91 2169 -91 
Q 1331 -91 842 396 
Q 353 884 353 1716 
Q 353 2575 817 3079 
Q 1281 3584 2069 3584 
Q 2775 3584 3186 3129 
Q 3597 2675 3597 1894 
z
M 3022 2063 
Q 3016 2534 2758 2815 
Q 2500 3097 2075 3097 
Q 1594 3097 1305 2825 
Q 1016 2553 972 2059 
L 3022 2063 
z
" transform="scale(0.015625)"/>
      <path id="DejaVuSans-71" d="M 947 1747 
Q 947 1113 1208 752 
Q 1469 391 1925 391 
Q 2381 391 2643 752 
Q 2906 1113 2906 1747 
Q 2906 2381 2643 2742 
Q 2381 3103 1925 3103 
Q 1469 3103 1208 2742 
Q 947 2381 947 1747 
z
M 2906 525 
Q 2725 213 2448 61 
Q 2172 -91 1784 -91 
Q 1150 -91 751 415 
Q 353 922 353 1747 
Q 353 2572 751 3078 
Q 1150 3584 1784 3584 
Q 2172 3584 2448 3432 
Q 2725 3281 2906 2969 
L 2906 3500 
L 3481 3500 
L 3481 -1331 
L 2906 -1331 
L 2906 525 
z
" transform="scale(0.015625)"/>
      <path id="DejaVuSans-75" d="M 544 1381 
L 544 3500 
L 1119 3500 
L 1119 1403 
Q 1119 906 1312 657 
Q 1506 409 1894 409 
Q 2359 409 2629 706 
Q 2900 1003 2900 1516 
L 2900 3500 
L 3475 3500 
L 3475 0 
L 2900 0 
L 2900 538 
Q 2691 219 2414 64 
Q 2138 -91 1772 -91 
Q 1169 -91 856 284 
Q 544 659 544 1381 
z
M 1991 3584 
L 1991 3584 
z
" transform="scale(0.015625)"/>
      <path id="DejaVuSans-61" d="M 2194 1759 
Q 1497 1759 1228 1600 
Q 959 1441 959 1056 
Q 959 750 1161 570 
Q 1363 391 1709 391 
Q 2188 391 2477 730 
Q 2766 1069 2766 1631 
L 2766 1759 
L 2194 1759 
z
M 3341 1997 
L 3341 0 
L 2766 0 
L 2766 531 
Q 2569 213 2275 61 
Q 1981 -91 1556 -91 
Q 1019 -91 701 211 
Q 384 513 384 1019 
Q 384 1609 779 1909 
Q 1175 2209 1959 2209 
L 2766 2209 
L 2766 2266 
Q 2766 2663 2505 2880 
Q 2244 3097 1772 3097 
Q 1472 3097 1187 3025 
Q 903 2953 641 2809 
L 641 3341 
Q 956 3463 1253 3523 
Q 1550 3584 1831 3584 
Q 2591 3584 2966 3190 
Q 3341 2797 3341 1997 
z
" transform="scale(0.015625)"/>
      <path id="DejaVuSans-6e" d="M 3513 2113 
L 3513 0 
L 2938 0 
L 2938 2094 
Q 2938 2591 2744 2837 
Q 2550 3084 2163 3084 
Q 1697 3084 1428 2787 
Q 1159 2491 1159 1978 
L 1159 0 
L 581 0 
L 581 3500 
L 1159 3500 
L 1159 2956 
Q 1366 3272 1645 3428 
Q 1925 3584 2291 3584 
Q 2894 3584 3203 3211 
Q 3513 2838 3513 2113 
z
" transform="scale(0.015625)"/>
      <path id="DejaVuSans-74" d="M 1172 4494 
L 1172 3500 
L 2356 3500 
L 2356 3053 
L 1172 3053 
L 1172 1153 
Q 1172 725 1289 603 
Q 1406 481 1766 481 
L 2356 481 
L 2356 0 
L 1766 0 
Q 1100 0 847 248 
Q 594 497 594 1153 
L 594 3053 
L 172 3053 
L 172 3500 
L 594 3500 
L 594 4494 
L 1172 4494 
z
" transform="scale(0.015625)"/>
      <path id="DejaVuSans-69" d="M 603 3500 
L 1178 3500 
L 1178 0 
L 603 0 
L 603 3500 
z
M 603 4863 
L 1178 4863 
L 1178 4134 
L 603 4134 
L 603 4863 
z
" transform="scale(0.015625)"/>
      <path id="DejaVuSans-7a" d="M 353 3500 
L 3084 3500 
L 3084 2975 
L 922 459 
L 3084 459 
L 3084 0 
L 275 0 
L 275 525 
L 2438 3041 
L 353 3041 
L 353 3500 
z
" transform="scale(0.015625)"/>
      <path id="DejaVuSans-6f" d="M 1959 3097 
Q 1497 3097 1228 2736 
Q 959 2375 959 1747 
Q 959 1119 1226 758 
Q 1494 397 1959 397 
Q 2419 397 2687 759 
Q 2956 1122 2956 1747 
Q 2956 2369 2687 2733 
Q 2419 3097 1959 3097 
z
M 1959 3584 
Q 2709 3584 3137 3096 
Q 3566 2609 3566 1747 
Q 3566 888 3137 398 
Q 2709 -91 1959 -91 
Q 1206 -91 779 398 
Q 353 888 353 1747 
Q 353 2609 779 3096 
Q 1206 3584 1959 3584 
z
" transform="scale(0.015625)"/>
     </defs>
     <use xlink:href="#DejaVuSans-44"/>
     <use xlink:href="#DejaVuSans-65" x="77.001953"/>
     <use xlink:href="#DejaVuSans-71" x="138.525391"/>
     <use xlink:href="#DejaVuSans-75" x="202.001953"/>
     <use xlink:href="#DejaVuSans-61" x="265.380859"/>
     <use xlink:href="#DejaVuSans-6e" x="326.660156"/>
     <use xlink:href="#DejaVuSans-74" x="390.039062"/>
     <use xlink:href="#DejaVuSans-69" x="429.248047"/>
     <use xlink:href="#DejaVuSans-7a" x="457.03125"/>
     <use xlink:href="#DejaVuSans-61" x="509.521484"/>
     <use xlink:href="#DejaVuSans-74" x="570.800781"/>
     <use xlink:href="#DejaVuSans-69" x="610.009766"/>
     <use xlink:href="#DejaVuSans-6f" x="637.792969"/>
     <use xlink:href="#DejaVuSans-6e" x="698.974609"/>
    </g>
   </g>
  </g>
 </g>
 <defs>
  <clipPath id="p704d20ec72">
   <rect x="34.193438" y="22.318125" width="558" height="166.32"/>
  </clipPath>
 </defs>
</svg>
