<?xml version="1.0" encoding="utf-8" standalone="no"?>
<!DOCTYPE svg PUBLIC "-//W3C//DTD SVG 1.1//EN"
  "http://www.w3.org/Graphics/SVG/1.1/DTD/svg11.dtd">
<svg xmlns:xlink="http://www.w3.org/1999/xlink" width="599.393438pt" height="215.984063pt" viewBox="0 0 599.393438 215.984063" xmlns="http://www.w3.org/2000/svg" version="1.1">
 <metadata>
  <rdf:RDF xmlns:dc="http://purl.org/dc/elements/1.1/" xmlns:cc="http://creativecommons.org/ns#" xmlns:rdf="http://www.w3.org/1999/02/22-rdf-syntax-ns#">
   <cc:Work>
    <dc:type rdf:resource="http://purl.org/dc/dcmitype/StillImage"/>
    <dc:date>2024-02-20T19:56:19.872832</dc:date>
    <dc:format>image/svg+xml</dc:format>
    <dc:creator>
     <cc:Agent>
      <dc:title>Matplotlib v3.7.1, https://matplotlib.org/</dc:title>
     </cc:Agent>
    </dc:creator>
   </cc:Work>
  </rdf:RDF>
 </metadata>
 <defs>
  <style type="text/css">*{stroke-linejoin: round; stroke-linecap: butt}</style>
 </defs>
 <g id="figure_1">
  <g id="patch_1">
   <path d="M 0 215.984063 
L 599.393438 215.984063 
L 599.393438 0 
L 0 0 
z
" style="fill: #ffffff"/>
  </g>
  <g id="axes_1">
   <g id="patch_2">
    <path d="M 34.193438 188.638125 
L 592.193437 188.638125 
L 592.193437 22.318125 
L 34.193438 22.318125 
z
" style="fill: #eaeaf2"/>
   </g>
   <g id="matplotlib.axis_1">
    <g id="xtick_1">
     <g id="line2d_1">
      <path d="M 105.979954 188.638125 
L 105.979954 22.318125 
" clip-path="url(#p9efb76ae72)" style="fill: none; stroke: #ffffff; stroke-linecap: round"/>
     </g>
     <g id="text_1">
      <!-- −10 -->
      <g style="fill: #262626" transform="translate(94.372376 206.496406) scale(0.11 -0.11)">
       <defs>
        <path id="DejaVuSans-2212" d="M 678 2272 
L 4684 2272 
L 4684 1741 
L 678 1741 
L 678 2272 
z
" transform="scale(0.015625)"/>
        <path id="DejaVuSans-31" d="M 794 531 
L 1825 531 
L 1825 4091 
L 703 3866 
L 703 4441 
L 1819 4666 
L 2450 4666 
L 2450 531 
L 3481 531 
L 3481 0 
L 794 0 
L 794 531 
z
" transform="scale(0.015625)"/>
        <path id="DejaVuSans-30" d="M 2034 4250 
Q 1547 4250 1301 3770 
Q 1056 3291 1056 2328 
Q 1056 1369 1301 889 
Q 1547 409 2034 409 
Q 2525 409 2770 889 
Q 3016 1369 3016 2328 
Q 3016 3291 2770 3770 
Q 2525 4250 2034 4250 
z
M 2034 4750 
Q 2819 4750 3233 4129 
Q 3647 3509 3647 2328 
Q 3647 1150 3233 529 
Q 2819 -91 2034 -91 
Q 1250 -91 836 529 
Q 422 1150 422 2328 
Q 422 3509 836 4129 
Q 1250 4750 2034 4750 
z
" transform="scale(0.015625)"/>
       </defs>
       <use xlink:href="#DejaVuSans-2212"/>
       <use xlink:href="#DejaVuSans-31" x="83.789062"/>
       <use xlink:href="#DejaVuSans-30" x="147.412109"/>
      </g>
     </g>
    </g>
    <g id="xtick_2">
     <g id="line2d_2">
      <path d="M 211.115075 188.638125 
L 211.115075 22.318125 
" clip-path="url(#p9efb76ae72)" style="fill: none; stroke: #ffffff; stroke-linecap: round"/>
     </g>
     <g id="text_2">
      <!-- −5 -->
      <g style="fill: #262626" transform="translate(203.006872 206.496406) scale(0.11 -0.11)">
       <defs>
        <path id="DejaVuSans-35" d="M 691 4666 
L 3169 4666 
L 3169 4134 
L 1269 4134 
L 1269 2991 
Q 1406 3038 1543 3061 
Q 1681 3084 1819 3084 
Q 2600 3084 3056 2656 
Q 3513 2228 3513 1497 
Q 3513 744 3044 326 
Q 2575 -91 1722 -91 
Q 1428 -91 1123 -41 
Q 819 9 494 109 
L 494 744 
Q 775 591 1075 516 
Q 1375 441 1709 441 
Q 2250 441 2565 725 
Q 2881 1009 2881 1497 
Q 2881 1984 2565 2268 
Q 2250 2553 1709 2553 
Q 1456 2553 1204 2497 
Q 953 2441 691 2322 
L 691 4666 
z
" transform="scale(0.015625)"/>
       </defs>
       <use xlink:href="#DejaVuSans-2212"/>
       <use xlink:href="#DejaVuSans-35" x="83.789062"/>
      </g>
     </g>
    </g>
    <g id="xtick_3">
     <g id="line2d_3">
      <path d="M 316.250196 188.638125 
L 316.250196 22.318125 
" clip-path="url(#p9efb76ae72)" style="fill: none; stroke: #ffffff; stroke-linecap: round"/>
     </g>
     <g id="text_3">
      <!-- 0 -->
      <g style="fill: #262626" transform="translate(312.750821 206.496406) scale(0.11 -0.11)">
       <use xlink:href="#DejaVuSans-30"/>
      </g>
     </g>
    </g>
    <g id="xtick_4">
     <g id="line2d_4">
      <path d="M 421.385317 188.638125 
L 421.385317 22.318125 
" clip-path="url(#p9efb76ae72)" style="fill: none; stroke: #ffffff; stroke-linecap: round"/>
     </g>
     <g id="text_4">
      <!-- 5 -->
      <g style="fill: #262626" transform="translate(417.885942 206.496406) scale(0.11 -0.11)">
       <use xlink:href="#DejaVuSans-35"/>
      </g>
     </g>
    </g>
    <g id="xtick_5">
     <g id="line2d_5">
      <path d="M 526.520438 188.638125 
L 526.520438 22.318125 
" clip-path="url(#p9efb76ae72)" style="fill: none; stroke: #ffffff; stroke-linecap: round"/>
     </g>
     <g id="text_5">
      <!-- 10 -->
      <g style="fill: #262626" transform="translate(519.521688 206.496406) scale(0.11 -0.11)">
       <use xlink:href="#DejaVuSans-31"/>
       <use xlink:href="#DejaVuSans-30" x="63.623047"/>
      </g>
     </g>
    </g>
   </g>
   <g id="matplotlib.axis_2">
    <g id="ytick_1">
     <g id="line2d_6">
      <path d="M 34.193438 188.638125 
L 592.193437 188.638125 
" clip-path="url(#p9efb76ae72)" style="fill: none; stroke: #ffffff; stroke-linecap: round"/>
     </g>
     <g id="text_6">
      <!-- 0.0 -->
      <g style="fill: #262626" transform="translate(7.2 192.817266) scale(0.11 -0.11)">
       <defs>
        <path id="DejaVuSans-2e" d="M 684 794 
L 1344 794 
L 1344 0 
L 684 0 
L 684 794 
z
" transform="scale(0.015625)"/>
       </defs>
       <use xlink:href="#DejaVuSans-30"/>
       <use xlink:href="#DejaVuSans-2e" x="63.623047"/>
       <use xlink:href="#DejaVuSans-30" x="95.410156"/>
      </g>
     </g>
    </g>
    <g id="ytick_2">
     <g id="line2d_7">
      <path d="M 34.193438 147.352023 
L 592.193437 147.352023 
" clip-path="url(#p9efb76ae72)" style="fill: none; stroke: #ffffff; stroke-linecap: round"/>
     </g>
     <g id="text_7">
      <!-- 0.1 -->
      <g style="fill: #262626" transform="translate(7.2 151.531164) scale(0.11 -0.11)">
       <use xlink:href="#DejaVuSans-30"/>
       <use xlink:href="#DejaVuSans-2e" x="63.623047"/>
       <use xlink:href="#DejaVuSans-31" x="95.410156"/>
      </g>
     </g>
    </g>
    <g id="ytick_3">
     <g id="line2d_8">
      <path d="M 34.193438 106.065921 
L 592.193437 106.065921 
" clip-path="url(#p9efb76ae72)" style="fill: none; stroke: #ffffff; stroke-linecap: round"/>
     </g>
     <g id="text_8">
      <!-- 0.2 -->
      <g style="fill: #262626" transform="translate(7.2 110.245062) scale(0.11 -0.11)">
       <defs>
        <path id="DejaVuSans-32" d="M 1228 531 
L 3431 531 
L 3431 0 
L 469 0 
L 469 531 
Q 828 903 1448 1529 
Q 2069 2156 2228 2338 
Q 2531 2678 2651 2914 
Q 2772 3150 2772 3378 
Q 2772 3750 2511 3984 
Q 2250 4219 1831 4219 
Q 1534 4219 1204 4116 
Q 875 4013 500 3803 
L 500 4441 
Q 881 4594 1212 4672 
Q 1544 4750 1819 4750 
Q 2544 4750 2975 4387 
Q 3406 4025 3406 3419 
Q 3406 3131 3298 2873 
Q 3191 2616 2906 2266 
Q 2828 2175 2409 1742 
Q 1991 1309 1228 531 
z
" transform="scale(0.015625)"/>
       </defs>
       <use xlink:href="#DejaVuSans-30"/>
       <use xlink:href="#DejaVuSans-2e" x="63.623047"/>
       <use xlink:href="#DejaVuSans-32" x="95.410156"/>
      </g>
     </g>
    </g>
    <g id="ytick_4">
     <g id="line2d_9">
      <path d="M 34.193438 64.779819 
L 592.193437 64.779819 
" clip-path="url(#p9efb76ae72)" style="fill: none; stroke: #ffffff; stroke-linecap: round"/>
     </g>
     <g id="text_9">
      <!-- 0.3 -->
      <g style="fill: #262626" transform="translate(7.2 68.95896) scale(0.11 -0.11)">
       <defs>
        <path id="DejaVuSans-33" d="M 2597 2516 
Q 3050 2419 3304 2112 
Q 3559 1806 3559 1356 
Q 3559 666 3084 287 
Q 2609 -91 1734 -91 
Q 1441 -91 1130 -33 
Q 819 25 488 141 
L 488 750 
Q 750 597 1062 519 
Q 1375 441 1716 441 
Q 2309 441 2620 675 
Q 2931 909 2931 1356 
Q 2931 1769 2642 2001 
Q 2353 2234 1838 2234 
L 1294 2234 
L 1294 2753 
L 1863 2753 
Q 2328 2753 2575 2939 
Q 2822 3125 2822 3475 
Q 2822 3834 2567 4026 
Q 2313 4219 1838 4219 
Q 1578 4219 1281 4162 
Q 984 4106 628 3988 
L 628 4550 
Q 988 4650 1302 4700 
Q 1616 4750 1894 4750 
Q 2613 4750 3031 4423 
Q 3450 4097 3450 3541 
Q 3450 3153 3228 2886 
Q 3006 2619 2597 2516 
z
" transform="scale(0.015625)"/>
       </defs>
       <use xlink:href="#DejaVuSans-30"/>
       <use xlink:href="#DejaVuSans-2e" x="63.623047"/>
       <use xlink:href="#DejaVuSans-33" x="95.410156"/>
      </g>
     </g>
    </g>
    <g id="ytick_5">
     <g id="line2d_10">
      <path d="M 34.193438 23.493717 
L 592.193437 23.493717 
" clip-path="url(#p9efb76ae72)" style="fill: none; stroke: #ffffff; stroke-linecap: round"/>
     </g>
     <g id="text_10">
      <!-- 0.4 -->
      <g style="fill: #262626" transform="translate(7.2 27.672858) scale(0.11 -0.11)">
       <defs>
        <path id="DejaVuSans-34" d="M 2419 4116 
L 825 1625 
L 2419 1625 
L 2419 4116 
z
M 2253 4666 
L 3047 4666 
L 3047 1625 
L 3713 1625 
L 3713 1100 
L 3047 1100 
L 3047 0 
L 2419 0 
L 2419 1100 
L 313 1100 
L 313 1709 
L 2253 4666 
z
" transform="scale(0.015625)"/>
       </defs>
       <use xlink:href="#DejaVuSans-30"/>
       <use xlink:href="#DejaVuSans-2e" x="63.623047"/>
       <use xlink:href="#DejaVuSans-34" x="95.410156"/>
      </g>
     </g>
    </g>
   </g>
   <g id="patch_3">
    <path d="M 59.557074 188.638125 
L 61.538604 188.638125 
L 61.538604 188.515339 
L 59.557074 188.515339 
z
" clip-path="url(#p9efb76ae72)" style="fill: #4c72b0; fill-opacity: 0.5; stroke: #4c72b0; stroke-linejoin: miter"/>
   </g>
   <g id="patch_4">
    <path d="M 61.538604 188.638125 
L 63.520135 188.638125 
L 63.520135 188.438939 
L 61.538604 188.438939 
z
" clip-path="url(#p9efb76ae72)" style="fill: #4c72b0; fill-opacity: 0.5; stroke: #4c72b0; stroke-linejoin: miter"/>
   </g>
   <g id="patch_5">
    <path d="M 63.520135 188.638125 
L 65.501686 188.638125 
L 65.501686 188.316157 
L 63.520135 188.316157 
z
" clip-path="url(#p9efb76ae72)" style="fill: #4c72b0; fill-opacity: 0.5; stroke: #4c72b0; stroke-linejoin: miter"/>
   </g>
   <g id="patch_6">
    <path d="M 65.501686 188.638125 
L 67.483216 188.638125 
L 67.483216 188.234297 
L 65.501686 188.234297 
z
" clip-path="url(#p9efb76ae72)" style="fill: #4c72b0; fill-opacity: 0.5; stroke: #4c72b0; stroke-linejoin: miter"/>
   </g>
   <g id="patch_7">
    <path d="M 67.483216 188.638125 
L 69.464747 188.638125 
L 69.464747 188.046026 
L 67.483216 188.046026 
z
" clip-path="url(#p9efb76ae72)" style="fill: #4c72b0; fill-opacity: 0.5; stroke: #4c72b0; stroke-linejoin: miter"/>
   </g>
   <g id="patch_8">
    <path d="M 69.464747 188.638125 
L 71.446277 188.638125 
L 71.446277 187.868669 
L 69.464747 187.868669 
z
" clip-path="url(#p9efb76ae72)" style="fill: #4c72b0; fill-opacity: 0.5; stroke: #4c72b0; stroke-linejoin: miter"/>
   </g>
   <g id="patch_9">
    <path d="M 71.446277 188.638125 
L 73.427808 188.638125 
L 73.427808 187.672212 
L 71.446277 187.672212 
z
" clip-path="url(#p9efb76ae72)" style="fill: #4c72b0; fill-opacity: 0.5; stroke: #4c72b0; stroke-linejoin: miter"/>
   </g>
   <g id="patch_10">
    <path d="M 73.427808 188.638125 
L 75.409338 188.638125 
L 75.409338 187.295669 
L 73.427808 187.295669 
z
" clip-path="url(#p9efb76ae72)" style="fill: #4c72b0; fill-opacity: 0.5; stroke: #4c72b0; stroke-linejoin: miter"/>
   </g>
   <g id="patch_11">
    <path d="M 75.409338 188.638125 
L 77.390889 188.638125 
L 77.390889 186.861845 
L 75.409338 186.861845 
z
" clip-path="url(#p9efb76ae72)" style="fill: #4c72b0; fill-opacity: 0.5; stroke: #4c72b0; stroke-linejoin: miter"/>
   </g>
   <g id="patch_12">
    <path d="M 77.390889 188.638125 
L 79.37242 188.638125 
L 79.37242 186.176956 
L 77.390889 186.176956 
z
" clip-path="url(#p9efb76ae72)" style="fill: #4c72b0; fill-opacity: 0.5; stroke: #4c72b0; stroke-linejoin: miter"/>
   </g>
   <g id="patch_13">
    <path d="M 79.37242 188.638125 
L 81.35395 188.638125 
L 81.35395 185.475714 
L 79.37242 185.475714 
z
" clip-path="url(#p9efb76ae72)" style="fill: #4c72b0; fill-opacity: 0.5; stroke: #4c72b0; stroke-linejoin: miter"/>
   </g>
   <g id="patch_14">
    <path d="M 81.35395 188.638125 
L 83.335481 188.638125 
L 83.335481 184.706257 
L 81.35395 184.706257 
z
" clip-path="url(#p9efb76ae72)" style="fill: #4c72b0; fill-opacity: 0.5; stroke: #4c72b0; stroke-linejoin: miter"/>
   </g>
   <g id="patch_15">
    <path d="M 83.335481 188.638125 
L 85.317011 188.638125 
L 85.317011 183.341973 
L 83.335481 183.341973 
z
" clip-path="url(#p9efb76ae72)" style="fill: #4c72b0; fill-opacity: 0.5; stroke: #4c72b0; stroke-linejoin: miter"/>
   </g>
   <g id="patch_16">
    <path d="M 85.317011 188.638125 
L 87.298542 188.638125 
L 87.298542 182.015889 
L 85.317011 182.015889 
z
" clip-path="url(#p9efb76ae72)" style="fill: #4c72b0; fill-opacity: 0.5; stroke: #4c72b0; stroke-linejoin: miter"/>
   </g>
   <g id="patch_17">
    <path d="M 87.298542 188.638125 
L 89.280093 188.638125 
L 89.280093 180.065049 
L 87.298542 180.065049 
z
" clip-path="url(#p9efb76ae72)" style="fill: #4c72b0; fill-opacity: 0.5; stroke: #4c72b0; stroke-linejoin: miter"/>
   </g>
   <g id="patch_18">
    <path d="M 89.280093 188.638125 
L 91.261623 188.638125 
L 91.261623 177.745678 
L 89.280093 177.745678 
z
" clip-path="url(#p9efb76ae72)" style="fill: #4c72b0; fill-opacity: 0.5; stroke: #4c72b0; stroke-linejoin: miter"/>
   </g>
   <g id="patch_19">
    <path d="M 91.261623 188.638125 
L 93.243154 188.638125 
L 93.243154 174.907967 
L 91.261623 174.907967 
z
" clip-path="url(#p9efb76ae72)" style="fill: #4c72b0; fill-opacity: 0.5; stroke: #4c72b0; stroke-linejoin: miter"/>
   </g>
   <g id="patch_20">
    <path d="M 93.243154 188.638125 
L 95.224684 188.638125 
L 95.224684 171.407213 
L 93.243154 171.407213 
z
" clip-path="url(#p9efb76ae72)" style="fill: #4c72b0; fill-opacity: 0.5; stroke: #4c72b0; stroke-linejoin: miter"/>
   </g>
   <g id="patch_21">
    <path d="M 95.224684 188.638125 
L 97.206215 188.638125 
L 97.206215 167.437146 
L 95.224684 167.437146 
z
" clip-path="url(#p9efb76ae72)" style="fill: #4c72b0; fill-opacity: 0.5; stroke: #4c72b0; stroke-linejoin: miter"/>
   </g>
   <g id="patch_22">
    <path d="M 97.206215 188.638125 
L 99.187765 188.638125 
L 99.187765 162.212204 
L 97.206215 162.212204 
z
" clip-path="url(#p9efb76ae72)" style="fill: #4c72b0; fill-opacity: 0.5; stroke: #4c72b0; stroke-linejoin: miter"/>
   </g>
   <g id="patch_23">
    <path d="M 99.187765 188.638125 
L 101.169296 188.638125 
L 101.169296 156.561071 
L 99.187765 156.561071 
z
" clip-path="url(#p9efb76ae72)" style="fill: #4c72b0; fill-opacity: 0.5; stroke: #4c72b0; stroke-linejoin: miter"/>
   </g>
   <g id="patch_24">
    <path d="M 101.169296 188.638125 
L 103.150827 188.638125 
L 103.150827 149.193935 
L 101.169296 149.193935 
z
" clip-path="url(#p9efb76ae72)" style="fill: #4c72b0; fill-opacity: 0.5; stroke: #4c72b0; stroke-linejoin: miter"/>
   </g>
   <g id="patch_25">
    <path d="M 103.150827 188.638125 
L 105.132357 188.638125 
L 105.132357 142.407984 
L 103.150827 142.407984 
z
" clip-path="url(#p9efb76ae72)" style="fill: #4c72b0; fill-opacity: 0.5; stroke: #4c72b0; stroke-linejoin: miter"/>
   </g>
   <g id="patch_26">
    <path d="M 105.132357 188.638125 
L 107.113888 188.638125 
L 107.113888 133.848464 
L 105.132357 133.848464 
z
" clip-path="url(#p9efb76ae72)" style="fill: #4c72b0; fill-opacity: 0.5; stroke: #4c72b0; stroke-linejoin: miter"/>
   </g>
   <g id="patch_27">
    <path d="M 107.113888 188.638125 
L 109.095418 188.638125 
L 109.095418 125.327144 
L 107.113888 125.327144 
z
" clip-path="url(#p9efb76ae72)" style="fill: #4c72b0; fill-opacity: 0.5; stroke: #4c72b0; stroke-linejoin: miter"/>
   </g>
   <g id="patch_28">
    <path d="M 109.095418 188.638125 
L 111.076969 188.638125 
L 111.076969 115.895218 
L 109.095418 115.895218 
z
" clip-path="url(#p9efb76ae72)" style="fill: #4c72b0; fill-opacity: 0.5; stroke: #4c72b0; stroke-linejoin: miter"/>
   </g>
   <g id="patch_29">
    <path d="M 111.076969 188.638125 
L 113.058499 188.638125 
L 113.058499 106.006148 
L 111.076969 106.006148 
z
" clip-path="url(#p9efb76ae72)" style="fill: #4c72b0; fill-opacity: 0.5; stroke: #4c72b0; stroke-linejoin: miter"/>
   </g>
   <g id="patch_30">
    <path d="M 113.058499 188.638125 
L 115.04003 188.638125 
L 115.04003 95.195559 
L 113.058499 95.195559 
z
" clip-path="url(#p9efb76ae72)" style="fill: #4c72b0; fill-opacity: 0.5; stroke: #4c72b0; stroke-linejoin: miter"/>
   </g>
   <g id="patch_31">
    <path d="M 115.04003 188.638125 
L 117.021561 188.638125 
L 117.021561 84.870655 
L 115.04003 84.870655 
z
" clip-path="url(#p9efb76ae72)" style="fill: #4c72b0; fill-opacity: 0.5; stroke: #4c72b0; stroke-linejoin: miter"/>
   </g>
   <g id="patch_32">
    <path d="M 117.021561 188.638125 
L 119.003091 188.638125 
L 119.003091 74.125551 
L 117.021561 74.125551 
z
" clip-path="url(#p9efb76ae72)" style="fill: #4c72b0; fill-opacity: 0.5; stroke: #4c72b0; stroke-linejoin: miter"/>
   </g>
   <g id="patch_33">
    <path d="M 119.003091 188.638125 
L 120.984622 188.638125 
L 120.984622 64.990302 
L 119.003091 64.990302 
z
" clip-path="url(#p9efb76ae72)" style="fill: #4c72b0; fill-opacity: 0.5; stroke: #4c72b0; stroke-linejoin: miter"/>
   </g>
   <g id="patch_34">
    <path d="M 120.984622 188.638125 
L 122.966172 188.638125 
L 122.966172 54.202902 
L 120.984622 54.202902 
z
" clip-path="url(#p9efb76ae72)" style="fill: #4c72b0; fill-opacity: 0.5; stroke: #4c72b0; stroke-linejoin: miter"/>
   </g>
   <g id="patch_35">
    <path d="M 122.966172 188.638125 
L 124.947703 188.638125 
L 124.947703 47.22732 
L 122.966172 47.22732 
z
" clip-path="url(#p9efb76ae72)" style="fill: #4c72b0; fill-opacity: 0.5; stroke: #4c72b0; stroke-linejoin: miter"/>
   </g>
   <g id="patch_36">
    <path d="M 124.947703 188.638125 
L 126.929233 188.638125 
L 126.929233 39.764684 
L 124.947703 39.764684 
z
" clip-path="url(#p9efb76ae72)" style="fill: #4c72b0; fill-opacity: 0.5; stroke: #4c72b0; stroke-linejoin: miter"/>
   </g>
   <g id="patch_37">
    <path d="M 126.929233 188.638125 
L 128.910764 188.638125 
L 128.910764 35.003332 
L 126.929233 35.003332 
z
" clip-path="url(#p9efb76ae72)" style="fill: #4c72b0; fill-opacity: 0.5; stroke: #4c72b0; stroke-linejoin: miter"/>
   </g>
   <g id="patch_38">
    <path d="M 128.910764 188.638125 
L 130.892295 188.638125 
L 130.892295 31.300664 
L 128.910764 31.300664 
z
" clip-path="url(#p9efb76ae72)" style="fill: #4c72b0; fill-opacity: 0.5; stroke: #4c72b0; stroke-linejoin: miter"/>
   </g>
   <g id="patch_39">
    <path d="M 130.892295 188.638125 
L 132.873845 188.638125 
L 132.873845 30.238125 
L 130.892295 30.238125 
z
" clip-path="url(#p9efb76ae72)" style="fill: #4c72b0; fill-opacity: 0.5; stroke: #4c72b0; stroke-linejoin: miter"/>
   </g>
   <g id="patch_40">
    <path d="M 132.873845 188.638125 
L 134.855376 188.638125 
L 134.855376 30.94595 
L 132.873845 30.94595 
z
" clip-path="url(#p9efb76ae72)" style="fill: #4c72b0; fill-opacity: 0.5; stroke: #4c72b0; stroke-linejoin: miter"/>
   </g>
   <g id="patch_41">
    <path d="M 134.855376 188.638125 
L 136.836906 188.638125 
L 136.836906 34.190218 
L 134.855376 34.190218 
z
" clip-path="url(#p9efb76ae72)" style="fill: #4c72b0; fill-opacity: 0.5; stroke: #4c72b0; stroke-linejoin: miter"/>
   </g>
   <g id="patch_42">
    <path d="M 136.836906 188.638125 
L 138.818437 188.638125 
L 138.818437 38.913371 
L 136.836906 38.913371 
z
" clip-path="url(#p9efb76ae72)" style="fill: #4c72b0; fill-opacity: 0.5; stroke: #4c72b0; stroke-linejoin: miter"/>
   </g>
   <g id="patch_43">
    <path d="M 138.818437 188.638125 
L 140.799967 188.638125 
L 140.799967 45.87395 
L 138.818437 45.87395 
z
" clip-path="url(#p9efb76ae72)" style="fill: #4c72b0; fill-opacity: 0.5; stroke: #4c72b0; stroke-linejoin: miter"/>
   </g>
   <g id="patch_44">
    <path d="M 140.799967 188.638125 
L 142.781498 188.638125 
L 142.781498 53.085557 
L 140.799967 53.085557 
z
" clip-path="url(#p9efb76ae72)" style="fill: #4c72b0; fill-opacity: 0.5; stroke: #4c72b0; stroke-linejoin: miter"/>
   </g>
   <g id="patch_45">
    <path d="M 142.781498 188.638125 
L 144.763049 188.638125 
L 144.763049 62.677751 
L 142.781498 62.677751 
z
" clip-path="url(#p9efb76ae72)" style="fill: #4c72b0; fill-opacity: 0.5; stroke: #4c72b0; stroke-linejoin: miter"/>
   </g>
   <g id="patch_46">
    <path d="M 144.763049 188.638125 
L 146.744579 188.638125 
L 146.744579 73.407937 
L 144.763049 73.407937 
z
" clip-path="url(#p9efb76ae72)" style="fill: #4c72b0; fill-opacity: 0.5; stroke: #4c72b0; stroke-linejoin: miter"/>
   </g>
   <g id="patch_47">
    <path d="M 146.744579 188.638125 
L 148.72611 188.638125 
L 148.72611 83.705556 
L 146.744579 83.705556 
z
" clip-path="url(#p9efb76ae72)" style="fill: #4c72b0; fill-opacity: 0.5; stroke: #4c72b0; stroke-linejoin: miter"/>
   </g>
   <g id="patch_48">
    <path d="M 148.72611 188.638125 
L 150.70764 188.638125 
L 150.70764 95.19283 
L 148.72611 95.19283 
z
" clip-path="url(#p9efb76ae72)" style="fill: #4c72b0; fill-opacity: 0.5; stroke: #4c72b0; stroke-linejoin: miter"/>
   </g>
   <g id="patch_49">
    <path d="M 150.70764 188.638125 
L 152.689181 188.638125 
L 152.689181 106.505892 
L 150.70764 106.505892 
z
" clip-path="url(#p9efb76ae72)" style="fill: #4c72b0; fill-opacity: 0.5; stroke: #4c72b0; stroke-linejoin: miter"/>
   </g>
   <g id="patch_50">
    <path d="M 152.689181 188.638125 
L 154.670711 188.638125 
L 154.670711 116.811281 
L 152.689181 116.811281 
z
" clip-path="url(#p9efb76ae72)" style="fill: #4c72b0; fill-opacity: 0.5; stroke: #4c72b0; stroke-linejoin: miter"/>
   </g>
   <g id="patch_51">
    <path d="M 154.670711 188.638125 
L 156.652242 188.638125 
L 156.652242 126.983385 
L 154.670711 126.983385 
z
" clip-path="url(#p9efb76ae72)" style="fill: #4c72b0; fill-opacity: 0.5; stroke: #4c72b0; stroke-linejoin: miter"/>
   </g>
   <g id="patch_52">
    <path d="M 156.652242 188.638125 
L 158.633783 188.638125 
L 158.633783 136.050685 
L 156.652242 136.050685 
z
" clip-path="url(#p9efb76ae72)" style="fill: #4c72b0; fill-opacity: 0.5; stroke: #4c72b0; stroke-linejoin: miter"/>
   </g>
   <g id="patch_53">
    <path d="M 158.633783 188.638125 
L 160.615313 188.638125 
L 160.615313 144.623582 
L 158.633783 144.623582 
z
" clip-path="url(#p9efb76ae72)" style="fill: #4c72b0; fill-opacity: 0.5; stroke: #4c72b0; stroke-linejoin: miter"/>
   </g>
   <g id="patch_54">
    <path d="M 160.615313 188.638125 
L 162.596844 188.638125 
L 162.596844 151.41499 
L 160.615313 151.41499 
z
" clip-path="url(#p9efb76ae72)" style="fill: #4c72b0; fill-opacity: 0.5; stroke: #4c72b0; stroke-linejoin: miter"/>
   </g>
   <g id="patch_55">
    <path d="M 162.596844 188.638125 
L 164.578384 188.638125 
L 164.578384 158.081038 
L 162.596844 158.081038 
z
" clip-path="url(#p9efb76ae72)" style="fill: #4c72b0; fill-opacity: 0.5; stroke: #4c72b0; stroke-linejoin: miter"/>
   </g>
   <g id="patch_56">
    <path d="M 164.578384 188.638125 
L 166.559915 188.638125 
L 166.559915 163.000493 
L 164.578384 163.000493 
z
" clip-path="url(#p9efb76ae72)" style="fill: #4c72b0; fill-opacity: 0.5; stroke: #4c72b0; stroke-linejoin: miter"/>
   </g>
   <g id="patch_57">
    <path d="M 166.559915 188.638125 
L 168.541445 188.638125 
L 168.541445 167.906459 
L 166.559915 167.906459 
z
" clip-path="url(#p9efb76ae72)" style="fill: #4c72b0; fill-opacity: 0.5; stroke: #4c72b0; stroke-linejoin: miter"/>
   </g>
   <g id="patch_58">
    <path d="M 168.541445 188.638125 
L 170.522986 188.638125 
L 170.522986 171.882069 
L 168.541445 171.882069 
z
" clip-path="url(#p9efb76ae72)" style="fill: #4c72b0; fill-opacity: 0.5; stroke: #4c72b0; stroke-linejoin: miter"/>
   </g>
   <g id="patch_59">
    <path d="M 170.522986 188.638125 
L 172.504517 188.638125 
L 172.504517 174.850667 
L 170.522986 174.850667 
z
" clip-path="url(#p9efb76ae72)" style="fill: #4c72b0; fill-opacity: 0.5; stroke: #4c72b0; stroke-linejoin: miter"/>
   </g>
   <g id="patch_60">
    <path d="M 172.504517 188.638125 
L 174.486047 188.638125 
L 174.486047 177.64745 
L 172.504517 177.64745 
z
" clip-path="url(#p9efb76ae72)" style="fill: #4c72b0; fill-opacity: 0.5; stroke: #4c72b0; stroke-linejoin: miter"/>
   </g>
   <g id="patch_61">
    <path d="M 174.486047 188.638125 
L 176.467588 188.638125 
L 176.467588 179.361038 
L 174.486047 179.361038 
z
" clip-path="url(#p9efb76ae72)" style="fill: #4c72b0; fill-opacity: 0.5; stroke: #4c72b0; stroke-linejoin: miter"/>
   </g>
   <g id="patch_62">
    <path d="M 176.467588 188.638125 
L 178.449118 188.638125 
L 178.449118 180.951747 
L 176.467588 180.951747 
z
" clip-path="url(#p9efb76ae72)" style="fill: #4c72b0; fill-opacity: 0.5; stroke: #4c72b0; stroke-linejoin: miter"/>
   </g>
   <g id="patch_63">
    <path d="M 178.449118 188.638125 
L 180.430649 188.638125 
L 180.430649 182.217803 
L 178.449118 182.217803 
z
" clip-path="url(#p9efb76ae72)" style="fill: #4c72b0; fill-opacity: 0.5; stroke: #4c72b0; stroke-linejoin: miter"/>
   </g>
   <g id="patch_64">
    <path d="M 180.430649 188.638125 
L 182.41219 188.638125 
L 182.41219 183.271057 
L 180.430649 183.271057 
z
" clip-path="url(#p9efb76ae72)" style="fill: #4c72b0; fill-opacity: 0.5; stroke: #4c72b0; stroke-linejoin: miter"/>
   </g>
   <g id="patch_65">
    <path d="M 182.41219 188.638125 
L 184.39372 188.638125 
L 184.39372 183.975001 
L 182.41219 183.975001 
z
" clip-path="url(#p9efb76ae72)" style="fill: #4c72b0; fill-opacity: 0.5; stroke: #4c72b0; stroke-linejoin: miter"/>
   </g>
   <g id="patch_66">
    <path d="M 184.39372 188.638125 
L 186.375251 188.638125 
L 186.375251 184.899986 
L 184.39372 184.899986 
z
" clip-path="url(#p9efb76ae72)" style="fill: #4c72b0; fill-opacity: 0.5; stroke: #4c72b0; stroke-linejoin: miter"/>
   </g>
   <g id="patch_67">
    <path d="M 186.375251 188.638125 
L 188.356791 188.638125 
L 188.356791 185.549401 
L 186.375251 185.549401 
z
" clip-path="url(#p9efb76ae72)" style="fill: #4c72b0; fill-opacity: 0.5; stroke: #4c72b0; stroke-linejoin: miter"/>
   </g>
   <g id="patch_68">
    <path d="M 188.356791 188.638125 
L 190.338322 188.638125 
L 190.338322 185.876813 
L 188.356791 185.876813 
z
" clip-path="url(#p9efb76ae72)" style="fill: #4c72b0; fill-opacity: 0.5; stroke: #4c72b0; stroke-linejoin: miter"/>
   </g>
   <g id="patch_69">
    <path d="M 190.338322 188.638125 
L 192.319862 188.638125 
L 192.319862 186.130583 
L 190.338322 186.130583 
z
" clip-path="url(#p9efb76ae72)" style="fill: #4c72b0; fill-opacity: 0.5; stroke: #4c72b0; stroke-linejoin: miter"/>
   </g>
   <g id="patch_70">
    <path d="M 192.319862 188.638125 
L 194.301393 188.638125 
L 194.301393 186.548041 
L 192.319862 186.548041 
z
" clip-path="url(#p9efb76ae72)" style="fill: #4c72b0; fill-opacity: 0.5; stroke: #4c72b0; stroke-linejoin: miter"/>
   </g>
   <g id="patch_71">
    <path d="M 194.301393 188.638125 
L 196.282924 188.638125 
L 196.282924 186.755413 
L 194.301393 186.755413 
z
" clip-path="url(#p9efb76ae72)" style="fill: #4c72b0; fill-opacity: 0.5; stroke: #4c72b0; stroke-linejoin: miter"/>
   </g>
   <g id="patch_72">
    <path d="M 196.282924 188.638125 
L 198.264464 188.638125 
L 198.264464 187.145605 
L 196.282924 187.145605 
z
" clip-path="url(#p9efb76ae72)" style="fill: #4c72b0; fill-opacity: 0.5; stroke: #4c72b0; stroke-linejoin: miter"/>
   </g>
   <g id="patch_73">
    <path d="M 198.264464 188.638125 
L 200.245995 188.638125 
L 200.245995 187.647655 
L 198.264464 187.647655 
z
" clip-path="url(#p9efb76ae72)" style="fill: #4c72b0; fill-opacity: 0.5; stroke: #4c72b0; stroke-linejoin: miter"/>
   </g>
   <g id="patch_74">
    <path d="M 200.245995 188.638125 
L 202.227525 188.638125 
L 202.227525 188.403468 
L 200.245995 188.403468 
z
" clip-path="url(#p9efb76ae72)" style="fill: #4c72b0; fill-opacity: 0.5; stroke: #4c72b0; stroke-linejoin: miter"/>
   </g>
   <g id="patch_75">
    <path d="M 202.227525 188.638125 
L 204.209066 188.638125 
L 204.209066 188.449855 
L 202.227525 188.449855 
z
" clip-path="url(#p9efb76ae72)" style="fill: #4c72b0; fill-opacity: 0.5; stroke: #4c72b0; stroke-linejoin: miter"/>
   </g>
   <g id="patch_76">
    <path d="M 204.209066 188.638125 
L 206.190596 188.638125 
L 206.190596 188.422568 
L 204.209066 188.422568 
z
" clip-path="url(#p9efb76ae72)" style="fill: #4c72b0; fill-opacity: 0.5; stroke: #4c72b0; stroke-linejoin: miter"/>
   </g>
   <g id="patch_77">
    <path d="M 206.190596 188.638125 
L 208.172127 188.638125 
L 208.172127 188.422568 
L 206.190596 188.422568 
z
" clip-path="url(#p9efb76ae72)" style="fill: #4c72b0; fill-opacity: 0.5; stroke: #4c72b0; stroke-linejoin: miter"/>
   </g>
   <g id="patch_78">
    <path d="M 208.172127 188.638125 
L 210.153668 188.638125 
L 210.153668 188.414383 
L 208.172127 188.414383 
z
" clip-path="url(#p9efb76ae72)" style="fill: #4c72b0; fill-opacity: 0.5; stroke: #4c72b0; stroke-linejoin: miter"/>
   </g>
   <g id="patch_79">
    <path d="M 210.153668 188.638125 
L 212.135198 188.638125 
L 212.135198 188.425297 
L 210.153668 188.425297 
z
" clip-path="url(#p9efb76ae72)" style="fill: #4c72b0; fill-opacity: 0.5; stroke: #4c72b0; stroke-linejoin: miter"/>
   </g>
   <g id="patch_80">
    <path d="M 212.135198 188.638125 
L 214.116729 188.638125 
L 214.116729 188.444397 
L 212.135198 188.444397 
z
" clip-path="url(#p9efb76ae72)" style="fill: #4c72b0; fill-opacity: 0.5; stroke: #4c72b0; stroke-linejoin: miter"/>
   </g>
   <g id="patch_81">
    <path d="M 214.116729 188.638125 
L 216.098269 188.638125 
L 216.098269 187.972358 
L 214.116729 187.972358 
z
" clip-path="url(#p9efb76ae72)" style="fill: #4c72b0; fill-opacity: 0.5; stroke: #4c72b0; stroke-linejoin: miter"/>
   </g>
   <g id="patch_82">
    <path d="M 216.098269 188.638125 
L 218.0798 188.638125 
L 218.0798 187.969626 
L 216.098269 187.969626 
z
" clip-path="url(#p9efb76ae72)" style="fill: #4c72b0; fill-opacity: 0.5; stroke: #4c72b0; stroke-linejoin: miter"/>
   </g>
   <g id="patch_83">
    <path d="M 218.0798 188.638125 
L 220.06133 188.638125 
L 220.06133 187.835926 
L 218.0798 187.835926 
z
" clip-path="url(#p9efb76ae72)" style="fill: #4c72b0; fill-opacity: 0.5; stroke: #4c72b0; stroke-linejoin: miter"/>
   </g>
   <g id="patch_84">
    <path d="M 220.06133 188.638125 
L 222.042871 188.638125 
L 222.042871 187.767716 
L 220.06133 187.767716 
z
" clip-path="url(#p9efb76ae72)" style="fill: #4c72b0; fill-opacity: 0.5; stroke: #4c72b0; stroke-linejoin: miter"/>
   </g>
   <g id="patch_85">
    <path d="M 222.042871 188.638125 
L 224.024402 188.638125 
L 224.024402 187.863211 
L 222.042871 187.863211 
z
" clip-path="url(#p9efb76ae72)" style="fill: #4c72b0; fill-opacity: 0.5; stroke: #4c72b0; stroke-linejoin: miter"/>
   </g>
   <g id="patch_86">
    <path d="M 224.024402 188.638125 
L 226.005942 188.638125 
L 226.005942 187.729516 
L 224.024402 187.729516 
z
" clip-path="url(#p9efb76ae72)" style="fill: #4c72b0; fill-opacity: 0.5; stroke: #4c72b0; stroke-linejoin: miter"/>
   </g>
   <g id="patch_87">
    <path d="M 226.005942 188.638125 
L 227.987473 188.638125 
L 227.987473 187.726783 
L 226.005942 187.726783 
z
" clip-path="url(#p9efb76ae72)" style="fill: #4c72b0; fill-opacity: 0.5; stroke: #4c72b0; stroke-linejoin: miter"/>
   </g>
   <g id="patch_88">
    <path d="M 227.987473 188.638125 
L 229.969003 188.638125 
L 229.969003 187.508498 
L 227.987473 187.508498 
z
" clip-path="url(#p9efb76ae72)" style="fill: #4c72b0; fill-opacity: 0.5; stroke: #4c72b0; stroke-linejoin: miter"/>
   </g>
   <g id="patch_89">
    <path d="M 229.969003 188.638125 
L 231.950544 188.638125 
L 231.950544 187.309319 
L 229.969003 187.309319 
z
" clip-path="url(#p9efb76ae72)" style="fill: #4c72b0; fill-opacity: 0.5; stroke: #4c72b0; stroke-linejoin: miter"/>
   </g>
   <g id="patch_90">
    <path d="M 231.950544 188.638125 
L 233.932074 188.638125 
L 233.932074 187.041912 
L 231.950544 187.041912 
z
" clip-path="url(#p9efb76ae72)" style="fill: #4c72b0; fill-opacity: 0.5; stroke: #4c72b0; stroke-linejoin: miter"/>
   </g>
   <g id="patch_91">
    <path d="M 233.932074 188.638125 
L 235.91361 188.638125 
L 235.91361 187.24383 
L 233.932074 187.24383 
z
" clip-path="url(#p9efb76ae72)" style="fill: #4c72b0; fill-opacity: 0.5; stroke: #4c72b0; stroke-linejoin: miter"/>
   </g>
   <g id="patch_92">
    <path d="M 235.91361 188.638125 
L 237.895141 188.638125 
L 237.895141 187.137412 
L 235.91361 187.137412 
z
" clip-path="url(#p9efb76ae72)" style="fill: #4c72b0; fill-opacity: 0.5; stroke: #4c72b0; stroke-linejoin: miter"/>
   </g>
   <g id="patch_93">
    <path d="M 237.895141 188.638125 
L 239.876676 188.638125 
L 239.876676 186.269733 
L 237.895141 186.269733 
z
" clip-path="url(#p9efb76ae72)" style="fill: #4c72b0; fill-opacity: 0.5; stroke: #4c72b0; stroke-linejoin: miter"/>
   </g>
   <g id="patch_94">
    <path d="M 239.876676 188.638125 
L 241.858212 188.638125 
L 241.858212 186.234262 
L 239.876676 186.234262 
z
" clip-path="url(#p9efb76ae72)" style="fill: #4c72b0; fill-opacity: 0.5; stroke: #4c72b0; stroke-linejoin: miter"/>
   </g>
   <g id="patch_95">
    <path d="M 241.858212 188.638125 
L 243.839742 188.638125 
L 243.839742 186.327027 
L 241.858212 186.327027 
z
" clip-path="url(#p9efb76ae72)" style="fill: #4c72b0; fill-opacity: 0.5; stroke: #4c72b0; stroke-linejoin: miter"/>
   </g>
   <g id="patch_96">
    <path d="M 243.839742 188.638125 
L 245.821278 188.638125 
L 245.821278 186.40889 
L 243.839742 186.40889 
z
" clip-path="url(#p9efb76ae72)" style="fill: #4c72b0; fill-opacity: 0.5; stroke: #4c72b0; stroke-linejoin: miter"/>
   </g>
   <g id="patch_97">
    <path d="M 245.821278 188.638125 
L 247.802814 188.638125 
L 247.802814 185.505736 
L 245.821278 185.505736 
z
" clip-path="url(#p9efb76ae72)" style="fill: #4c72b0; fill-opacity: 0.5; stroke: #4c72b0; stroke-linejoin: miter"/>
   </g>
   <g id="patch_98">
    <path d="M 247.802814 188.638125 
L 249.784349 188.638125 
L 249.784349 185.112823 
L 247.802814 185.112823 
z
" clip-path="url(#p9efb76ae72)" style="fill: #4c72b0; fill-opacity: 0.5; stroke: #4c72b0; stroke-linejoin: miter"/>
   </g>
   <g id="patch_99">
    <path d="M 249.784349 188.638125 
L 251.76588 188.638125 
L 251.76588 185.134643 
L 249.784349 185.134643 
z
" clip-path="url(#p9efb76ae72)" style="fill: #4c72b0; fill-opacity: 0.5; stroke: #4c72b0; stroke-linejoin: miter"/>
   </g>
   <g id="patch_100">
    <path d="M 251.76588 188.638125 
L 253.747415 188.638125 
L 253.747415 185.303822 
L 251.76588 185.303822 
z
" clip-path="url(#p9efb76ae72)" style="fill: #4c72b0; fill-opacity: 0.5; stroke: #4c72b0; stroke-linejoin: miter"/>
   </g>
   <g id="patch_101">
    <path d="M 253.747415 188.638125 
L 255.728951 188.638125 
L 255.728951 184.864524 
L 253.747415 184.864524 
z
" clip-path="url(#p9efb76ae72)" style="fill: #4c72b0; fill-opacity: 0.5; stroke: #4c72b0; stroke-linejoin: miter"/>
   </g>
   <g id="patch_102">
    <path d="M 255.728951 188.638125 
L 257.710481 188.638125 
L 257.710481 184.820857 
L 255.728951 184.820857 
z
" clip-path="url(#p9efb76ae72)" style="fill: #4c72b0; fill-opacity: 0.5; stroke: #4c72b0; stroke-linejoin: miter"/>
   </g>
   <g id="patch_103">
    <path d="M 257.710481 188.638125 
L 259.692017 188.638125 
L 259.692017 185.020052 
L 257.710481 185.020052 
z
" clip-path="url(#p9efb76ae72)" style="fill: #4c72b0; fill-opacity: 0.5; stroke: #4c72b0; stroke-linejoin: miter"/>
   </g>
   <g id="patch_104">
    <path d="M 259.692017 188.638125 
L 261.673553 188.638125 
L 261.673553 184.899995 
L 259.692017 184.899995 
z
" clip-path="url(#p9efb76ae72)" style="fill: #4c72b0; fill-opacity: 0.5; stroke: #4c72b0; stroke-linejoin: miter"/>
   </g>
   <g id="patch_105">
    <path d="M 261.673553 188.638125 
L 263.655083 188.638125 
L 263.655083 184.010472 
L 261.673553 184.010472 
z
" clip-path="url(#p9efb76ae72)" style="fill: #4c72b0; fill-opacity: 0.5; stroke: #4c72b0; stroke-linejoin: miter"/>
   </g>
   <g id="patch_106">
    <path d="M 263.655083 188.638125 
L 265.636619 188.638125 
L 265.636619 183.483872 
L 263.655083 183.483872 
z
" clip-path="url(#p9efb76ae72)" style="fill: #4c72b0; fill-opacity: 0.5; stroke: #4c72b0; stroke-linejoin: miter"/>
   </g>
   <g id="patch_107">
    <path d="M 265.636619 188.638125 
L 267.618154 188.638125 
L 267.618154 182.889045 
L 265.636619 182.889045 
z
" clip-path="url(#p9efb76ae72)" style="fill: #4c72b0; fill-opacity: 0.5; stroke: #4c72b0; stroke-linejoin: miter"/>
   </g>
   <g id="patch_108">
    <path d="M 267.618154 188.638125 
L 269.59969 188.638125 
L 269.59969 184.236955 
L 267.618154 184.236955 
z
" clip-path="url(#p9efb76ae72)" style="fill: #4c72b0; fill-opacity: 0.5; stroke: #4c72b0; stroke-linejoin: miter"/>
   </g>
   <g id="patch_109">
    <path d="M 269.59969 188.638125 
L 271.58122 188.638125 
L 271.58122 183.642116 
L 269.59969 183.642116 
z
" clip-path="url(#p9efb76ae72)" style="fill: #4c72b0; fill-opacity: 0.5; stroke: #4c72b0; stroke-linejoin: miter"/>
   </g>
   <g id="patch_110">
    <path d="M 271.58122 188.638125 
L 273.562756 188.638125 
L 273.562756 182.362433 
L 271.58122 182.362433 
z
" clip-path="url(#p9efb76ae72)" style="fill: #4c72b0; fill-opacity: 0.5; stroke: #4c72b0; stroke-linejoin: miter"/>
   </g>
   <g id="patch_111">
    <path d="M 273.562756 188.638125 
L 275.544289 188.638125 
L 275.544289 181.492012 
L 273.562756 181.492012 
z
" clip-path="url(#p9efb76ae72)" style="fill: #4c72b0; fill-opacity: 0.5; stroke: #4c72b0; stroke-linejoin: miter"/>
   </g>
   <g id="patch_112">
    <path d="M 275.544289 188.638125 
L 277.525825 188.638125 
L 277.525825 183.587557 
L 275.544289 183.587557 
z
" clip-path="url(#p9efb76ae72)" style="fill: #4c72b0; fill-opacity: 0.5; stroke: #4c72b0; stroke-linejoin: miter"/>
   </g>
   <g id="patch_113">
    <path d="M 277.525825 188.638125 
L 279.507358 188.638125 
L 279.507358 182.119582 
L 277.525825 182.119582 
z
" clip-path="url(#p9efb76ae72)" style="fill: #4c72b0; fill-opacity: 0.5; stroke: #4c72b0; stroke-linejoin: miter"/>
   </g>
   <g id="patch_114">
    <path d="M 279.507358 188.638125 
L 281.488893 188.638125 
L 281.488893 182.062291 
L 279.507358 182.062291 
z
" clip-path="url(#p9efb76ae72)" style="fill: #4c72b0; fill-opacity: 0.5; stroke: #4c72b0; stroke-linejoin: miter"/>
   </g>
   <g id="patch_115">
    <path d="M 281.488893 188.638125 
L 283.470426 188.638125 
L 283.470426 181.265542 
L 281.488893 181.265542 
z
" clip-path="url(#p9efb76ae72)" style="fill: #4c72b0; fill-opacity: 0.5; stroke: #4c72b0; stroke-linejoin: miter"/>
   </g>
   <g id="patch_116">
    <path d="M 283.470426 188.638125 
L 285.451959 188.638125 
L 285.451959 182.215082 
L 283.470426 182.215082 
z
" clip-path="url(#p9efb76ae72)" style="fill: #4c72b0; fill-opacity: 0.5; stroke: #4c72b0; stroke-linejoin: miter"/>
   </g>
   <g id="patch_117">
    <path d="M 285.451959 188.638125 
L 287.433495 188.638125 
L 287.433495 181.221894 
L 285.451959 181.221894 
z
" clip-path="url(#p9efb76ae72)" style="fill: #4c72b0; fill-opacity: 0.5; stroke: #4c72b0; stroke-linejoin: miter"/>
   </g>
   <g id="patch_118">
    <path d="M 287.433495 188.638125 
L 289.415028 188.638125 
L 289.415028 182.397896 
L 287.433495 182.397896 
z
" clip-path="url(#p9efb76ae72)" style="fill: #4c72b0; fill-opacity: 0.5; stroke: #4c72b0; stroke-linejoin: miter"/>
   </g>
   <g id="patch_119">
    <path d="M 289.415028 188.638125 
L 291.396564 188.638125 
L 291.396564 180.266897 
L 289.415028 180.266897 
z
" clip-path="url(#p9efb76ae72)" style="fill: #4c72b0; fill-opacity: 0.5; stroke: #4c72b0; stroke-linejoin: miter"/>
   </g>
   <g id="patch_120">
    <path d="M 291.396564 188.638125 
L 293.378097 188.638125 
L 293.378097 179.320074 
L 291.396564 179.320074 
z
" clip-path="url(#p9efb76ae72)" style="fill: #4c72b0; fill-opacity: 0.5; stroke: #4c72b0; stroke-linejoin: miter"/>
   </g>
   <g id="patch_121">
    <path d="M 293.378097 188.638125 
L 295.359631 188.638125 
L 295.359631 179.882164 
L 293.378097 179.882164 
z
" clip-path="url(#p9efb76ae72)" style="fill: #4c72b0; fill-opacity: 0.5; stroke: #4c72b0; stroke-linejoin: miter"/>
   </g>
   <g id="patch_122">
    <path d="M 295.359631 188.638125 
L 297.341165 188.638125 
L 297.341165 180.10045 
L 295.359631 180.10045 
z
" clip-path="url(#p9efb76ae72)" style="fill: #4c72b0; fill-opacity: 0.5; stroke: #4c72b0; stroke-linejoin: miter"/>
   </g>
   <g id="patch_123">
    <path d="M 297.341165 188.638125 
L 299.322698 188.638125 
L 299.322698 179.835773 
L 297.341165 179.835773 
z
" clip-path="url(#p9efb76ae72)" style="fill: #4c72b0; fill-opacity: 0.5; stroke: #4c72b0; stroke-linejoin: miter"/>
   </g>
   <g id="patch_124">
    <path d="M 299.322698 188.638125 
L 301.304233 188.638125 
L 301.304233 180.348749 
L 299.322698 180.348749 
z
" clip-path="url(#p9efb76ae72)" style="fill: #4c72b0; fill-opacity: 0.5; stroke: #4c72b0; stroke-linejoin: miter"/>
   </g>
   <g id="patch_125">
    <path d="M 301.304233 188.638125 
L 303.285767 188.638125 
L 303.285767 177.298215 
L 301.304233 177.298215 
z
" clip-path="url(#p9efb76ae72)" style="fill: #4c72b0; fill-opacity: 0.5; stroke: #4c72b0; stroke-linejoin: miter"/>
   </g>
   <g id="patch_126">
    <path d="M 303.285767 188.638125 
L 305.267301 188.638125 
L 305.267301 180.266892 
L 303.285767 180.266892 
z
" clip-path="url(#p9efb76ae72)" style="fill: #4c72b0; fill-opacity: 0.5; stroke: #4c72b0; stroke-linejoin: miter"/>
   </g>
   <g id="patch_127">
    <path d="M 305.267301 188.638125 
L 307.248835 188.638125 
L 307.248835 179.661148 
L 305.267301 179.661148 
z
" clip-path="url(#p9efb76ae72)" style="fill: #4c72b0; fill-opacity: 0.5; stroke: #4c72b0; stroke-linejoin: miter"/>
   </g>
   <g id="patch_128">
    <path d="M 307.248835 188.638125 
L 309.230369 188.638125 
L 309.230369 179.628408 
L 307.248835 179.628408 
z
" clip-path="url(#p9efb76ae72)" style="fill: #4c72b0; fill-opacity: 0.5; stroke: #4c72b0; stroke-linejoin: miter"/>
   </g>
   <g id="patch_129">
    <path d="M 309.230369 188.638125 
L 311.211903 188.638125 
L 311.211903 179.511078 
L 309.230369 179.511078 
z
" clip-path="url(#p9efb76ae72)" style="fill: #4c72b0; fill-opacity: 0.5; stroke: #4c72b0; stroke-linejoin: miter"/>
   </g>
   <g id="patch_130">
    <path d="M 311.211903 188.638125 
L 313.193437 188.638125 
L 313.193437 178.283225 
L 311.211903 178.283225 
z
" clip-path="url(#p9efb76ae72)" style="fill: #4c72b0; fill-opacity: 0.5; stroke: #4c72b0; stroke-linejoin: miter"/>
   </g>
   <g id="patch_131">
    <path d="M 313.193438 188.638125 
L 315.174972 188.638125 
L 315.174972 178.902609 
L 313.193438 178.902609 
z
" clip-path="url(#p9efb76ae72)" style="fill: #4c72b0; fill-opacity: 0.5; stroke: #4c72b0; stroke-linejoin: miter"/>
   </g>
   <g id="patch_132">
    <path d="M 315.174972 188.638125 
L 317.156506 188.638125 
L 317.156506 173.922979 
L 315.174972 173.922979 
z
" clip-path="url(#p9efb76ae72)" style="fill: #4c72b0; fill-opacity: 0.5; stroke: #4c72b0; stroke-linejoin: miter"/>
   </g>
   <g id="patch_133">
    <path d="M 317.156506 188.638125 
L 319.13804 188.638125 
L 319.13804 178.659767 
L 317.156506 178.659767 
z
" clip-path="url(#p9efb76ae72)" style="fill: #4c72b0; fill-opacity: 0.5; stroke: #4c72b0; stroke-linejoin: miter"/>
   </g>
   <g id="patch_134">
    <path d="M 319.13804 188.638125 
L 321.119574 188.638125 
L 321.119574 177.513769 
L 319.13804 177.513769 
z
" clip-path="url(#p9efb76ae72)" style="fill: #4c72b0; fill-opacity: 0.5; stroke: #4c72b0; stroke-linejoin: miter"/>
   </g>
   <g id="patch_135">
    <path d="M 321.119574 188.638125 
L 323.101108 188.638125 
L 323.101108 179.189108 
L 321.119574 179.189108 
z
" clip-path="url(#p9efb76ae72)" style="fill: #4c72b0; fill-opacity: 0.5; stroke: #4c72b0; stroke-linejoin: miter"/>
   </g>
   <g id="patch_136">
    <path d="M 323.101108 188.638125 
L 325.082642 188.638125 
L 325.082642 178.95991 
L 323.101108 178.95991 
z
" clip-path="url(#p9efb76ae72)" style="fill: #4c72b0; fill-opacity: 0.5; stroke: #4c72b0; stroke-linejoin: miter"/>
   </g>
   <g id="patch_137">
    <path d="M 325.082642 188.638125 
L 327.064177 188.638125 
L 327.064177 180.067707 
L 325.082642 180.067707 
z
" clip-path="url(#p9efb76ae72)" style="fill: #4c72b0; fill-opacity: 0.5; stroke: #4c72b0; stroke-linejoin: miter"/>
   </g>
   <g id="patch_138">
    <path d="M 327.064177 188.638125 
L 329.04571 188.638125 
L 329.04571 180.015859 
L 327.064177 180.015859 
z
" clip-path="url(#p9efb76ae72)" style="fill: #4c72b0; fill-opacity: 0.5; stroke: #4c72b0; stroke-linejoin: miter"/>
   </g>
   <g id="patch_139">
    <path d="M 329.04571 188.638125 
L 331.027244 188.638125 
L 331.027244 177.156329 
L 329.04571 177.156329 
z
" clip-path="url(#p9efb76ae72)" style="fill: #4c72b0; fill-opacity: 0.5; stroke: #4c72b0; stroke-linejoin: miter"/>
   </g>
   <g id="patch_140">
    <path d="M 331.027244 188.638125 
L 333.008778 188.638125 
L 333.008778 180.034964 
L 331.027244 180.034964 
z
" clip-path="url(#p9efb76ae72)" style="fill: #4c72b0; fill-opacity: 0.5; stroke: #4c72b0; stroke-linejoin: miter"/>
   </g>
   <g id="patch_141">
    <path d="M 333.008778 188.638125 
L 334.990313 188.638125 
L 334.990313 179.227309 
L 333.008778 179.227309 
z
" clip-path="url(#p9efb76ae72)" style="fill: #4c72b0; fill-opacity: 0.5; stroke: #4c72b0; stroke-linejoin: miter"/>
   </g>
   <g id="patch_142">
    <path d="M 334.990313 188.638125 
L 336.971847 188.638125 
L 336.971847 181.112747 
L 334.990313 181.112747 
z
" clip-path="url(#p9efb76ae72)" style="fill: #4c72b0; fill-opacity: 0.5; stroke: #4c72b0; stroke-linejoin: miter"/>
   </g>
   <g id="patch_143">
    <path d="M 336.971847 188.638125 
L 338.95338 188.638125 
L 338.95338 180.16593 
L 336.971847 180.16593 
z
" clip-path="url(#p9efb76ae72)" style="fill: #4c72b0; fill-opacity: 0.5; stroke: #4c72b0; stroke-linejoin: miter"/>
   </g>
   <g id="patch_144">
    <path d="M 338.95338 188.638125 
L 340.934916 188.638125 
L 340.934916 177.603821 
L 338.95338 177.603821 
z
" clip-path="url(#p9efb76ae72)" style="fill: #4c72b0; fill-opacity: 0.5; stroke: #4c72b0; stroke-linejoin: miter"/>
   </g>
   <g id="patch_145">
    <path d="M 340.934916 188.638125 
L 342.916449 188.638125 
L 342.916449 179.59566 
L 340.934916 179.59566 
z
" clip-path="url(#p9efb76ae72)" style="fill: #4c72b0; fill-opacity: 0.5; stroke: #4c72b0; stroke-linejoin: miter"/>
   </g>
   <g id="patch_146">
    <path d="M 342.916449 188.638125 
L 344.897982 188.638125 
L 344.897982 181.557498 
L 342.916449 181.557498 
z
" clip-path="url(#p9efb76ae72)" style="fill: #4c72b0; fill-opacity: 0.5; stroke: #4c72b0; stroke-linejoin: miter"/>
   </g>
   <g id="patch_147">
    <path d="M 344.897982 188.638125 
L 346.879517 188.638125 
L 346.879517 182.313319 
L 344.897982 182.313319 
z
" clip-path="url(#p9efb76ae72)" style="fill: #4c72b0; fill-opacity: 0.5; stroke: #4c72b0; stroke-linejoin: miter"/>
   </g>
   <g id="patch_148">
    <path d="M 346.879517 188.638125 
L 348.86105 188.638125 
L 348.86105 181.622984 
L 346.879517 181.622984 
z
" clip-path="url(#p9efb76ae72)" style="fill: #4c72b0; fill-opacity: 0.5; stroke: #4c72b0; stroke-linejoin: miter"/>
   </g>
   <g id="patch_149">
    <path d="M 348.86105 188.638125 
L 350.842586 188.638125 
L 350.842586 181.069094 
L 348.86105 181.069094 
z
" clip-path="url(#p9efb76ae72)" style="fill: #4c72b0; fill-opacity: 0.5; stroke: #4c72b0; stroke-linejoin: miter"/>
   </g>
   <g id="patch_150">
    <path d="M 350.842586 188.638125 
L 352.824119 188.638125 
L 352.824119 180.848071 
L 350.842586 180.848071 
z
" clip-path="url(#p9efb76ae72)" style="fill: #4c72b0; fill-opacity: 0.5; stroke: #4c72b0; stroke-linejoin: miter"/>
   </g>
   <g id="patch_151">
    <path d="M 352.824119 188.638125 
L 354.805655 188.638125 
L 354.805655 183.382915 
L 352.824119 183.382915 
z
" clip-path="url(#p9efb76ae72)" style="fill: #4c72b0; fill-opacity: 0.5; stroke: #4c72b0; stroke-linejoin: miter"/>
   </g>
   <g id="patch_152">
    <path d="M 354.805655 188.638125 
L 356.787188 188.638125 
L 356.787188 181.879469 
L 354.805655 181.879469 
z
" clip-path="url(#p9efb76ae72)" style="fill: #4c72b0; fill-opacity: 0.5; stroke: #4c72b0; stroke-linejoin: miter"/>
   </g>
   <g id="patch_153">
    <path d="M 356.787188 188.638125 
L 358.768721 188.638125 
L 358.768721 182.67621 
L 356.787188 182.67621 
z
" clip-path="url(#p9efb76ae72)" style="fill: #4c72b0; fill-opacity: 0.5; stroke: #4c72b0; stroke-linejoin: miter"/>
   </g>
   <g id="patch_154">
    <path d="M 358.768721 188.638125 
L 360.750256 188.638125 
L 360.750256 181.898577 
L 358.768721 181.898577 
z
" clip-path="url(#p9efb76ae72)" style="fill: #4c72b0; fill-opacity: 0.5; stroke: #4c72b0; stroke-linejoin: miter"/>
   </g>
   <g id="patch_155">
    <path d="M 360.750256 188.638125 
L 362.731792 188.638125 
L 362.731792 183.546629 
L 360.750256 183.546629 
z
" clip-path="url(#p9efb76ae72)" style="fill: #4c72b0; fill-opacity: 0.5; stroke: #4c72b0; stroke-linejoin: miter"/>
   </g>
   <g id="patch_156">
    <path d="M 362.731792 188.638125 
L 364.713322 188.638125 
L 364.713322 183.066388 
L 362.731792 183.066388 
z
" clip-path="url(#p9efb76ae72)" style="fill: #4c72b0; fill-opacity: 0.5; stroke: #4c72b0; stroke-linejoin: miter"/>
   </g>
   <g id="patch_157">
    <path d="M 364.713322 188.638125 
L 366.694858 188.638125 
L 366.694858 182.809917 
L 364.713322 182.809917 
z
" clip-path="url(#p9efb76ae72)" style="fill: #4c72b0; fill-opacity: 0.5; stroke: #4c72b0; stroke-linejoin: miter"/>
   </g>
   <g id="patch_158">
    <path d="M 366.694858 188.638125 
L 368.676394 188.638125 
L 368.676394 183.928627 
L 366.694858 183.928627 
z
" clip-path="url(#p9efb76ae72)" style="fill: #4c72b0; fill-opacity: 0.5; stroke: #4c72b0; stroke-linejoin: miter"/>
   </g>
   <g id="patch_159">
    <path d="M 368.676394 188.638125 
L 370.657924 188.638125 
L 370.657924 183.61483 
L 368.676394 183.61483 
z
" clip-path="url(#p9efb76ae72)" style="fill: #4c72b0; fill-opacity: 0.5; stroke: #4c72b0; stroke-linejoin: miter"/>
   </g>
   <g id="patch_160">
    <path d="M 370.657924 188.638125 
L 372.63946 188.638125 
L 372.63946 184.998223 
L 370.657924 184.998223 
z
" clip-path="url(#p9efb76ae72)" style="fill: #4c72b0; fill-opacity: 0.5; stroke: #4c72b0; stroke-linejoin: miter"/>
   </g>
   <g id="patch_161">
    <path d="M 372.63946 188.638125 
L 374.620995 188.638125 
L 374.620995 184.629868 
L 372.63946 184.629868 
z
" clip-path="url(#p9efb76ae72)" style="fill: #4c72b0; fill-opacity: 0.5; stroke: #4c72b0; stroke-linejoin: miter"/>
   </g>
   <g id="patch_162">
    <path d="M 374.620995 188.638125 
L 376.602526 188.638125 
L 376.602526 184.526172 
L 374.620995 184.526172 
z
" clip-path="url(#p9efb76ae72)" style="fill: #4c72b0; fill-opacity: 0.5; stroke: #4c72b0; stroke-linejoin: miter"/>
   </g>
   <g id="patch_163">
    <path d="M 376.602526 188.638125 
L 378.584061 188.638125 
L 378.584061 184.976395 
L 376.602526 184.976395 
z
" clip-path="url(#p9efb76ae72)" style="fill: #4c72b0; fill-opacity: 0.5; stroke: #4c72b0; stroke-linejoin: miter"/>
   </g>
   <g id="patch_164">
    <path d="M 378.584061 188.638125 
L 380.565597 188.638125 
L 380.565597 185.260165 
L 378.584061 185.260165 
z
" clip-path="url(#p9efb76ae72)" style="fill: #4c72b0; fill-opacity: 0.5; stroke: #4c72b0; stroke-linejoin: miter"/>
   </g>
   <g id="patch_165">
    <path d="M 380.565597 188.638125 
L 382.547133 188.638125 
L 382.547133 185.328379 
L 380.565597 185.328379 
z
" clip-path="url(#p9efb76ae72)" style="fill: #4c72b0; fill-opacity: 0.5; stroke: #4c72b0; stroke-linejoin: miter"/>
   </g>
   <g id="patch_166">
    <path d="M 382.547133 188.638125 
L 384.528663 188.638125 
L 384.528663 185.800413 
L 382.547133 185.800413 
z
" clip-path="url(#p9efb76ae72)" style="fill: #4c72b0; fill-opacity: 0.5; stroke: #4c72b0; stroke-linejoin: miter"/>
   </g>
   <g id="patch_167">
    <path d="M 384.528663 188.638125 
L 386.510199 188.638125 
L 386.510199 186.302476 
L 384.528663 186.302476 
z
" clip-path="url(#p9efb76ae72)" style="fill: #4c72b0; fill-opacity: 0.5; stroke: #4c72b0; stroke-linejoin: miter"/>
   </g>
   <g id="patch_168">
    <path d="M 386.510199 188.638125 
L 388.491734 188.638125 
L 388.491734 185.743121 
L 386.510199 185.743121 
z
" clip-path="url(#p9efb76ae72)" style="fill: #4c72b0; fill-opacity: 0.5; stroke: #4c72b0; stroke-linejoin: miter"/>
   </g>
   <g id="patch_169">
    <path d="M 388.491734 188.638125 
L 390.473265 188.638125 
L 390.473265 186.427984 
L 388.491734 186.427984 
z
" clip-path="url(#p9efb76ae72)" style="fill: #4c72b0; fill-opacity: 0.5; stroke: #4c72b0; stroke-linejoin: miter"/>
   </g>
   <g id="patch_170">
    <path d="M 390.473265 188.638125 
L 392.454801 188.638125 
L 392.454801 186.46619 
L 390.473265 186.46619 
z
" clip-path="url(#p9efb76ae72)" style="fill: #4c72b0; fill-opacity: 0.5; stroke: #4c72b0; stroke-linejoin: miter"/>
   </g>
   <g id="patch_171">
    <path d="M 392.454801 188.638125 
L 394.436336 188.638125 
L 394.436336 186.373419 
L 392.454801 186.373419 
z
" clip-path="url(#p9efb76ae72)" style="fill: #4c72b0; fill-opacity: 0.5; stroke: #4c72b0; stroke-linejoin: miter"/>
   </g>
   <g id="patch_172">
    <path d="M 394.436336 188.638125 
L 396.417872 188.638125 
L 396.417872 186.856374 
L 394.436336 186.856374 
z
" clip-path="url(#p9efb76ae72)" style="fill: #4c72b0; fill-opacity: 0.5; stroke: #4c72b0; stroke-linejoin: miter"/>
   </g>
   <g id="patch_173">
    <path d="M 396.417872 188.638125 
L 398.399402 188.638125 
L 398.399402 186.77997 
L 396.417872 186.77997 
z
" clip-path="url(#p9efb76ae72)" style="fill: #4c72b0; fill-opacity: 0.5; stroke: #4c72b0; stroke-linejoin: miter"/>
   </g>
   <g id="patch_174">
    <path d="M 398.399402 188.638125 
L 400.380933 188.638125 
L 400.380933 185.039143 
L 398.399402 185.039143 
z
" clip-path="url(#p9efb76ae72)" style="fill: #4c72b0; fill-opacity: 0.5; stroke: #4c72b0; stroke-linejoin: miter"/>
   </g>
   <g id="patch_175">
    <path d="M 400.380933 188.638125 
L 402.362473 188.638125 
L 402.362473 183.732183 
L 400.380933 183.732183 
z
" clip-path="url(#p9efb76ae72)" style="fill: #4c72b0; fill-opacity: 0.5; stroke: #4c72b0; stroke-linejoin: miter"/>
   </g>
   <g id="patch_176">
    <path d="M 402.362473 188.638125 
L 404.344004 188.638125 
L 404.344004 178.667935 
L 402.362473 178.667935 
z
" clip-path="url(#p9efb76ae72)" style="fill: #4c72b0; fill-opacity: 0.5; stroke: #4c72b0; stroke-linejoin: miter"/>
   </g>
   <g id="patch_177">
    <path d="M 404.344004 188.638125 
L 406.325545 188.638125 
L 406.325545 161.903743 
L 404.344004 161.903743 
z
" clip-path="url(#p9efb76ae72)" style="fill: #4c72b0; fill-opacity: 0.5; stroke: #4c72b0; stroke-linejoin: miter"/>
   </g>
   <g id="patch_178">
    <path d="M 406.325545 188.638125 
L 408.307075 188.638125 
L 408.307075 161.868137 
L 406.325545 161.868137 
z
" clip-path="url(#p9efb76ae72)" style="fill: #4c72b0; fill-opacity: 0.5; stroke: #4c72b0; stroke-linejoin: miter"/>
   </g>
   <g id="patch_179">
    <path d="M 408.307075 188.638125 
L 410.288606 188.638125 
L 410.288606 172.154841 
L 408.307075 172.154841 
z
" clip-path="url(#p9efb76ae72)" style="fill: #4c72b0; fill-opacity: 0.5; stroke: #4c72b0; stroke-linejoin: miter"/>
   </g>
   <g id="patch_180">
    <path d="M 410.288606 188.638125 
L 412.270146 188.638125 
L 412.270146 158.891419 
L 410.288606 158.891419 
z
" clip-path="url(#p9efb76ae72)" style="fill: #4c72b0; fill-opacity: 0.5; stroke: #4c72b0; stroke-linejoin: miter"/>
   </g>
   <g id="patch_181">
    <path d="M 412.270146 188.638125 
L 414.251677 188.638125 
L 414.251677 153.164002 
L 412.270146 153.164002 
z
" clip-path="url(#p9efb76ae72)" style="fill: #4c72b0; fill-opacity: 0.5; stroke: #4c72b0; stroke-linejoin: miter"/>
   </g>
   <g id="patch_182">
    <path d="M 414.251677 188.638125 
L 416.233207 188.638125 
L 416.233207 159.284182 
L 414.251677 159.284182 
z
" clip-path="url(#p9efb76ae72)" style="fill: #4c72b0; fill-opacity: 0.5; stroke: #4c72b0; stroke-linejoin: miter"/>
   </g>
   <g id="patch_183">
    <path d="M 416.233207 188.638125 
L 418.214748 188.638125 
L 418.214748 172.807049 
L 416.233207 172.807049 
z
" clip-path="url(#p9efb76ae72)" style="fill: #4c72b0; fill-opacity: 0.5; stroke: #4c72b0; stroke-linejoin: miter"/>
   </g>
   <g id="patch_184">
    <path d="M 418.214748 188.638125 
L 420.196279 188.638125 
L 420.196279 177.549222 
L 418.214748 177.549222 
z
" clip-path="url(#p9efb76ae72)" style="fill: #4c72b0; fill-opacity: 0.5; stroke: #4c72b0; stroke-linejoin: miter"/>
   </g>
   <g id="patch_185">
    <path d="M 420.196279 188.638125 
L 422.177809 188.638125 
L 422.177809 173.60644 
L 420.196279 173.60644 
z
" clip-path="url(#p9efb76ae72)" style="fill: #4c72b0; fill-opacity: 0.5; stroke: #4c72b0; stroke-linejoin: miter"/>
   </g>
   <g id="patch_186">
    <path d="M 422.177809 188.638125 
L 424.15935 188.638125 
L 424.15935 172.517822 
L 422.177809 172.517822 
z
" clip-path="url(#p9efb76ae72)" style="fill: #4c72b0; fill-opacity: 0.5; stroke: #4c72b0; stroke-linejoin: miter"/>
   </g>
   <g id="patch_187">
    <path d="M 424.15935 188.638125 
L 426.14088 188.638125 
L 426.14088 173.461825 
L 424.15935 173.461825 
z
" clip-path="url(#p9efb76ae72)" style="fill: #4c72b0; fill-opacity: 0.5; stroke: #4c72b0; stroke-linejoin: miter"/>
   </g>
   <g id="patch_188">
    <path d="M 426.14088 188.638125 
L 428.122411 188.638125 
L 428.122411 176.823422 
L 426.14088 176.823422 
z
" clip-path="url(#p9efb76ae72)" style="fill: #4c72b0; fill-opacity: 0.5; stroke: #4c72b0; stroke-linejoin: miter"/>
   </g>
   <g id="patch_189">
    <path d="M 428.122411 188.638125 
L 430.103951 188.638125 
L 430.103951 179.336481 
L 428.122411 179.336481 
z
" clip-path="url(#p9efb76ae72)" style="fill: #4c72b0; fill-opacity: 0.5; stroke: #4c72b0; stroke-linejoin: miter"/>
   </g>
   <g id="patch_190">
    <path d="M 430.103951 188.638125 
L 432.085482 188.638125 
L 432.085482 182.586159 
L 430.103951 182.586159 
z
" clip-path="url(#p9efb76ae72)" style="fill: #4c72b0; fill-opacity: 0.5; stroke: #4c72b0; stroke-linejoin: miter"/>
   </g>
   <g id="patch_191">
    <path d="M 432.085482 188.638125 
L 434.067013 188.638125 
L 434.067013 186.850912 
L 432.085482 186.850912 
z
" clip-path="url(#p9efb76ae72)" style="fill: #4c72b0; fill-opacity: 0.5; stroke: #4c72b0; stroke-linejoin: miter"/>
   </g>
   <g id="patch_192">
    <path d="M 434.067013 188.638125 
L 436.048553 188.638125 
L 436.048553 187.050106 
L 434.067013 187.050106 
z
" clip-path="url(#p9efb76ae72)" style="fill: #4c72b0; fill-opacity: 0.5; stroke: #4c72b0; stroke-linejoin: miter"/>
   </g>
   <g id="patch_193">
    <path d="M 436.048553 188.638125 
L 438.030084 188.638125 
L 438.030084 186.766327 
L 436.048553 186.766327 
z
" clip-path="url(#p9efb76ae72)" style="fill: #4c72b0; fill-opacity: 0.5; stroke: #4c72b0; stroke-linejoin: miter"/>
   </g>
   <g id="patch_194">
    <path d="M 438.030084 188.638125 
L 440.011624 188.638125 
L 440.011624 186.621723 
L 438.030084 186.621723 
z
" clip-path="url(#p9efb76ae72)" style="fill: #4c72b0; fill-opacity: 0.5; stroke: #4c72b0; stroke-linejoin: miter"/>
   </g>
   <g id="patch_195">
    <path d="M 440.011624 188.638125 
L 441.993155 188.638125 
L 441.993155 186.564413 
L 440.011624 186.564413 
z
" clip-path="url(#p9efb76ae72)" style="fill: #4c72b0; fill-opacity: 0.5; stroke: #4c72b0; stroke-linejoin: miter"/>
   </g>
   <g id="patch_196">
    <path d="M 441.993155 188.638125 
L 443.974685 188.638125 
L 443.974685 186.558956 
L 441.993155 186.558956 
z
" clip-path="url(#p9efb76ae72)" style="fill: #4c72b0; fill-opacity: 0.5; stroke: #4c72b0; stroke-linejoin: miter"/>
   </g>
   <g id="patch_197">
    <path d="M 443.974685 188.638125 
L 445.956226 188.638125 
L 445.956226 186.629909 
L 443.974685 186.629909 
z
" clip-path="url(#p9efb76ae72)" style="fill: #4c72b0; fill-opacity: 0.5; stroke: #4c72b0; stroke-linejoin: miter"/>
   </g>
   <g id="patch_198">
    <path d="M 445.956226 188.638125 
L 447.937757 188.638125 
L 447.937757 186.725398 
L 445.956226 186.725398 
z
" clip-path="url(#p9efb76ae72)" style="fill: #4c72b0; fill-opacity: 0.5; stroke: #4c72b0; stroke-linejoin: miter"/>
   </g>
   <g id="patch_199">
    <path d="M 447.937757 188.638125 
L 449.919287 188.638125 
L 449.919287 186.706298 
L 447.937757 186.706298 
z
" clip-path="url(#p9efb76ae72)" style="fill: #4c72b0; fill-opacity: 0.5; stroke: #4c72b0; stroke-linejoin: miter"/>
   </g>
   <g id="patch_200">
    <path d="M 449.919287 188.638125 
L 451.900828 188.638125 
L 451.900828 186.913678 
L 449.919287 186.913678 
z
" clip-path="url(#p9efb76ae72)" style="fill: #4c72b0; fill-opacity: 0.5; stroke: #4c72b0; stroke-linejoin: miter"/>
   </g>
   <g id="patch_201">
    <path d="M 451.900828 188.638125 
L 453.882358 188.638125 
L 453.882358 187.134684 
L 451.900828 187.134684 
z
" clip-path="url(#p9efb76ae72)" style="fill: #4c72b0; fill-opacity: 0.5; stroke: #4c72b0; stroke-linejoin: miter"/>
   </g>
   <g id="patch_202">
    <path d="M 453.882358 188.638125 
L 455.863889 188.638125 
L 455.863889 187.358426 
L 453.882358 187.358426 
z
" clip-path="url(#p9efb76ae72)" style="fill: #4c72b0; fill-opacity: 0.5; stroke: #4c72b0; stroke-linejoin: miter"/>
   </g>
   <g id="patch_203">
    <path d="M 455.863889 188.638125 
L 457.84543 188.638125 
L 457.84543 187.410275 
L 455.863889 187.410275 
z
" clip-path="url(#p9efb76ae72)" style="fill: #4c72b0; fill-opacity: 0.5; stroke: #4c72b0; stroke-linejoin: miter"/>
   </g>
   <g id="patch_204">
    <path d="M 457.84543 188.638125 
L 459.82696 188.638125 
L 459.82696 187.642197 
L 457.84543 187.642197 
z
" clip-path="url(#p9efb76ae72)" style="fill: #4c72b0; fill-opacity: 0.5; stroke: #4c72b0; stroke-linejoin: miter"/>
   </g>
   <g id="patch_205">
    <path d="M 459.82696 188.638125 
L 461.808491 188.638125 
L 461.808491 187.803183 
L 459.82696 187.803183 
z
" clip-path="url(#p9efb76ae72)" style="fill: #4c72b0; fill-opacity: 0.5; stroke: #4c72b0; stroke-linejoin: miter"/>
   </g>
   <g id="patch_206">
    <path d="M 461.808491 188.638125 
L 463.790031 188.638125 
L 463.790031 187.904144 
L 461.808491 187.904144 
z
" clip-path="url(#p9efb76ae72)" style="fill: #4c72b0; fill-opacity: 0.5; stroke: #4c72b0; stroke-linejoin: miter"/>
   </g>
   <g id="patch_207">
    <path d="M 463.790031 188.638125 
L 465.771562 188.638125 
L 465.771562 187.855026 
L 463.790031 187.855026 
z
" clip-path="url(#p9efb76ae72)" style="fill: #4c72b0; fill-opacity: 0.5; stroke: #4c72b0; stroke-linejoin: miter"/>
   </g>
   <g id="patch_208">
    <path d="M 465.771562 188.638125 
L 467.753092 188.638125 
L 467.753092 188.026926 
L 465.771562 188.026926 
z
" clip-path="url(#p9efb76ae72)" style="fill: #4c72b0; fill-opacity: 0.5; stroke: #4c72b0; stroke-linejoin: miter"/>
   </g>
   <g id="patch_209">
    <path d="M 467.753092 188.638125 
L 469.734633 188.638125 
L 469.734633 188.116971 
L 467.753092 188.116971 
z
" clip-path="url(#p9efb76ae72)" style="fill: #4c72b0; fill-opacity: 0.5; stroke: #4c72b0; stroke-linejoin: miter"/>
   </g>
   <g id="patch_210">
    <path d="M 469.734633 188.638125 
L 471.716164 188.638125 
L 471.716164 188.127883 
L 469.734633 188.127883 
z
" clip-path="url(#p9efb76ae72)" style="fill: #4c72b0; fill-opacity: 0.5; stroke: #4c72b0; stroke-linejoin: miter"/>
   </g>
   <g id="patch_211">
    <path d="M 471.716164 188.638125 
L 473.697694 188.638125 
L 473.697694 188.207011 
L 471.716164 188.207011 
z
" clip-path="url(#p9efb76ae72)" style="fill: #4c72b0; fill-opacity: 0.5; stroke: #4c72b0; stroke-linejoin: miter"/>
   </g>
   <g id="patch_212">
    <path d="M 473.697694 188.638125 
L 475.679235 188.638125 
L 475.679235 188.245213 
L 473.697694 188.245213 
z
" clip-path="url(#p9efb76ae72)" style="fill: #4c72b0; fill-opacity: 0.5; stroke: #4c72b0; stroke-linejoin: miter"/>
   </g>
   <g id="patch_213">
    <path d="M 475.679235 188.638125 
L 477.660765 188.638125 
L 477.660765 188.32434 
L 475.679235 188.32434 
z
" clip-path="url(#p9efb76ae72)" style="fill: #4c72b0; fill-opacity: 0.5; stroke: #4c72b0; stroke-linejoin: miter"/>
   </g>
   <g id="patch_214">
    <path d="M 477.660765 188.638125 
L 479.642306 188.638125 
L 479.642306 188.34617 
L 477.660765 188.34617 
z
" clip-path="url(#p9efb76ae72)" style="fill: #4c72b0; fill-opacity: 0.5; stroke: #4c72b0; stroke-linejoin: miter"/>
   </g>
   <g id="patch_215">
    <path d="M 479.642306 188.638125 
L 481.623836 188.638125 
L 481.623836 188.428025 
L 479.642306 188.428025 
z
" clip-path="url(#p9efb76ae72)" style="fill: #4c72b0; fill-opacity: 0.5; stroke: #4c72b0; stroke-linejoin: miter"/>
   </g>
   <g id="patch_216">
    <path d="M 481.623836 188.638125 
L 483.605367 188.638125 
L 483.605367 188.395282 
L 481.623836 188.395282 
z
" clip-path="url(#p9efb76ae72)" style="fill: #4c72b0; fill-opacity: 0.5; stroke: #4c72b0; stroke-linejoin: miter"/>
   </g>
   <g id="patch_217">
    <path d="M 483.605367 188.638125 
L 485.586908 188.638125 
L 485.586908 188.45804 
L 483.605367 188.45804 
z
" clip-path="url(#p9efb76ae72)" style="fill: #4c72b0; fill-opacity: 0.5; stroke: #4c72b0; stroke-linejoin: miter"/>
   </g>
   <g id="patch_218">
    <path d="M 485.586908 188.638125 
L 487.568438 188.638125 
L 487.568438 188.471682 
L 485.586908 188.471682 
z
" clip-path="url(#p9efb76ae72)" style="fill: #4c72b0; fill-opacity: 0.5; stroke: #4c72b0; stroke-linejoin: miter"/>
   </g>
   <g id="patch_219">
    <path d="M 487.568438 188.638125 
L 489.549969 188.638125 
L 489.549969 188.507154 
L 487.568438 188.507154 
z
" clip-path="url(#p9efb76ae72)" style="fill: #4c72b0; fill-opacity: 0.5; stroke: #4c72b0; stroke-linejoin: miter"/>
   </g>
   <g id="patch_220">
    <path d="M 489.549969 188.638125 
L 491.531499 188.638125 
L 491.531499 188.515339 
L 489.549969 188.515339 
z
" clip-path="url(#p9efb76ae72)" style="fill: #4c72b0; fill-opacity: 0.5; stroke: #4c72b0; stroke-linejoin: miter"/>
   </g>
   <g id="patch_221">
    <path d="M 491.531499 188.638125 
L 493.51303 188.638125 
L 493.51303 188.488054 
L 491.531499 188.488054 
z
" clip-path="url(#p9efb76ae72)" style="fill: #4c72b0; fill-opacity: 0.5; stroke: #4c72b0; stroke-linejoin: miter"/>
   </g>
   <g id="patch_222">
    <path d="M 493.51303 188.638125 
L 495.49458 188.638125 
L 495.49458 188.539898 
L 493.51303 188.539898 
z
" clip-path="url(#p9efb76ae72)" style="fill: #4c72b0; fill-opacity: 0.5; stroke: #4c72b0; stroke-linejoin: miter"/>
   </g>
   <g id="patch_223">
    <path d="M 495.49458 188.638125 
L 497.476111 188.638125 
L 497.476111 188.518068 
L 495.49458 188.518068 
z
" clip-path="url(#p9efb76ae72)" style="fill: #4c72b0; fill-opacity: 0.5; stroke: #4c72b0; stroke-linejoin: miter"/>
   </g>
   <g id="patch_224">
    <path d="M 497.476111 188.638125 
L 499.457642 188.638125 
L 499.457642 188.545354 
L 497.476111 188.545354 
z
" clip-path="url(#p9efb76ae72)" style="fill: #4c72b0; fill-opacity: 0.5; stroke: #4c72b0; stroke-linejoin: miter"/>
   </g>
   <g id="patch_225">
    <path d="M 499.457642 188.638125 
L 501.439172 188.638125 
L 501.439172 188.569911 
L 499.457642 188.569911 
z
" clip-path="url(#p9efb76ae72)" style="fill: #4c72b0; fill-opacity: 0.5; stroke: #4c72b0; stroke-linejoin: miter"/>
   </g>
   <g id="patch_226">
    <path d="M 501.439172 188.638125 
L 503.420703 188.638125 
L 503.420703 188.564454 
L 501.439172 188.564454 
z
" clip-path="url(#p9efb76ae72)" style="fill: #4c72b0; fill-opacity: 0.5; stroke: #4c72b0; stroke-linejoin: miter"/>
   </g>
   <g id="patch_227">
    <path d="M 503.420703 188.638125 
L 505.402253 188.638125 
L 505.402253 188.561726 
L 503.420703 188.561726 
z
" clip-path="url(#p9efb76ae72)" style="fill: #4c72b0; fill-opacity: 0.5; stroke: #4c72b0; stroke-linejoin: miter"/>
   </g>
   <g id="patch_228">
    <path d="M 505.402253 188.638125 
L 507.383784 188.638125 
L 507.383784 188.583554 
L 505.402253 188.583554 
z
" clip-path="url(#p9efb76ae72)" style="fill: #4c72b0; fill-opacity: 0.5; stroke: #4c72b0; stroke-linejoin: miter"/>
   </g>
   <g id="patch_229">
    <path d="M 507.383784 188.638125 
L 509.365314 188.638125 
L 509.365314 188.616296 
L 507.383784 188.616296 
z
" clip-path="url(#p9efb76ae72)" style="fill: #4c72b0; fill-opacity: 0.5; stroke: #4c72b0; stroke-linejoin: miter"/>
   </g>
   <g id="patch_230">
    <path d="M 509.365314 188.638125 
L 511.346845 188.638125 
L 511.346845 188.583554 
L 509.365314 188.583554 
z
" clip-path="url(#p9efb76ae72)" style="fill: #4c72b0; fill-opacity: 0.5; stroke: #4c72b0; stroke-linejoin: miter"/>
   </g>
   <g id="patch_231">
    <path d="M 511.346845 188.638125 
L 513.328376 188.638125 
L 513.328376 188.583554 
L 511.346845 188.583554 
z
" clip-path="url(#p9efb76ae72)" style="fill: #4c72b0; fill-opacity: 0.5; stroke: #4c72b0; stroke-linejoin: miter"/>
   </g>
   <g id="patch_232">
    <path d="M 513.328376 188.638125 
L 515.309906 188.638125 
L 515.309906 188.608111 
L 513.328376 188.608111 
z
" clip-path="url(#p9efb76ae72)" style="fill: #4c72b0; fill-opacity: 0.5; stroke: #4c72b0; stroke-linejoin: miter"/>
   </g>
   <g id="patch_233">
    <path d="M 515.309906 188.638125 
L 517.291457 188.638125 
L 517.291457 188.602654 
L 515.309906 188.602654 
z
" clip-path="url(#p9efb76ae72)" style="fill: #4c72b0; fill-opacity: 0.5; stroke: #4c72b0; stroke-linejoin: miter"/>
   </g>
   <g id="patch_234">
    <path d="M 517.291457 188.638125 
L 519.272987 188.638125 
L 519.272987 188.605382 
L 517.291457 188.605382 
z
" clip-path="url(#p9efb76ae72)" style="fill: #4c72b0; fill-opacity: 0.5; stroke: #4c72b0; stroke-linejoin: miter"/>
   </g>
   <g id="patch_235">
    <path d="M 519.272987 188.638125 
L 521.254518 188.638125 
L 521.254518 188.613568 
L 519.272987 188.613568 
z
" clip-path="url(#p9efb76ae72)" style="fill: #4c72b0; fill-opacity: 0.5; stroke: #4c72b0; stroke-linejoin: miter"/>
   </g>
   <g id="patch_236">
    <path d="M 521.254518 188.638125 
L 523.236048 188.638125 
L 523.236048 188.610839 
L 521.254518 188.610839 
z
" clip-path="url(#p9efb76ae72)" style="fill: #4c72b0; fill-opacity: 0.5; stroke: #4c72b0; stroke-linejoin: miter"/>
   </g>
   <g id="patch_237">
    <path d="M 523.236048 188.638125 
L 525.217579 188.638125 
L 525.217579 188.619025 
L 523.236048 188.619025 
z
" clip-path="url(#p9efb76ae72)" style="fill: #4c72b0; fill-opacity: 0.5; stroke: #4c72b0; stroke-linejoin: miter"/>
   </g>
   <g id="patch_238">
    <path d="M 525.217579 188.638125 
L 527.19911 188.638125 
L 527.19911 188.627211 
L 525.217579 188.627211 
z
" clip-path="url(#p9efb76ae72)" style="fill: #4c72b0; fill-opacity: 0.5; stroke: #4c72b0; stroke-linejoin: miter"/>
   </g>
   <g id="patch_239">
    <path d="M 527.19911 188.638125 
L 529.18066 188.638125 
L 529.18066 188.616297 
L 527.19911 188.616297 
z
" clip-path="url(#p9efb76ae72)" style="fill: #4c72b0; fill-opacity: 0.5; stroke: #4c72b0; stroke-linejoin: miter"/>
   </g>
   <g id="patch_240">
    <path d="M 529.18066 188.638125 
L 531.162191 188.638125 
L 531.162191 188.629939 
L 529.18066 188.629939 
z
" clip-path="url(#p9efb76ae72)" style="fill: #4c72b0; fill-opacity: 0.5; stroke: #4c72b0; stroke-linejoin: miter"/>
   </g>
   <g id="patch_241">
    <path d="M 531.162191 188.638125 
L 533.143721 188.638125 
L 533.143721 188.629939 
L 531.162191 188.629939 
z
" clip-path="url(#p9efb76ae72)" style="fill: #4c72b0; fill-opacity: 0.5; stroke: #4c72b0; stroke-linejoin: miter"/>
   </g>
   <g id="patch_242">
    <path d="M 533.143721 188.638125 
L 535.125252 188.638125 
L 535.125252 188.624482 
L 533.143721 188.624482 
z
" clip-path="url(#p9efb76ae72)" style="fill: #4c72b0; fill-opacity: 0.5; stroke: #4c72b0; stroke-linejoin: miter"/>
   </g>
   <g id="patch_243">
    <path d="M 535.125252 188.638125 
L 537.106782 188.638125 
L 537.106782 188.627211 
L 535.125252 188.627211 
z
" clip-path="url(#p9efb76ae72)" style="fill: #4c72b0; fill-opacity: 0.5; stroke: #4c72b0; stroke-linejoin: miter"/>
   </g>
   <g id="patch_244">
    <path d="M 537.106782 188.638125 
L 539.088333 188.638125 
L 539.088333 188.624482 
L 537.106782 188.624482 
z
" clip-path="url(#p9efb76ae72)" style="fill: #4c72b0; fill-opacity: 0.5; stroke: #4c72b0; stroke-linejoin: miter"/>
   </g>
   <g id="patch_245">
    <path d="M 539.088333 188.638125 
L 541.069864 188.638125 
L 541.069864 188.627211 
L 539.088333 188.627211 
z
" clip-path="url(#p9efb76ae72)" style="fill: #4c72b0; fill-opacity: 0.5; stroke: #4c72b0; stroke-linejoin: miter"/>
   </g>
   <g id="patch_246">
    <path d="M 541.069864 188.638125 
L 543.051394 188.638125 
L 543.051394 188.632668 
L 541.069864 188.632668 
z
" clip-path="url(#p9efb76ae72)" style="fill: #4c72b0; fill-opacity: 0.5; stroke: #4c72b0; stroke-linejoin: miter"/>
   </g>
   <g id="patch_247">
    <path d="M 543.051394 188.638125 
L 545.032925 188.638125 
L 545.032925 188.635396 
L 543.051394 188.635396 
z
" clip-path="url(#p9efb76ae72)" style="fill: #4c72b0; fill-opacity: 0.5; stroke: #4c72b0; stroke-linejoin: miter"/>
   </g>
   <g id="patch_248">
    <path d="M 545.032925 188.638125 
L 547.014455 188.638125 
L 547.014455 188.624482 
L 545.032925 188.624482 
z
" clip-path="url(#p9efb76ae72)" style="fill: #4c72b0; fill-opacity: 0.5; stroke: #4c72b0; stroke-linejoin: miter"/>
   </g>
   <g id="patch_249">
    <path d="M 547.014455 188.638125 
L 548.995986 188.638125 
L 548.995986 188.635396 
L 547.014455 188.635396 
z
" clip-path="url(#p9efb76ae72)" style="fill: #4c72b0; fill-opacity: 0.5; stroke: #4c72b0; stroke-linejoin: miter"/>
   </g>
   <g id="patch_250">
    <path d="M 548.995986 188.638125 
L 550.977537 188.638125 
L 550.977537 188.632668 
L 548.995986 188.632668 
z
" clip-path="url(#p9efb76ae72)" style="fill: #4c72b0; fill-opacity: 0.5; stroke: #4c72b0; stroke-linejoin: miter"/>
   </g>
   <g id="patch_251">
    <path d="M 550.977537 188.638125 
L 552.959067 188.638125 
L 552.959067 188.624482 
L 550.977537 188.624482 
z
" clip-path="url(#p9efb76ae72)" style="fill: #4c72b0; fill-opacity: 0.5; stroke: #4c72b0; stroke-linejoin: miter"/>
   </g>
   <g id="patch_252">
    <path d="M 552.959067 188.638125 
L 554.940598 188.638125 
L 554.940598 188.635396 
L 552.959067 188.635396 
z
" clip-path="url(#p9efb76ae72)" style="fill: #4c72b0; fill-opacity: 0.5; stroke: #4c72b0; stroke-linejoin: miter"/>
   </g>
   <g id="patch_253">
    <path d="M 554.940598 188.638125 
L 556.922128 188.638125 
L 556.922128 188.635396 
L 554.940598 188.635396 
z
" clip-path="url(#p9efb76ae72)" style="fill: #4c72b0; fill-opacity: 0.5; stroke: #4c72b0; stroke-linejoin: miter"/>
   </g>
   <g id="patch_254">
    <path d="M 556.922128 188.638125 
L 558.903659 188.638125 
L 558.903659 188.632668 
L 556.922128 188.632668 
z
" clip-path="url(#p9efb76ae72)" style="fill: #4c72b0; fill-opacity: 0.5; stroke: #4c72b0; stroke-linejoin: miter"/>
   </g>
   <g id="patch_255">
    <path d="M 558.903659 188.638125 
L 560.885189 188.638125 
L 560.885189 188.638125 
L 558.903659 188.638125 
z
" clip-path="url(#p9efb76ae72)" style="fill: #4c72b0; fill-opacity: 0.5; stroke: #4c72b0; stroke-linejoin: miter"/>
   </g>
   <g id="patch_256">
    <path d="M 560.885189 188.638125 
L 562.86674 188.638125 
L 562.86674 188.638125 
L 560.885189 188.638125 
z
" clip-path="url(#p9efb76ae72)" style="fill: #4c72b0; fill-opacity: 0.5; stroke: #4c72b0; stroke-linejoin: miter"/>
   </g>
   <g id="patch_257">
    <path d="M 562.86674 188.638125 
L 564.848271 188.638125 
L 564.848271 188.635396 
L 562.86674 188.635396 
z
" clip-path="url(#p9efb76ae72)" style="fill: #4c72b0; fill-opacity: 0.5; stroke: #4c72b0; stroke-linejoin: miter"/>
   </g>
   <g id="patch_258">
    <path d="M 564.848271 188.638125 
L 566.829801 188.638125 
L 566.829801 188.635396 
L 564.848271 188.635396 
z
" clip-path="url(#p9efb76ae72)" style="fill: #4c72b0; fill-opacity: 0.5; stroke: #4c72b0; stroke-linejoin: miter"/>
   </g>
   <g id="patch_259">
    <path d="M 34.193438 188.638125 
L 34.193438 22.318125 
" style="fill: none; stroke: #ffffff; stroke-width: 1.25; stroke-linejoin: miter; stroke-linecap: square"/>
   </g>
   <g id="patch_260">
    <path d="M 592.193437 188.638125 
L 592.193437 22.318125 
" style="fill: none; stroke: #ffffff; stroke-width: 1.25; stroke-linejoin: miter; stroke-linecap: square"/>
   </g>
   <g id="patch_261">
    <path d="M 34.193438 188.638125 
L 592.193437 188.638125 
" style="fill: none; stroke: #ffffff; stroke-width: 1.25; stroke-linejoin: miter; stroke-linecap: square"/>
   </g>
   <g id="patch_262">
    <path d="M 34.193438 22.318125 
L 592.193437 22.318125 
" style="fill: none; stroke: #ffffff; stroke-width: 1.25; stroke-linejoin: miter; stroke-linecap: square"/>
   </g>
   <g id="text_11">
    <!-- Variational dequantization -->
    <g style="fill: #262626" transform="translate(234.39375 16.318125) scale(0.12 -0.12)">
     <defs>
      <path id="DejaVuSans-56" d="M 1831 0 
L 50 4666 
L 709 4666 
L 2188 738 
L 3669 4666 
L 4325 4666 
L 2547 0 
L 1831 0 
z
" transform="scale(0.015625)"/>
      <path id="DejaVuSans-61" d="M 2194 1759 
Q 1497 1759 1228 1600 
Q 959 1441 959 1056 
Q 959 750 1161 570 
Q 1363 391 1709 391 
Q 2188 391 2477 730 
Q 2766 1069 2766 1631 
L 2766 1759 
L 2194 1759 
z
M 3341 1997 
L 3341 0 
L 2766 0 
L 2766 531 
Q 2569 213 2275 61 
Q 1981 -91 1556 -91 
Q 1019 -91 701 211 
Q 384 513 384 1019 
Q 384 1609 779 1909 
Q 1175 2209 1959 2209 
L 2766 2209 
L 2766 2266 
Q 2766 2663 2505 2880 
Q 2244 3097 1772 3097 
Q 1472 3097 1187 3025 
Q 903 2953 641 2809 
L 641 3341 
Q 956 3463 1253 3523 
Q 1550 3584 1831 3584 
Q 2591 3584 2966 3190 
Q 3341 2797 3341 1997 
z
" transform="scale(0.015625)"/>
      <path id="DejaVuSans-72" d="M 2631 2963 
Q 2534 3019 2420 3045 
Q 2306 3072 2169 3072 
Q 1681 3072 1420 2755 
Q 1159 2438 1159 1844 
L 1159 0 
L 581 0 
L 581 3500 
L 1159 3500 
L 1159 2956 
Q 1341 3275 1631 3429 
Q 1922 3584 2338 3584 
Q 2397 3584 2469 3576 
Q 2541 3569 2628 3553 
L 2631 2963 
z
" transform="scale(0.015625)"/>
      <path id="DejaVuSans-69" d="M 603 3500 
L 1178 3500 
L 1178 0 
L 603 0 
L 603 3500 
z
M 603 4863 
L 1178 4863 
L 1178 4134 
L 603 4134 
L 603 4863 
z
" transform="scale(0.015625)"/>
      <path id="DejaVuSans-74" d="M 1172 4494 
L 1172 3500 
L 2356 3500 
L 2356 3053 
L 1172 3053 
L 1172 1153 
Q 1172 725 1289 603 
Q 1406 481 1766 481 
L 2356 481 
L 2356 0 
L 1766 0 
Q 1100 0 847 248 
Q 594 497 594 1153 
L 594 3053 
L 172 3053 
L 172 3500 
L 594 3500 
L 594 4494 
L 1172 4494 
z
" transform="scale(0.015625)"/>
      <path id="DejaVuSans-6f" d="M 1959 3097 
Q 1497 3097 1228 2736 
Q 959 2375 959 1747 
Q 959 1119 1226 758 
Q 1494 397 1959 397 
Q 2419 397 2687 759 
Q 2956 1122 2956 1747 
Q 2956 2369 2687 2733 
Q 2419 3097 1959 3097 
z
M 1959 3584 
Q 2709 3584 3137 3096 
Q 3566 2609 3566 1747 
Q 3566 888 3137 398 
Q 2709 -91 1959 -91 
Q 1206 -91 779 398 
Q 353 888 353 1747 
Q 353 2609 779 3096 
Q 1206 3584 1959 3584 
z
" transform="scale(0.015625)"/>
      <path id="DejaVuSans-6e" d="M 3513 2113 
L 3513 0 
L 2938 0 
L 2938 2094 
Q 2938 2591 2744 2837 
Q 2550 3084 2163 3084 
Q 1697 3084 1428 2787 
Q 1159 2491 1159 1978 
L 1159 0 
L 581 0 
L 581 3500 
L 1159 3500 
L 1159 2956 
Q 1366 3272 1645 3428 
Q 1925 3584 2291 3584 
Q 2894 3584 3203 3211 
Q 3513 2838 3513 2113 
z
" transform="scale(0.015625)"/>
      <path id="DejaVuSans-6c" d="M 603 4863 
L 1178 4863 
L 1178 0 
L 603 0 
L 603 4863 
z
" transform="scale(0.015625)"/>
      <path id="DejaVuSans-20" transform="scale(0.015625)"/>
      <path id="DejaVuSans-64" d="M 2906 2969 
L 2906 4863 
L 3481 4863 
L 3481 0 
L 2906 0 
L 2906 525 
Q 2725 213 2448 61 
Q 2172 -91 1784 -91 
Q 1150 -91 751 415 
Q 353 922 353 1747 
Q 353 2572 751 3078 
Q 1150 3584 1784 3584 
Q 2172 3584 2448 3432 
Q 2725 3281 2906 2969 
z
M 947 1747 
Q 947 1113 1208 752 
Q 1469 391 1925 391 
Q 2381 391 2643 752 
Q 2906 1113 2906 1747 
Q 2906 2381 2643 2742 
Q 2381 3103 1925 3103 
Q 1469 3103 1208 2742 
Q 947 2381 947 1747 
z
" transform="scale(0.015625)"/>
      <path id="DejaVuSans-65" d="M 3597 1894 
L 3597 1613 
L 953 1613 
Q 991 1019 1311 708 
Q 1631 397 2203 397 
Q 2534 397 2845 478 
Q 3156 559 3463 722 
L 3463 178 
Q 3153 47 2828 -22 
Q 2503 -91 2169 -91 
Q 1331 -91 842 396 
Q 353 884 353 1716 
Q 353 2575 817 3079 
Q 1281 3584 2069 3584 
Q 2775 3584 3186 3129 
Q 3597 2675 3597 1894 
z
M 3022 2063 
Q 3016 2534 2758 2815 
Q 2500 3097 2075 3097 
Q 1594 3097 1305 2825 
Q 1016 2553 972 2059 
L 3022 2063 
z
" transform="scale(0.015625)"/>
      <path id="DejaVuSans-71" d="M 947 1747 
Q 947 1113 1208 752 
Q 1469 391 1925 391 
Q 2381 391 2643 752 
Q 2906 1113 2906 1747 
Q 2906 2381 2643 2742 
Q 2381 3103 1925 3103 
Q 1469 3103 1208 2742 
Q 947 2381 947 1747 
z
M 2906 525 
Q 2725 213 2448 61 
Q 2172 -91 1784 -91 
Q 1150 -91 751 415 
Q 353 922 353 1747 
Q 353 2572 751 3078 
Q 1150 3584 1784 3584 
Q 2172 3584 2448 3432 
Q 2725 3281 2906 2969 
L 2906 3500 
L 3481 3500 
L 3481 -1331 
L 2906 -1331 
L 2906 525 
z
" transform="scale(0.015625)"/>
      <path id="DejaVuSans-75" d="M 544 1381 
L 544 3500 
L 1119 3500 
L 1119 1403 
Q 1119 906 1312 657 
Q 1506 409 1894 409 
Q 2359 409 2629 706 
Q 2900 1003 2900 1516 
L 2900 3500 
L 3475 3500 
L 3475 0 
L 2900 0 
L 2900 538 
Q 2691 219 2414 64 
Q 2138 -91 1772 -91 
Q 1169 -91 856 284 
Q 544 659 544 1381 
z
M 1991 3584 
L 1991 3584 
z
" transform="scale(0.015625)"/>
      <path id="DejaVuSans-7a" d="M 353 3500 
L 3084 3500 
L 3084 2975 
L 922 459 
L 3084 459 
L 3084 0 
L 275 0 
L 275 525 
L 2438 3041 
L 353 3041 
L 353 3500 
z
" transform="scale(0.015625)"/>
     </defs>
     <use xlink:href="#DejaVuSans-56"/>
     <use xlink:href="#DejaVuSans-61" x="60.658203"/>
     <use xlink:href="#DejaVuSans-72" x="121.9375"/>
     <use xlink:href="#DejaVuSans-69" x="163.050781"/>
     <use xlink:href="#DejaVuSans-61" x="190.833984"/>
     <use xlink:href="#DejaVuSans-74" x="252.113281"/>
     <use xlink:href="#DejaVuSans-69" x="291.322266"/>
     <use xlink:href="#DejaVuSans-6f" x="319.105469"/>
     <use xlink:href="#DejaVuSans-6e" x="380.287109"/>
     <use xlink:href="#DejaVuSans-61" x="443.666016"/>
     <use xlink:href="#DejaVuSans-6c" x="504.945312"/>
     <use xlink:href="#DejaVuSans-20" x="532.728516"/>
     <use xlink:href="#DejaVuSans-64" x="564.515625"/>
     <use xlink:href="#DejaVuSans-65" x="627.992188"/>
     <use xlink:href="#DejaVuSans-71" x="689.515625"/>
     <use xlink:href="#DejaVuSans-75" x="752.992188"/>
     <use xlink:href="#DejaVuSans-61" x="816.371094"/>
     <use xlink:href="#DejaVuSans-6e" x="877.650391"/>
     <use xlink:href="#DejaVuSans-74" x="941.029297"/>
     <use xlink:href="#DejaVuSans-69" x="980.238281"/>
     <use xlink:href="#DejaVuSans-7a" x="1008.021484"/>
     <use xlink:href="#DejaVuSans-61" x="1060.511719"/>
     <use xlink:href="#DejaVuSans-74" x="1121.791016"/>
     <use xlink:href="#DejaVuSans-69" x="1161"/>
     <use xlink:href="#DejaVuSans-6f" x="1188.783203"/>
     <use xlink:href="#DejaVuSans-6e" x="1249.964844"/>
    </g>
   </g>
  </g>
 </g>
 <defs>
  <clipPath id="p9efb76ae72">
   <rect x="34.193438" y="22.318125" width="558" height="166.32"/>
  </clipPath>
 </defs>
</svg>
